%TF.GenerationSoftware,KiCad,Pcbnew,7.0.10*%
%TF.CreationDate,2024-05-11T12:39:29+02:00*%
%TF.ProjectId,Forte_PA_Deck,466f7274-655f-4504-915f-4465636b2e6b,1.0*%
%TF.SameCoordinates,Original*%
%TF.FileFunction,Profile,NP*%
%FSLAX46Y46*%
G04 Gerber Fmt 4.6, Leading zero omitted, Abs format (unit mm)*
G04 Created by KiCad (PCBNEW 7.0.10) date 2024-05-11 12:39:29*
%MOMM*%
%LPD*%
G01*
G04 APERTURE LIST*
%TA.AperFunction,Profile*%
%ADD10C,0.100000*%
%TD*%
G04 APERTURE END LIST*
D10*
X102792893Y-79999993D02*
G75*
G03*
X103792893Y-79000000I7J999993D01*
G01*
X29000000Y-32000000D02*
G75*
G03*
X24000000Y-37000000I0J-5000000D01*
G01*
X84478600Y-134950000D02*
G75*
G03*
X85478553Y-135950000I1000000J0D01*
G01*
X280000000Y-37000000D02*
G75*
G03*
X275000000Y-32000000I-5000000J0D01*
G01*
X103792900Y-57000000D02*
G75*
G03*
X102792893Y-56000000I-1000000J0D01*
G01*
X85478553Y-111950000D02*
X102771446Y-111950000D01*
X102792893Y-80000000D02*
X85500000Y-80000000D01*
X84500000Y-79000000D02*
X84500000Y-57000000D01*
X103771446Y-112950000D02*
X103771446Y-134950000D01*
X85500000Y-56000000D02*
G75*
G03*
X84500000Y-57000000I0J-1000000D01*
G01*
X103792893Y-57000000D02*
X103792893Y-79000000D01*
X275000000Y-153000000D02*
X29000000Y-153000000D01*
X24000000Y-148000000D02*
X24000000Y-37000000D01*
X102771446Y-135950046D02*
G75*
G03*
X103771446Y-134950000I-46J1000046D01*
G01*
X29000000Y-32000000D02*
X275000000Y-32000000D01*
X84500000Y-79000000D02*
G75*
G03*
X85500000Y-80000000I1000000J0D01*
G01*
X85500000Y-56000000D02*
X102792893Y-56000000D01*
X102771446Y-135950000D02*
X85478553Y-135950000D01*
X84478553Y-134950000D02*
X84478553Y-112950000D01*
X280000000Y-37000000D02*
X280000000Y-148000000D01*
X85478553Y-111949953D02*
G75*
G03*
X84478553Y-112950000I47J-1000047D01*
G01*
X103771500Y-112950000D02*
G75*
G03*
X102771446Y-111950000I-1000000J0D01*
G01*
X275000000Y-153000000D02*
G75*
G03*
X280000000Y-148000000I0J5000000D01*
G01*
X24000000Y-148000000D02*
G75*
G03*
X29000000Y-153000000I5000000J0D01*
G01*
M02*
