%TF.GenerationSoftware,KiCad,Pcbnew,7.0.10*%
%TF.CreationDate,2024-05-11T12:39:23+02:00*%
%TF.ProjectId,Forte_PA_Deck,466f7274-655f-4504-915f-4465636b2e6b,1.0*%
%TF.SameCoordinates,Original*%
%TF.FileFunction,Drillmap*%
%TF.FilePolarity,Positive*%
%FSLAX45Y45*%
G04 Gerber Fmt 4.5, Leading zero omitted, Abs format (unit mm)*
G04 Created by KiCad (PCBNEW 7.0.10) date 2024-05-11 12:39:23*
%MOMM*%
%LPD*%
G01*
G04 APERTURE LIST*
%ADD10C,0.100000*%
%ADD11C,0.200000*%
%ADD12C,0.360000*%
G04 APERTURE END LIST*
D10*
X10279289Y-7999999D02*
G75*
G03*
X10379289Y-7900000I1J99999D01*
G01*
X2900000Y-3200000D02*
G75*
G03*
X2400000Y-3700000I0J-500000D01*
G01*
X8447860Y-13495000D02*
G75*
G03*
X8547855Y-13595000I100000J0D01*
G01*
X28000000Y-3700000D02*
G75*
G03*
X27500000Y-3200000I-500000J0D01*
G01*
X10379290Y-5700000D02*
G75*
G03*
X10279289Y-5600000I-100000J0D01*
G01*
X8547855Y-11195000D02*
X10277145Y-11195000D01*
X10279289Y-8000000D02*
X8550000Y-8000000D01*
X8450000Y-7900000D02*
X8450000Y-5700000D01*
X10377145Y-11295000D02*
X10377145Y-13495000D01*
X8550000Y-5600000D02*
G75*
G03*
X8450000Y-5700000I0J-100000D01*
G01*
X10379289Y-5700000D02*
X10379289Y-7900000D01*
X27500000Y-15300000D02*
X2900000Y-15300000D01*
X2400000Y-14800000D02*
X2400000Y-3700000D01*
X10277145Y-13595005D02*
G75*
G03*
X10377145Y-13495000I-5J100005D01*
G01*
X2900000Y-3200000D02*
X27500000Y-3200000D01*
X8450000Y-7900000D02*
G75*
G03*
X8550000Y-8000000I100000J0D01*
G01*
X8550000Y-5600000D02*
X10279289Y-5600000D01*
X10277145Y-13595000D02*
X8547855Y-13595000D01*
X8447855Y-13495000D02*
X8447855Y-11295000D01*
X28000000Y-3700000D02*
X28000000Y-14800000D01*
X8547855Y-11194995D02*
G75*
G03*
X8447855Y-11295000I5J-100005D01*
G01*
X10377150Y-11295000D02*
G75*
G03*
X10277145Y-11195000I-100000J0D01*
G01*
X27500000Y-15300000D02*
G75*
G03*
X28000000Y-14800000I0J500000D01*
G01*
X2400000Y-14800000D02*
G75*
G03*
X2900000Y-15300000I500000J0D01*
G01*
D11*
D12*
X9225000Y-6214000D02*
X9585000Y-6574000D01*
X9585000Y-6214000D02*
X9225000Y-6574000D01*
X9225000Y-12606000D02*
X9585000Y-12966000D01*
X9585000Y-12606000D02*
X9225000Y-12966000D01*
D11*
X2655777Y-15616484D02*
X2655777Y-15416484D01*
X2655777Y-15416484D02*
X2703396Y-15416484D01*
X2703396Y-15416484D02*
X2731967Y-15426008D01*
X2731967Y-15426008D02*
X2751015Y-15445055D01*
X2751015Y-15445055D02*
X2760539Y-15464103D01*
X2760539Y-15464103D02*
X2770063Y-15502198D01*
X2770063Y-15502198D02*
X2770063Y-15530769D01*
X2770063Y-15530769D02*
X2760539Y-15568865D01*
X2760539Y-15568865D02*
X2751015Y-15587912D01*
X2751015Y-15587912D02*
X2731967Y-15606960D01*
X2731967Y-15606960D02*
X2703396Y-15616484D01*
X2703396Y-15616484D02*
X2655777Y-15616484D01*
X2855777Y-15616484D02*
X2855777Y-15483150D01*
X2855777Y-15521246D02*
X2865301Y-15502198D01*
X2865301Y-15502198D02*
X2874824Y-15492674D01*
X2874824Y-15492674D02*
X2893872Y-15483150D01*
X2893872Y-15483150D02*
X2912920Y-15483150D01*
X2979586Y-15616484D02*
X2979586Y-15483150D01*
X2979586Y-15416484D02*
X2970062Y-15426008D01*
X2970062Y-15426008D02*
X2979586Y-15435531D01*
X2979586Y-15435531D02*
X2989110Y-15426008D01*
X2989110Y-15426008D02*
X2979586Y-15416484D01*
X2979586Y-15416484D02*
X2979586Y-15435531D01*
X3103396Y-15616484D02*
X3084348Y-15606960D01*
X3084348Y-15606960D02*
X3074824Y-15587912D01*
X3074824Y-15587912D02*
X3074824Y-15416484D01*
X3208158Y-15616484D02*
X3189110Y-15606960D01*
X3189110Y-15606960D02*
X3179586Y-15587912D01*
X3179586Y-15587912D02*
X3179586Y-15416484D01*
X3436729Y-15616484D02*
X3436729Y-15416484D01*
X3436729Y-15416484D02*
X3503396Y-15559341D01*
X3503396Y-15559341D02*
X3570062Y-15416484D01*
X3570062Y-15416484D02*
X3570062Y-15616484D01*
X3751015Y-15616484D02*
X3751015Y-15511722D01*
X3751015Y-15511722D02*
X3741491Y-15492674D01*
X3741491Y-15492674D02*
X3722443Y-15483150D01*
X3722443Y-15483150D02*
X3684348Y-15483150D01*
X3684348Y-15483150D02*
X3665301Y-15492674D01*
X3751015Y-15606960D02*
X3731967Y-15616484D01*
X3731967Y-15616484D02*
X3684348Y-15616484D01*
X3684348Y-15616484D02*
X3665301Y-15606960D01*
X3665301Y-15606960D02*
X3655777Y-15587912D01*
X3655777Y-15587912D02*
X3655777Y-15568865D01*
X3655777Y-15568865D02*
X3665301Y-15549817D01*
X3665301Y-15549817D02*
X3684348Y-15540293D01*
X3684348Y-15540293D02*
X3731967Y-15540293D01*
X3731967Y-15540293D02*
X3751015Y-15530769D01*
X3846253Y-15483150D02*
X3846253Y-15683150D01*
X3846253Y-15492674D02*
X3865301Y-15483150D01*
X3865301Y-15483150D02*
X3903396Y-15483150D01*
X3903396Y-15483150D02*
X3922443Y-15492674D01*
X3922443Y-15492674D02*
X3931967Y-15502198D01*
X3931967Y-15502198D02*
X3941491Y-15521246D01*
X3941491Y-15521246D02*
X3941491Y-15578388D01*
X3941491Y-15578388D02*
X3931967Y-15597436D01*
X3931967Y-15597436D02*
X3922443Y-15606960D01*
X3922443Y-15606960D02*
X3903396Y-15616484D01*
X3903396Y-15616484D02*
X3865301Y-15616484D01*
X3865301Y-15616484D02*
X3846253Y-15606960D01*
X4027205Y-15597436D02*
X4036729Y-15606960D01*
X4036729Y-15606960D02*
X4027205Y-15616484D01*
X4027205Y-15616484D02*
X4017682Y-15606960D01*
X4017682Y-15606960D02*
X4027205Y-15597436D01*
X4027205Y-15597436D02*
X4027205Y-15616484D01*
X4027205Y-15492674D02*
X4036729Y-15502198D01*
X4036729Y-15502198D02*
X4027205Y-15511722D01*
X4027205Y-15511722D02*
X4017682Y-15502198D01*
X4017682Y-15502198D02*
X4027205Y-15492674D01*
X4027205Y-15492674D02*
X4027205Y-15511722D01*
X2195000Y-15845000D02*
X2395000Y-16045000D01*
X2395000Y-15845000D02*
X2195000Y-16045000D01*
X2636729Y-15836484D02*
X2760539Y-15836484D01*
X2760539Y-15836484D02*
X2693872Y-15912674D01*
X2693872Y-15912674D02*
X2722444Y-15912674D01*
X2722444Y-15912674D02*
X2741491Y-15922198D01*
X2741491Y-15922198D02*
X2751015Y-15931722D01*
X2751015Y-15931722D02*
X2760539Y-15950769D01*
X2760539Y-15950769D02*
X2760539Y-15998388D01*
X2760539Y-15998388D02*
X2751015Y-16017436D01*
X2751015Y-16017436D02*
X2741491Y-16026960D01*
X2741491Y-16026960D02*
X2722444Y-16036484D01*
X2722444Y-16036484D02*
X2665301Y-16036484D01*
X2665301Y-16036484D02*
X2646253Y-16026960D01*
X2646253Y-16026960D02*
X2636729Y-16017436D01*
X2846253Y-16017436D02*
X2855777Y-16026960D01*
X2855777Y-16026960D02*
X2846253Y-16036484D01*
X2846253Y-16036484D02*
X2836729Y-16026960D01*
X2836729Y-16026960D02*
X2846253Y-16017436D01*
X2846253Y-16017436D02*
X2846253Y-16036484D01*
X3027205Y-15836484D02*
X2989110Y-15836484D01*
X2989110Y-15836484D02*
X2970062Y-15846008D01*
X2970062Y-15846008D02*
X2960539Y-15855531D01*
X2960539Y-15855531D02*
X2941491Y-15884103D01*
X2941491Y-15884103D02*
X2931967Y-15922198D01*
X2931967Y-15922198D02*
X2931967Y-15998388D01*
X2931967Y-15998388D02*
X2941491Y-16017436D01*
X2941491Y-16017436D02*
X2951015Y-16026960D01*
X2951015Y-16026960D02*
X2970062Y-16036484D01*
X2970062Y-16036484D02*
X3008158Y-16036484D01*
X3008158Y-16036484D02*
X3027205Y-16026960D01*
X3027205Y-16026960D02*
X3036729Y-16017436D01*
X3036729Y-16017436D02*
X3046253Y-15998388D01*
X3046253Y-15998388D02*
X3046253Y-15950769D01*
X3046253Y-15950769D02*
X3036729Y-15931722D01*
X3036729Y-15931722D02*
X3027205Y-15922198D01*
X3027205Y-15922198D02*
X3008158Y-15912674D01*
X3008158Y-15912674D02*
X2970062Y-15912674D01*
X2970062Y-15912674D02*
X2951015Y-15922198D01*
X2951015Y-15922198D02*
X2941491Y-15931722D01*
X2941491Y-15931722D02*
X2931967Y-15950769D01*
X3170062Y-15836484D02*
X3189110Y-15836484D01*
X3189110Y-15836484D02*
X3208158Y-15846008D01*
X3208158Y-15846008D02*
X3217682Y-15855531D01*
X3217682Y-15855531D02*
X3227205Y-15874579D01*
X3227205Y-15874579D02*
X3236729Y-15912674D01*
X3236729Y-15912674D02*
X3236729Y-15960293D01*
X3236729Y-15960293D02*
X3227205Y-15998388D01*
X3227205Y-15998388D02*
X3217682Y-16017436D01*
X3217682Y-16017436D02*
X3208158Y-16026960D01*
X3208158Y-16026960D02*
X3189110Y-16036484D01*
X3189110Y-16036484D02*
X3170062Y-16036484D01*
X3170062Y-16036484D02*
X3151015Y-16026960D01*
X3151015Y-16026960D02*
X3141491Y-16017436D01*
X3141491Y-16017436D02*
X3131967Y-15998388D01*
X3131967Y-15998388D02*
X3122443Y-15960293D01*
X3122443Y-15960293D02*
X3122443Y-15912674D01*
X3122443Y-15912674D02*
X3131967Y-15874579D01*
X3131967Y-15874579D02*
X3141491Y-15855531D01*
X3141491Y-15855531D02*
X3151015Y-15846008D01*
X3151015Y-15846008D02*
X3170062Y-15836484D01*
X3360539Y-15836484D02*
X3379586Y-15836484D01*
X3379586Y-15836484D02*
X3398634Y-15846008D01*
X3398634Y-15846008D02*
X3408158Y-15855531D01*
X3408158Y-15855531D02*
X3417682Y-15874579D01*
X3417682Y-15874579D02*
X3427205Y-15912674D01*
X3427205Y-15912674D02*
X3427205Y-15960293D01*
X3427205Y-15960293D02*
X3417682Y-15998388D01*
X3417682Y-15998388D02*
X3408158Y-16017436D01*
X3408158Y-16017436D02*
X3398634Y-16026960D01*
X3398634Y-16026960D02*
X3379586Y-16036484D01*
X3379586Y-16036484D02*
X3360539Y-16036484D01*
X3360539Y-16036484D02*
X3341491Y-16026960D01*
X3341491Y-16026960D02*
X3331967Y-16017436D01*
X3331967Y-16017436D02*
X3322443Y-15998388D01*
X3322443Y-15998388D02*
X3312920Y-15960293D01*
X3312920Y-15960293D02*
X3312920Y-15912674D01*
X3312920Y-15912674D02*
X3322443Y-15874579D01*
X3322443Y-15874579D02*
X3331967Y-15855531D01*
X3331967Y-15855531D02*
X3341491Y-15846008D01*
X3341491Y-15846008D02*
X3360539Y-15836484D01*
X3512920Y-16036484D02*
X3512920Y-15903150D01*
X3512920Y-15922198D02*
X3522443Y-15912674D01*
X3522443Y-15912674D02*
X3541491Y-15903150D01*
X3541491Y-15903150D02*
X3570063Y-15903150D01*
X3570063Y-15903150D02*
X3589110Y-15912674D01*
X3589110Y-15912674D02*
X3598634Y-15931722D01*
X3598634Y-15931722D02*
X3598634Y-16036484D01*
X3598634Y-15931722D02*
X3608158Y-15912674D01*
X3608158Y-15912674D02*
X3627205Y-15903150D01*
X3627205Y-15903150D02*
X3655777Y-15903150D01*
X3655777Y-15903150D02*
X3674824Y-15912674D01*
X3674824Y-15912674D02*
X3684348Y-15931722D01*
X3684348Y-15931722D02*
X3684348Y-16036484D01*
X3779586Y-16036484D02*
X3779586Y-15903150D01*
X3779586Y-15922198D02*
X3789110Y-15912674D01*
X3789110Y-15912674D02*
X3808158Y-15903150D01*
X3808158Y-15903150D02*
X3836729Y-15903150D01*
X3836729Y-15903150D02*
X3855777Y-15912674D01*
X3855777Y-15912674D02*
X3865301Y-15931722D01*
X3865301Y-15931722D02*
X3865301Y-16036484D01*
X3865301Y-15931722D02*
X3874824Y-15912674D01*
X3874824Y-15912674D02*
X3893872Y-15903150D01*
X3893872Y-15903150D02*
X3922443Y-15903150D01*
X3922443Y-15903150D02*
X3941491Y-15912674D01*
X3941491Y-15912674D02*
X3951015Y-15931722D01*
X3951015Y-15931722D02*
X3951015Y-16036484D01*
X4341491Y-15826960D02*
X4170063Y-16084103D01*
X4598634Y-15836484D02*
X4617682Y-15836484D01*
X4617682Y-15836484D02*
X4636729Y-15846008D01*
X4636729Y-15846008D02*
X4646253Y-15855531D01*
X4646253Y-15855531D02*
X4655777Y-15874579D01*
X4655777Y-15874579D02*
X4665301Y-15912674D01*
X4665301Y-15912674D02*
X4665301Y-15960293D01*
X4665301Y-15960293D02*
X4655777Y-15998388D01*
X4655777Y-15998388D02*
X4646253Y-16017436D01*
X4646253Y-16017436D02*
X4636729Y-16026960D01*
X4636729Y-16026960D02*
X4617682Y-16036484D01*
X4617682Y-16036484D02*
X4598634Y-16036484D01*
X4598634Y-16036484D02*
X4579587Y-16026960D01*
X4579587Y-16026960D02*
X4570063Y-16017436D01*
X4570063Y-16017436D02*
X4560539Y-15998388D01*
X4560539Y-15998388D02*
X4551015Y-15960293D01*
X4551015Y-15960293D02*
X4551015Y-15912674D01*
X4551015Y-15912674D02*
X4560539Y-15874579D01*
X4560539Y-15874579D02*
X4570063Y-15855531D01*
X4570063Y-15855531D02*
X4579587Y-15846008D01*
X4579587Y-15846008D02*
X4598634Y-15836484D01*
X4751015Y-16017436D02*
X4760539Y-16026960D01*
X4760539Y-16026960D02*
X4751015Y-16036484D01*
X4751015Y-16036484D02*
X4741491Y-16026960D01*
X4741491Y-16026960D02*
X4751015Y-16017436D01*
X4751015Y-16017436D02*
X4751015Y-16036484D01*
X4951015Y-16036484D02*
X4836729Y-16036484D01*
X4893872Y-16036484D02*
X4893872Y-15836484D01*
X4893872Y-15836484D02*
X4874825Y-15865055D01*
X4874825Y-15865055D02*
X4855777Y-15884103D01*
X4855777Y-15884103D02*
X4836729Y-15893627D01*
X5122444Y-15903150D02*
X5122444Y-16036484D01*
X5074825Y-15826960D02*
X5027206Y-15969817D01*
X5027206Y-15969817D02*
X5151015Y-15969817D01*
X5331968Y-16036484D02*
X5217682Y-16036484D01*
X5274825Y-16036484D02*
X5274825Y-15836484D01*
X5274825Y-15836484D02*
X5255777Y-15865055D01*
X5255777Y-15865055D02*
X5236729Y-15884103D01*
X5236729Y-15884103D02*
X5217682Y-15893627D01*
X5398634Y-15836484D02*
X5531968Y-15836484D01*
X5531968Y-15836484D02*
X5446253Y-16036484D01*
X5598634Y-15836484D02*
X5598634Y-15874579D01*
X5674825Y-15836484D02*
X5674825Y-15874579D01*
X5970063Y-16112674D02*
X5960539Y-16103150D01*
X5960539Y-16103150D02*
X5941491Y-16074579D01*
X5941491Y-16074579D02*
X5931968Y-16055531D01*
X5931968Y-16055531D02*
X5922444Y-16026960D01*
X5922444Y-16026960D02*
X5912920Y-15979341D01*
X5912920Y-15979341D02*
X5912920Y-15941246D01*
X5912920Y-15941246D02*
X5922444Y-15893627D01*
X5922444Y-15893627D02*
X5931968Y-15865055D01*
X5931968Y-15865055D02*
X5941491Y-15846008D01*
X5941491Y-15846008D02*
X5960539Y-15817436D01*
X5960539Y-15817436D02*
X5970063Y-15807912D01*
X6036729Y-15855531D02*
X6046253Y-15846008D01*
X6046253Y-15846008D02*
X6065301Y-15836484D01*
X6065301Y-15836484D02*
X6112920Y-15836484D01*
X6112920Y-15836484D02*
X6131968Y-15846008D01*
X6131968Y-15846008D02*
X6141491Y-15855531D01*
X6141491Y-15855531D02*
X6151015Y-15874579D01*
X6151015Y-15874579D02*
X6151015Y-15893627D01*
X6151015Y-15893627D02*
X6141491Y-15922198D01*
X6141491Y-15922198D02*
X6027206Y-16036484D01*
X6027206Y-16036484D02*
X6151015Y-16036484D01*
X6389110Y-16036484D02*
X6389110Y-15836484D01*
X6474825Y-16036484D02*
X6474825Y-15931722D01*
X6474825Y-15931722D02*
X6465301Y-15912674D01*
X6465301Y-15912674D02*
X6446253Y-15903150D01*
X6446253Y-15903150D02*
X6417682Y-15903150D01*
X6417682Y-15903150D02*
X6398634Y-15912674D01*
X6398634Y-15912674D02*
X6389110Y-15922198D01*
X6598634Y-16036484D02*
X6579587Y-16026960D01*
X6579587Y-16026960D02*
X6570063Y-16017436D01*
X6570063Y-16017436D02*
X6560539Y-15998388D01*
X6560539Y-15998388D02*
X6560539Y-15941246D01*
X6560539Y-15941246D02*
X6570063Y-15922198D01*
X6570063Y-15922198D02*
X6579587Y-15912674D01*
X6579587Y-15912674D02*
X6598634Y-15903150D01*
X6598634Y-15903150D02*
X6627206Y-15903150D01*
X6627206Y-15903150D02*
X6646253Y-15912674D01*
X6646253Y-15912674D02*
X6655777Y-15922198D01*
X6655777Y-15922198D02*
X6665301Y-15941246D01*
X6665301Y-15941246D02*
X6665301Y-15998388D01*
X6665301Y-15998388D02*
X6655777Y-16017436D01*
X6655777Y-16017436D02*
X6646253Y-16026960D01*
X6646253Y-16026960D02*
X6627206Y-16036484D01*
X6627206Y-16036484D02*
X6598634Y-16036484D01*
X6779587Y-16036484D02*
X6760539Y-16026960D01*
X6760539Y-16026960D02*
X6751015Y-16007912D01*
X6751015Y-16007912D02*
X6751015Y-15836484D01*
X6931968Y-16026960D02*
X6912920Y-16036484D01*
X6912920Y-16036484D02*
X6874825Y-16036484D01*
X6874825Y-16036484D02*
X6855777Y-16026960D01*
X6855777Y-16026960D02*
X6846253Y-16007912D01*
X6846253Y-16007912D02*
X6846253Y-15931722D01*
X6846253Y-15931722D02*
X6855777Y-15912674D01*
X6855777Y-15912674D02*
X6874825Y-15903150D01*
X6874825Y-15903150D02*
X6912920Y-15903150D01*
X6912920Y-15903150D02*
X6931968Y-15912674D01*
X6931968Y-15912674D02*
X6941491Y-15931722D01*
X6941491Y-15931722D02*
X6941491Y-15950769D01*
X6941491Y-15950769D02*
X6846253Y-15969817D01*
X7017682Y-16026960D02*
X7036730Y-16036484D01*
X7036730Y-16036484D02*
X7074825Y-16036484D01*
X7074825Y-16036484D02*
X7093872Y-16026960D01*
X7093872Y-16026960D02*
X7103396Y-16007912D01*
X7103396Y-16007912D02*
X7103396Y-15998388D01*
X7103396Y-15998388D02*
X7093872Y-15979341D01*
X7093872Y-15979341D02*
X7074825Y-15969817D01*
X7074825Y-15969817D02*
X7046253Y-15969817D01*
X7046253Y-15969817D02*
X7027206Y-15960293D01*
X7027206Y-15960293D02*
X7017682Y-15941246D01*
X7017682Y-15941246D02*
X7017682Y-15931722D01*
X7017682Y-15931722D02*
X7027206Y-15912674D01*
X7027206Y-15912674D02*
X7046253Y-15903150D01*
X7046253Y-15903150D02*
X7074825Y-15903150D01*
X7074825Y-15903150D02*
X7093872Y-15912674D01*
X7170063Y-16112674D02*
X7179587Y-16103150D01*
X7179587Y-16103150D02*
X7198634Y-16074579D01*
X7198634Y-16074579D02*
X7208158Y-16055531D01*
X7208158Y-16055531D02*
X7217682Y-16026960D01*
X7217682Y-16026960D02*
X7227206Y-15979341D01*
X7227206Y-15979341D02*
X7227206Y-15941246D01*
X7227206Y-15941246D02*
X7217682Y-15893627D01*
X7217682Y-15893627D02*
X7208158Y-15865055D01*
X7208158Y-15865055D02*
X7198634Y-15846008D01*
X7198634Y-15846008D02*
X7179587Y-15817436D01*
X7179587Y-15817436D02*
X7170063Y-15807912D01*
X7531968Y-16112674D02*
X7522444Y-16103150D01*
X7522444Y-16103150D02*
X7503396Y-16074579D01*
X7503396Y-16074579D02*
X7493872Y-16055531D01*
X7493872Y-16055531D02*
X7484349Y-16026960D01*
X7484349Y-16026960D02*
X7474825Y-15979341D01*
X7474825Y-15979341D02*
X7474825Y-15941246D01*
X7474825Y-15941246D02*
X7484349Y-15893627D01*
X7484349Y-15893627D02*
X7493872Y-15865055D01*
X7493872Y-15865055D02*
X7503396Y-15846008D01*
X7503396Y-15846008D02*
X7522444Y-15817436D01*
X7522444Y-15817436D02*
X7531968Y-15807912D01*
X7608158Y-15903150D02*
X7608158Y-16036484D01*
X7608158Y-15922198D02*
X7617682Y-15912674D01*
X7617682Y-15912674D02*
X7636730Y-15903150D01*
X7636730Y-15903150D02*
X7665301Y-15903150D01*
X7665301Y-15903150D02*
X7684349Y-15912674D01*
X7684349Y-15912674D02*
X7693872Y-15931722D01*
X7693872Y-15931722D02*
X7693872Y-16036484D01*
X7817682Y-16036484D02*
X7798634Y-16026960D01*
X7798634Y-16026960D02*
X7789111Y-16017436D01*
X7789111Y-16017436D02*
X7779587Y-15998388D01*
X7779587Y-15998388D02*
X7779587Y-15941246D01*
X7779587Y-15941246D02*
X7789111Y-15922198D01*
X7789111Y-15922198D02*
X7798634Y-15912674D01*
X7798634Y-15912674D02*
X7817682Y-15903150D01*
X7817682Y-15903150D02*
X7846253Y-15903150D01*
X7846253Y-15903150D02*
X7865301Y-15912674D01*
X7865301Y-15912674D02*
X7874825Y-15922198D01*
X7874825Y-15922198D02*
X7884349Y-15941246D01*
X7884349Y-15941246D02*
X7884349Y-15998388D01*
X7884349Y-15998388D02*
X7874825Y-16017436D01*
X7874825Y-16017436D02*
X7865301Y-16026960D01*
X7865301Y-16026960D02*
X7846253Y-16036484D01*
X7846253Y-16036484D02*
X7817682Y-16036484D01*
X7941492Y-15903150D02*
X8017682Y-15903150D01*
X7970063Y-15836484D02*
X7970063Y-16007912D01*
X7970063Y-16007912D02*
X7979587Y-16026960D01*
X7979587Y-16026960D02*
X7998634Y-16036484D01*
X7998634Y-16036484D02*
X8017682Y-16036484D01*
X8236730Y-15903150D02*
X8236730Y-16103150D01*
X8236730Y-15912674D02*
X8255777Y-15903150D01*
X8255777Y-15903150D02*
X8293873Y-15903150D01*
X8293873Y-15903150D02*
X8312920Y-15912674D01*
X8312920Y-15912674D02*
X8322444Y-15922198D01*
X8322444Y-15922198D02*
X8331968Y-15941246D01*
X8331968Y-15941246D02*
X8331968Y-15998388D01*
X8331968Y-15998388D02*
X8322444Y-16017436D01*
X8322444Y-16017436D02*
X8312920Y-16026960D01*
X8312920Y-16026960D02*
X8293873Y-16036484D01*
X8293873Y-16036484D02*
X8255777Y-16036484D01*
X8255777Y-16036484D02*
X8236730Y-16026960D01*
X8446254Y-16036484D02*
X8427206Y-16026960D01*
X8427206Y-16026960D02*
X8417682Y-16007912D01*
X8417682Y-16007912D02*
X8417682Y-15836484D01*
X8608158Y-16036484D02*
X8608158Y-15931722D01*
X8608158Y-15931722D02*
X8598635Y-15912674D01*
X8598635Y-15912674D02*
X8579587Y-15903150D01*
X8579587Y-15903150D02*
X8541492Y-15903150D01*
X8541492Y-15903150D02*
X8522444Y-15912674D01*
X8608158Y-16026960D02*
X8589111Y-16036484D01*
X8589111Y-16036484D02*
X8541492Y-16036484D01*
X8541492Y-16036484D02*
X8522444Y-16026960D01*
X8522444Y-16026960D02*
X8512920Y-16007912D01*
X8512920Y-16007912D02*
X8512920Y-15988865D01*
X8512920Y-15988865D02*
X8522444Y-15969817D01*
X8522444Y-15969817D02*
X8541492Y-15960293D01*
X8541492Y-15960293D02*
X8589111Y-15960293D01*
X8589111Y-15960293D02*
X8608158Y-15950769D01*
X8674825Y-15903150D02*
X8751015Y-15903150D01*
X8703396Y-15836484D02*
X8703396Y-16007912D01*
X8703396Y-16007912D02*
X8712920Y-16026960D01*
X8712920Y-16026960D02*
X8731968Y-16036484D01*
X8731968Y-16036484D02*
X8751015Y-16036484D01*
X8893873Y-16026960D02*
X8874825Y-16036484D01*
X8874825Y-16036484D02*
X8836730Y-16036484D01*
X8836730Y-16036484D02*
X8817682Y-16026960D01*
X8817682Y-16026960D02*
X8808158Y-16007912D01*
X8808158Y-16007912D02*
X8808158Y-15931722D01*
X8808158Y-15931722D02*
X8817682Y-15912674D01*
X8817682Y-15912674D02*
X8836730Y-15903150D01*
X8836730Y-15903150D02*
X8874825Y-15903150D01*
X8874825Y-15903150D02*
X8893873Y-15912674D01*
X8893873Y-15912674D02*
X8903396Y-15931722D01*
X8903396Y-15931722D02*
X8903396Y-15950769D01*
X8903396Y-15950769D02*
X8808158Y-15969817D01*
X9074825Y-16036484D02*
X9074825Y-15836484D01*
X9074825Y-16026960D02*
X9055777Y-16036484D01*
X9055777Y-16036484D02*
X9017682Y-16036484D01*
X9017682Y-16036484D02*
X8998635Y-16026960D01*
X8998635Y-16026960D02*
X8989111Y-16017436D01*
X8989111Y-16017436D02*
X8979587Y-15998388D01*
X8979587Y-15998388D02*
X8979587Y-15941246D01*
X8979587Y-15941246D02*
X8989111Y-15922198D01*
X8989111Y-15922198D02*
X8998635Y-15912674D01*
X8998635Y-15912674D02*
X9017682Y-15903150D01*
X9017682Y-15903150D02*
X9055777Y-15903150D01*
X9055777Y-15903150D02*
X9074825Y-15912674D01*
X9151016Y-16112674D02*
X9160539Y-16103150D01*
X9160539Y-16103150D02*
X9179587Y-16074579D01*
X9179587Y-16074579D02*
X9189111Y-16055531D01*
X9189111Y-16055531D02*
X9198635Y-16026960D01*
X9198635Y-16026960D02*
X9208158Y-15979341D01*
X9208158Y-15979341D02*
X9208158Y-15941246D01*
X9208158Y-15941246D02*
X9198635Y-15893627D01*
X9198635Y-15893627D02*
X9189111Y-15865055D01*
X9189111Y-15865055D02*
X9179587Y-15846008D01*
X9179587Y-15846008D02*
X9160539Y-15817436D01*
X9160539Y-15817436D02*
X9151016Y-15807912D01*
M02*
