%TF.GenerationSoftware,KiCad,Pcbnew,7.0.10*%
%TF.CreationDate,2024-05-11T12:39:23+02:00*%
%TF.ProjectId,Forte_PA_Deck,466f7274-655f-4504-915f-4465636b2e6b,1.0*%
%TF.SameCoordinates,Original*%
%TF.FileFunction,Drillmap*%
%TF.FilePolarity,Positive*%
%FSLAX45Y45*%
G04 Gerber Fmt 4.5, Leading zero omitted, Abs format (unit mm)*
G04 Created by KiCad (PCBNEW 7.0.10) date 2024-05-11 12:39:23*
%MOMM*%
%LPD*%
G01*
G04 APERTURE LIST*
%ADD10C,0.100000*%
%ADD11C,0.200000*%
%ADD12C,0.150000*%
%ADD13C,0.250000*%
%ADD14C,0.420000*%
G04 APERTURE END LIST*
D10*
X10279289Y-7999999D02*
G75*
G03*
X10379289Y-7900000I1J99999D01*
G01*
X2900000Y-3200000D02*
G75*
G03*
X2400000Y-3700000I0J-500000D01*
G01*
X8447860Y-13495000D02*
G75*
G03*
X8547855Y-13595000I100000J0D01*
G01*
X28000000Y-3700000D02*
G75*
G03*
X27500000Y-3200000I-500000J0D01*
G01*
X10379290Y-5700000D02*
G75*
G03*
X10279289Y-5600000I-100000J0D01*
G01*
X8547855Y-11195000D02*
X10277145Y-11195000D01*
X10279289Y-8000000D02*
X8550000Y-8000000D01*
X8450000Y-7900000D02*
X8450000Y-5700000D01*
X10377145Y-11295000D02*
X10377145Y-13495000D01*
X8550000Y-5600000D02*
G75*
G03*
X8450000Y-5700000I0J-100000D01*
G01*
X10379289Y-5700000D02*
X10379289Y-7900000D01*
X27500000Y-15300000D02*
X2900000Y-15300000D01*
X2400000Y-14800000D02*
X2400000Y-3700000D01*
X10277145Y-13595005D02*
G75*
G03*
X10377145Y-13495000I-5J100005D01*
G01*
X2900000Y-3200000D02*
X27500000Y-3200000D01*
X8450000Y-7900000D02*
G75*
G03*
X8550000Y-8000000I100000J0D01*
G01*
X8550000Y-5600000D02*
X10279289Y-5600000D01*
X10277145Y-13595000D02*
X8547855Y-13595000D01*
X8447855Y-13495000D02*
X8447855Y-11295000D01*
X28000000Y-3700000D02*
X28000000Y-14800000D01*
X8547855Y-11194995D02*
G75*
G03*
X8447855Y-11295000I5J-100005D01*
G01*
X10377150Y-11295000D02*
G75*
G03*
X10277145Y-11195000I-100000J0D01*
G01*
X27500000Y-15300000D02*
G75*
G03*
X28000000Y-14800000I0J500000D01*
G01*
X2400000Y-14800000D02*
G75*
G03*
X2900000Y-15300000I500000J0D01*
G01*
D11*
D10*
X2470000Y-4395000D02*
X2530000Y-4455000D01*
X2530000Y-4395000D02*
X2470000Y-4455000D01*
X2470000Y-4625000D02*
X2530000Y-4685000D01*
X2530000Y-4625000D02*
X2470000Y-4685000D01*
X2470000Y-4855000D02*
X2530000Y-4915000D01*
X2530000Y-4855000D02*
X2470000Y-4915000D01*
X2470000Y-5085000D02*
X2530000Y-5145000D01*
X2530000Y-5085000D02*
X2470000Y-5145000D01*
X2470000Y-5315000D02*
X2530000Y-5375000D01*
X2530000Y-5315000D02*
X2470000Y-5375000D01*
X2470000Y-5545000D02*
X2530000Y-5605000D01*
X2530000Y-5545000D02*
X2470000Y-5605000D01*
X2470000Y-5775000D02*
X2530000Y-5835000D01*
X2530000Y-5775000D02*
X2470000Y-5835000D01*
X2470000Y-6005000D02*
X2530000Y-6065000D01*
X2530000Y-6005000D02*
X2470000Y-6065000D01*
X2470000Y-6235000D02*
X2530000Y-6295000D01*
X2530000Y-6235000D02*
X2470000Y-6295000D01*
X2470000Y-6465000D02*
X2530000Y-6525000D01*
X2530000Y-6465000D02*
X2470000Y-6525000D01*
X2470000Y-6695000D02*
X2530000Y-6755000D01*
X2530000Y-6695000D02*
X2470000Y-6755000D01*
X2470000Y-6925000D02*
X2530000Y-6985000D01*
X2530000Y-6925000D02*
X2470000Y-6985000D01*
X2470000Y-7155000D02*
X2530000Y-7215000D01*
X2530000Y-7155000D02*
X2470000Y-7215000D01*
X2470000Y-7385000D02*
X2530000Y-7445000D01*
X2530000Y-7385000D02*
X2470000Y-7445000D01*
X2470000Y-7615000D02*
X2530000Y-7675000D01*
X2530000Y-7615000D02*
X2470000Y-7675000D01*
X2470000Y-7845000D02*
X2530000Y-7905000D01*
X2530000Y-7845000D02*
X2470000Y-7905000D01*
X2470000Y-8075000D02*
X2530000Y-8135000D01*
X2530000Y-8075000D02*
X2470000Y-8135000D01*
X2470000Y-8305000D02*
X2530000Y-8365000D01*
X2530000Y-8305000D02*
X2470000Y-8365000D01*
X2470000Y-8535000D02*
X2530000Y-8595000D01*
X2530000Y-8535000D02*
X2470000Y-8595000D01*
X2470000Y-8765000D02*
X2530000Y-8825000D01*
X2530000Y-8765000D02*
X2470000Y-8825000D01*
X2470000Y-8995000D02*
X2530000Y-9055000D01*
X2530000Y-8995000D02*
X2470000Y-9055000D01*
X2470000Y-9225000D02*
X2530000Y-9285000D01*
X2530000Y-9225000D02*
X2470000Y-9285000D01*
X2470000Y-9455000D02*
X2530000Y-9515000D01*
X2530000Y-9455000D02*
X2470000Y-9515000D01*
X2470000Y-9685000D02*
X2530000Y-9745000D01*
X2530000Y-9685000D02*
X2470000Y-9745000D01*
X2470000Y-9915000D02*
X2530000Y-9975000D01*
X2530000Y-9915000D02*
X2470000Y-9975000D01*
X2470000Y-10145000D02*
X2530000Y-10205000D01*
X2530000Y-10145000D02*
X2470000Y-10205000D01*
X2470000Y-10375000D02*
X2530000Y-10435000D01*
X2530000Y-10375000D02*
X2470000Y-10435000D01*
X2470000Y-10605000D02*
X2530000Y-10665000D01*
X2530000Y-10605000D02*
X2470000Y-10665000D01*
X2470000Y-10835000D02*
X2530000Y-10895000D01*
X2530000Y-10835000D02*
X2470000Y-10895000D01*
X2470000Y-11065000D02*
X2530000Y-11125000D01*
X2530000Y-11065000D02*
X2470000Y-11125000D01*
X2470000Y-11295000D02*
X2530000Y-11355000D01*
X2530000Y-11295000D02*
X2470000Y-11355000D01*
X2470000Y-11525000D02*
X2530000Y-11585000D01*
X2530000Y-11525000D02*
X2470000Y-11585000D01*
X2470000Y-11755000D02*
X2530000Y-11815000D01*
X2530000Y-11755000D02*
X2470000Y-11815000D01*
X2470000Y-11985000D02*
X2530000Y-12045000D01*
X2530000Y-11985000D02*
X2470000Y-12045000D01*
X2470000Y-12215000D02*
X2530000Y-12275000D01*
X2530000Y-12215000D02*
X2470000Y-12275000D01*
X2470000Y-12445000D02*
X2530000Y-12505000D01*
X2530000Y-12445000D02*
X2470000Y-12505000D01*
X2470000Y-12675000D02*
X2530000Y-12735000D01*
X2530000Y-12675000D02*
X2470000Y-12735000D01*
X2470000Y-12905000D02*
X2530000Y-12965000D01*
X2530000Y-12905000D02*
X2470000Y-12965000D01*
X2470000Y-13135000D02*
X2530000Y-13195000D01*
X2530000Y-13135000D02*
X2470000Y-13195000D01*
X2470000Y-13365000D02*
X2530000Y-13425000D01*
X2530000Y-13365000D02*
X2470000Y-13425000D01*
X2470000Y-13595000D02*
X2530000Y-13655000D01*
X2530000Y-13595000D02*
X2470000Y-13655000D01*
X2470000Y-13825000D02*
X2530000Y-13885000D01*
X2530000Y-13825000D02*
X2470000Y-13885000D01*
X2470000Y-14055000D02*
X2530000Y-14115000D01*
X2530000Y-14055000D02*
X2470000Y-14115000D01*
X2770000Y-8070000D02*
X2830000Y-8130000D01*
X2830000Y-8070000D02*
X2770000Y-8130000D01*
X2770000Y-8415000D02*
X2830000Y-8475000D01*
X2830000Y-8415000D02*
X2770000Y-8475000D01*
X2770000Y-8645000D02*
X2830000Y-8705000D01*
X2830000Y-8645000D02*
X2770000Y-8705000D01*
X2770000Y-8875000D02*
X2830000Y-8935000D01*
X2830000Y-8875000D02*
X2770000Y-8935000D01*
X2770000Y-9105000D02*
X2830000Y-9165000D01*
X2830000Y-9105000D02*
X2770000Y-9165000D01*
X2770000Y-9335000D02*
X2830000Y-9395000D01*
X2830000Y-9335000D02*
X2770000Y-9395000D01*
X2770000Y-9565000D02*
X2830000Y-9625000D01*
X2830000Y-9565000D02*
X2770000Y-9625000D01*
X2770000Y-9795000D02*
X2830000Y-9855000D01*
X2830000Y-9795000D02*
X2770000Y-9855000D01*
X2770000Y-10025000D02*
X2830000Y-10085000D01*
X2830000Y-10025000D02*
X2770000Y-10085000D01*
X2770000Y-10255000D02*
X2830000Y-10315000D01*
X2830000Y-10255000D02*
X2770000Y-10315000D01*
X2770000Y-10485000D02*
X2830000Y-10545000D01*
X2830000Y-10485000D02*
X2770000Y-10545000D01*
X2770000Y-10715000D02*
X2830000Y-10775000D01*
X2830000Y-10715000D02*
X2770000Y-10775000D01*
X2770000Y-10945000D02*
X2830000Y-11005000D01*
X2830000Y-10945000D02*
X2770000Y-11005000D01*
X2770000Y-11175000D02*
X2830000Y-11235000D01*
X2830000Y-11175000D02*
X2770000Y-11235000D01*
X2770000Y-11405000D02*
X2830000Y-11465000D01*
X2830000Y-11405000D02*
X2770000Y-11465000D01*
X2770000Y-11635000D02*
X2830000Y-11695000D01*
X2830000Y-11635000D02*
X2770000Y-11695000D01*
X2770000Y-11865000D02*
X2830000Y-11925000D01*
X2830000Y-11865000D02*
X2770000Y-11925000D01*
X2770000Y-12095000D02*
X2830000Y-12155000D01*
X2830000Y-12095000D02*
X2770000Y-12155000D01*
X2770000Y-12325000D02*
X2830000Y-12385000D01*
X2830000Y-12325000D02*
X2770000Y-12385000D01*
X2770000Y-12555000D02*
X2830000Y-12615000D01*
X2830000Y-12555000D02*
X2770000Y-12615000D01*
X2770000Y-12785000D02*
X2830000Y-12845000D01*
X2830000Y-12785000D02*
X2770000Y-12845000D01*
X2770000Y-13015000D02*
X2830000Y-13075000D01*
X2830000Y-13015000D02*
X2770000Y-13075000D01*
X2770000Y-13245000D02*
X2830000Y-13305000D01*
X2830000Y-13245000D02*
X2770000Y-13305000D01*
X2820000Y-14045000D02*
X2880000Y-14105000D01*
X2880000Y-14045000D02*
X2820000Y-14105000D01*
X2910000Y-7370000D02*
X2970000Y-7430000D01*
X2970000Y-7370000D02*
X2910000Y-7430000D01*
X2945000Y-7895000D02*
X3005000Y-7955000D01*
X3005000Y-7895000D02*
X2945000Y-7955000D01*
X3045000Y-5795000D02*
X3105000Y-5855000D01*
X3105000Y-5795000D02*
X3045000Y-5855000D01*
X3045000Y-13445000D02*
X3105000Y-13505000D01*
X3105000Y-13445000D02*
X3045000Y-13505000D01*
X3095000Y-5345000D02*
X3155000Y-5405000D01*
X3155000Y-5345000D02*
X3095000Y-5405000D01*
X3120000Y-7795000D02*
X3180000Y-7855000D01*
X3180000Y-7795000D02*
X3120000Y-7855000D01*
X3140000Y-8745000D02*
X3200000Y-8805000D01*
X3200000Y-8745000D02*
X3140000Y-8805000D01*
X3170000Y-14045000D02*
X3230000Y-14105000D01*
X3230000Y-14045000D02*
X3170000Y-14105000D01*
X3195000Y-5795000D02*
X3255000Y-5855000D01*
X3255000Y-5795000D02*
X3195000Y-5855000D01*
X3195000Y-6520000D02*
X3255000Y-6580000D01*
X3255000Y-6520000D02*
X3195000Y-6580000D01*
X3245000Y-5020000D02*
X3305000Y-5080000D01*
X3305000Y-5020000D02*
X3245000Y-5080000D01*
X3270000Y-13445000D02*
X3330000Y-13505000D01*
X3330000Y-13445000D02*
X3270000Y-13505000D01*
X3320000Y-6520000D02*
X3380000Y-6580000D01*
X3380000Y-6520000D02*
X3320000Y-6580000D01*
X3370000Y-8745000D02*
X3430000Y-8805000D01*
X3430000Y-8745000D02*
X3370000Y-8805000D01*
X3395000Y-3295000D02*
X3455000Y-3355000D01*
X3455000Y-3295000D02*
X3395000Y-3355000D01*
X3420000Y-7795000D02*
X3480000Y-7855000D01*
X3480000Y-7795000D02*
X3420000Y-7855000D01*
X3445000Y-6120000D02*
X3505000Y-6180000D01*
X3505000Y-6120000D02*
X3445000Y-6180000D01*
X3495000Y-13445000D02*
X3555000Y-13505000D01*
X3555000Y-13445000D02*
X3495000Y-13505000D01*
X3495000Y-14045000D02*
X3555000Y-14105000D01*
X3555000Y-14045000D02*
X3495000Y-14105000D01*
X3570000Y-11170000D02*
X3630000Y-11230000D01*
X3630000Y-11170000D02*
X3570000Y-11230000D01*
X3570000Y-11400000D02*
X3630000Y-11460000D01*
X3630000Y-11400000D02*
X3570000Y-11460000D01*
X3570000Y-11630000D02*
X3630000Y-11690000D01*
X3630000Y-11630000D02*
X3570000Y-11690000D01*
X3595000Y-6645000D02*
X3655000Y-6705000D01*
X3655000Y-6645000D02*
X3595000Y-6705000D01*
X3600000Y-8745000D02*
X3660000Y-8805000D01*
X3660000Y-8745000D02*
X3600000Y-8805000D01*
X3620000Y-6120000D02*
X3680000Y-6180000D01*
X3680000Y-6120000D02*
X3620000Y-6180000D01*
X3625000Y-3295000D02*
X3685000Y-3355000D01*
X3685000Y-3295000D02*
X3625000Y-3355000D01*
X3670000Y-5295000D02*
X3730000Y-5355000D01*
X3730000Y-5295000D02*
X3670000Y-5355000D01*
X3720000Y-7795000D02*
X3780000Y-7855000D01*
X3780000Y-7795000D02*
X3720000Y-7855000D01*
X3725000Y-15120000D02*
X3785000Y-15180000D01*
X3785000Y-15120000D02*
X3725000Y-15180000D01*
X3770000Y-13445000D02*
X3830000Y-13505000D01*
X3830000Y-13445000D02*
X3770000Y-13505000D01*
X3795000Y-13970000D02*
X3855000Y-14030000D01*
X3855000Y-13970000D02*
X3795000Y-14030000D01*
X3845000Y-6345000D02*
X3905000Y-6405000D01*
X3905000Y-6345000D02*
X3845000Y-6405000D01*
X3855000Y-3295000D02*
X3915000Y-3355000D01*
X3915000Y-3295000D02*
X3855000Y-3355000D01*
X3870000Y-7470000D02*
X3930000Y-7530000D01*
X3930000Y-7470000D02*
X3870000Y-7530000D01*
X3920000Y-13270000D02*
X3980000Y-13330000D01*
X3980000Y-13270000D02*
X3920000Y-13330000D01*
X3955000Y-15120000D02*
X4015000Y-15180000D01*
X4015000Y-15120000D02*
X3955000Y-15180000D01*
X3995000Y-6770000D02*
X4055000Y-6830000D01*
X4055000Y-6770000D02*
X3995000Y-6830000D01*
X4020000Y-7820000D02*
X4080000Y-7880000D01*
X4080000Y-7820000D02*
X4020000Y-7880000D01*
X4020000Y-8050000D02*
X4080000Y-8110000D01*
X4080000Y-8050000D02*
X4020000Y-8110000D01*
X4020000Y-8280000D02*
X4080000Y-8340000D01*
X4080000Y-8280000D02*
X4020000Y-8340000D01*
X4020000Y-8510000D02*
X4080000Y-8570000D01*
X4080000Y-8510000D02*
X4020000Y-8570000D01*
X4020000Y-8740000D02*
X4080000Y-8800000D01*
X4080000Y-8740000D02*
X4020000Y-8800000D01*
X4020000Y-8970000D02*
X4080000Y-9030000D01*
X4080000Y-8970000D02*
X4020000Y-9030000D01*
X4020000Y-9200000D02*
X4080000Y-9260000D01*
X4080000Y-9200000D02*
X4020000Y-9260000D01*
X4020000Y-9430000D02*
X4080000Y-9490000D01*
X4080000Y-9430000D02*
X4020000Y-9490000D01*
X4020000Y-9660000D02*
X4080000Y-9720000D01*
X4080000Y-9660000D02*
X4020000Y-9720000D01*
X4020000Y-9890000D02*
X4080000Y-9950000D01*
X4080000Y-9890000D02*
X4020000Y-9950000D01*
X4020000Y-10120000D02*
X4080000Y-10180000D01*
X4080000Y-10120000D02*
X4020000Y-10180000D01*
X4020000Y-10350000D02*
X4080000Y-10410000D01*
X4080000Y-10350000D02*
X4020000Y-10410000D01*
X4020000Y-10580000D02*
X4080000Y-10640000D01*
X4080000Y-10580000D02*
X4020000Y-10640000D01*
X4020000Y-10810000D02*
X4080000Y-10870000D01*
X4080000Y-10810000D02*
X4020000Y-10870000D01*
X4020000Y-11040000D02*
X4080000Y-11100000D01*
X4080000Y-11040000D02*
X4020000Y-11100000D01*
X4020000Y-11270000D02*
X4080000Y-11330000D01*
X4080000Y-11270000D02*
X4020000Y-11330000D01*
X4020000Y-11500000D02*
X4080000Y-11560000D01*
X4080000Y-11500000D02*
X4020000Y-11560000D01*
X4020000Y-11730000D02*
X4080000Y-11790000D01*
X4080000Y-11730000D02*
X4020000Y-11790000D01*
X4020000Y-11960000D02*
X4080000Y-12020000D01*
X4080000Y-11960000D02*
X4020000Y-12020000D01*
X4020000Y-12190000D02*
X4080000Y-12250000D01*
X4080000Y-12190000D02*
X4020000Y-12250000D01*
X4020000Y-12420000D02*
X4080000Y-12480000D01*
X4080000Y-12420000D02*
X4020000Y-12480000D01*
X4020000Y-12650000D02*
X4080000Y-12710000D01*
X4080000Y-12650000D02*
X4020000Y-12710000D01*
X4020000Y-12880000D02*
X4080000Y-12940000D01*
X4080000Y-12880000D02*
X4020000Y-12940000D01*
X4045000Y-13745000D02*
X4105000Y-13805000D01*
X4105000Y-13745000D02*
X4045000Y-13805000D01*
X4070000Y-6495000D02*
X4130000Y-6555000D01*
X4130000Y-6495000D02*
X4070000Y-6555000D01*
X4085000Y-3295000D02*
X4145000Y-3355000D01*
X4145000Y-3295000D02*
X4085000Y-3355000D01*
X4095000Y-5095000D02*
X4155000Y-5155000D01*
X4155000Y-5095000D02*
X4095000Y-5155000D01*
X4095000Y-5220000D02*
X4155000Y-5280000D01*
X4155000Y-5220000D02*
X4095000Y-5280000D01*
X4095000Y-7470000D02*
X4155000Y-7530000D01*
X4155000Y-7470000D02*
X4095000Y-7530000D01*
X4185000Y-15120000D02*
X4245000Y-15180000D01*
X4245000Y-15120000D02*
X4185000Y-15180000D01*
X4270000Y-6270000D02*
X4330000Y-6330000D01*
X4330000Y-6270000D02*
X4270000Y-6330000D01*
X4270000Y-12970000D02*
X4330000Y-13030000D01*
X4330000Y-12970000D02*
X4270000Y-13030000D01*
X4295000Y-5570000D02*
X4355000Y-5630000D01*
X4355000Y-5570000D02*
X4295000Y-5630000D01*
X4295000Y-5895000D02*
X4355000Y-5955000D01*
X4355000Y-5895000D02*
X4295000Y-5955000D01*
X4315000Y-3295000D02*
X4375000Y-3355000D01*
X4375000Y-3295000D02*
X4315000Y-3355000D01*
X4345000Y-3970000D02*
X4405000Y-4030000D01*
X4405000Y-3970000D02*
X4345000Y-4030000D01*
X4345000Y-4370000D02*
X4405000Y-4430000D01*
X4405000Y-4370000D02*
X4345000Y-4430000D01*
X4345000Y-4570000D02*
X4405000Y-4630000D01*
X4405000Y-4570000D02*
X4345000Y-4630000D01*
X4345000Y-7795000D02*
X4405000Y-7855000D01*
X4405000Y-7795000D02*
X4345000Y-7855000D01*
X4345000Y-13420000D02*
X4405000Y-13480000D01*
X4405000Y-13420000D02*
X4345000Y-13480000D01*
X4370000Y-7470000D02*
X4430000Y-7530000D01*
X4430000Y-7470000D02*
X4370000Y-7530000D01*
X4415000Y-15120000D02*
X4475000Y-15180000D01*
X4475000Y-15120000D02*
X4415000Y-15180000D01*
X4470000Y-5570000D02*
X4530000Y-5630000D01*
X4530000Y-5570000D02*
X4470000Y-5630000D01*
X4470000Y-6270000D02*
X4530000Y-6330000D01*
X4530000Y-6270000D02*
X4470000Y-6330000D01*
X4495000Y-5895000D02*
X4555000Y-5955000D01*
X4555000Y-5895000D02*
X4495000Y-5955000D01*
X4495000Y-12770000D02*
X4555000Y-12830000D01*
X4555000Y-12770000D02*
X4495000Y-12830000D01*
X4545000Y-3295000D02*
X4605000Y-3355000D01*
X4605000Y-3295000D02*
X4545000Y-3355000D01*
X4545000Y-7995000D02*
X4605000Y-8055000D01*
X4605000Y-7995000D02*
X4545000Y-8055000D01*
X4545000Y-8225000D02*
X4605000Y-8285000D01*
X4605000Y-8225000D02*
X4545000Y-8285000D01*
X4545000Y-8455000D02*
X4605000Y-8515000D01*
X4605000Y-8455000D02*
X4545000Y-8515000D01*
X4545000Y-8685000D02*
X4605000Y-8745000D01*
X4605000Y-8685000D02*
X4545000Y-8745000D01*
X4545000Y-8915000D02*
X4605000Y-8975000D01*
X4605000Y-8915000D02*
X4545000Y-8975000D01*
X4545000Y-9145000D02*
X4605000Y-9205000D01*
X4605000Y-9145000D02*
X4545000Y-9205000D01*
X4545000Y-9375000D02*
X4605000Y-9435000D01*
X4605000Y-9375000D02*
X4545000Y-9435000D01*
X4545000Y-9605000D02*
X4605000Y-9665000D01*
X4605000Y-9605000D02*
X4545000Y-9665000D01*
X4545000Y-9835000D02*
X4605000Y-9895000D01*
X4605000Y-9835000D02*
X4545000Y-9895000D01*
X4545000Y-10065000D02*
X4605000Y-10125000D01*
X4605000Y-10065000D02*
X4545000Y-10125000D01*
X4545000Y-10295000D02*
X4605000Y-10355000D01*
X4605000Y-10295000D02*
X4545000Y-10355000D01*
X4545000Y-10525000D02*
X4605000Y-10585000D01*
X4605000Y-10525000D02*
X4545000Y-10585000D01*
X4545000Y-10755000D02*
X4605000Y-10815000D01*
X4605000Y-10755000D02*
X4545000Y-10815000D01*
X4545000Y-10985000D02*
X4605000Y-11045000D01*
X4605000Y-10985000D02*
X4545000Y-11045000D01*
X4545000Y-11215000D02*
X4605000Y-11275000D01*
X4605000Y-11215000D02*
X4545000Y-11275000D01*
X4545000Y-11445000D02*
X4605000Y-11505000D01*
X4605000Y-11445000D02*
X4545000Y-11505000D01*
X4545000Y-11675000D02*
X4605000Y-11735000D01*
X4605000Y-11675000D02*
X4545000Y-11735000D01*
X4545000Y-11905000D02*
X4605000Y-11965000D01*
X4605000Y-11905000D02*
X4545000Y-11965000D01*
X4545000Y-12135000D02*
X4605000Y-12195000D01*
X4605000Y-12135000D02*
X4545000Y-12195000D01*
X4545000Y-12365000D02*
X4605000Y-12425000D01*
X4605000Y-12365000D02*
X4545000Y-12425000D01*
X4595000Y-7470000D02*
X4655000Y-7530000D01*
X4655000Y-7470000D02*
X4595000Y-7530000D01*
X4595000Y-13195000D02*
X4655000Y-13255000D01*
X4655000Y-13195000D02*
X4595000Y-13255000D01*
X4645000Y-15120000D02*
X4705000Y-15180000D01*
X4705000Y-15120000D02*
X4645000Y-15180000D01*
X4670000Y-7795000D02*
X4730000Y-7855000D01*
X4730000Y-7795000D02*
X4670000Y-7855000D01*
X4720000Y-12545000D02*
X4780000Y-12605000D01*
X4780000Y-12545000D02*
X4720000Y-12605000D01*
X4775000Y-3295000D02*
X4835000Y-3355000D01*
X4835000Y-3295000D02*
X4775000Y-3355000D01*
X4795000Y-7295000D02*
X4855000Y-7355000D01*
X4855000Y-7295000D02*
X4795000Y-7355000D01*
X4845000Y-12945000D02*
X4905000Y-13005000D01*
X4905000Y-12945000D02*
X4845000Y-13005000D01*
X4875000Y-15120000D02*
X4935000Y-15180000D01*
X4935000Y-15120000D02*
X4875000Y-15180000D01*
X4895000Y-6670000D02*
X4955000Y-6730000D01*
X4955000Y-6670000D02*
X4895000Y-6730000D01*
X4895000Y-6845000D02*
X4955000Y-6905000D01*
X4955000Y-6845000D02*
X4895000Y-6905000D01*
X4920000Y-12345000D02*
X4980000Y-12405000D01*
X4980000Y-12345000D02*
X4920000Y-12405000D01*
X4945000Y-4995000D02*
X5005000Y-5055000D01*
X5005000Y-4995000D02*
X4945000Y-5055000D01*
X4945000Y-7120000D02*
X5005000Y-7180000D01*
X5005000Y-7120000D02*
X4945000Y-7180000D01*
X4995000Y-7695000D02*
X5055000Y-7755000D01*
X5055000Y-7695000D02*
X4995000Y-7755000D01*
X4995000Y-7925000D02*
X5055000Y-7985000D01*
X5055000Y-7925000D02*
X4995000Y-7985000D01*
X4995000Y-8155000D02*
X5055000Y-8215000D01*
X5055000Y-8155000D02*
X4995000Y-8215000D01*
X4995000Y-8385000D02*
X5055000Y-8445000D01*
X5055000Y-8385000D02*
X4995000Y-8445000D01*
X4995000Y-8615000D02*
X5055000Y-8675000D01*
X5055000Y-8615000D02*
X4995000Y-8675000D01*
X4995000Y-8845000D02*
X5055000Y-8905000D01*
X5055000Y-8845000D02*
X4995000Y-8905000D01*
X4995000Y-9075000D02*
X5055000Y-9135000D01*
X5055000Y-9075000D02*
X4995000Y-9135000D01*
X4995000Y-9305000D02*
X5055000Y-9365000D01*
X5055000Y-9305000D02*
X4995000Y-9365000D01*
X4995000Y-9535000D02*
X5055000Y-9595000D01*
X5055000Y-9535000D02*
X4995000Y-9595000D01*
X4995000Y-9765000D02*
X5055000Y-9825000D01*
X5055000Y-9765000D02*
X4995000Y-9825000D01*
X4995000Y-9995000D02*
X5055000Y-10055000D01*
X5055000Y-9995000D02*
X4995000Y-10055000D01*
X4995000Y-10225000D02*
X5055000Y-10285000D01*
X5055000Y-10225000D02*
X4995000Y-10285000D01*
X4995000Y-10455000D02*
X5055000Y-10515000D01*
X5055000Y-10455000D02*
X4995000Y-10515000D01*
X4995000Y-10685000D02*
X5055000Y-10745000D01*
X5055000Y-10685000D02*
X4995000Y-10745000D01*
X4995000Y-10915000D02*
X5055000Y-10975000D01*
X5055000Y-10915000D02*
X4995000Y-10975000D01*
X4995000Y-11145000D02*
X5055000Y-11205000D01*
X5055000Y-11145000D02*
X4995000Y-11205000D01*
X4995000Y-11375000D02*
X5055000Y-11435000D01*
X5055000Y-11375000D02*
X4995000Y-11435000D01*
X4995000Y-11605000D02*
X5055000Y-11665000D01*
X5055000Y-11605000D02*
X4995000Y-11665000D01*
X4995000Y-11835000D02*
X5055000Y-11895000D01*
X5055000Y-11835000D02*
X4995000Y-11895000D01*
X5005000Y-3295000D02*
X5065000Y-3355000D01*
X5065000Y-3295000D02*
X5005000Y-3355000D01*
X5045000Y-6295000D02*
X5105000Y-6355000D01*
X5105000Y-6295000D02*
X5045000Y-6355000D01*
X5070000Y-7420000D02*
X5130000Y-7480000D01*
X5130000Y-7420000D02*
X5070000Y-7480000D01*
X5095000Y-12695000D02*
X5155000Y-12755000D01*
X5155000Y-12695000D02*
X5095000Y-12755000D01*
X5105000Y-15120000D02*
X5165000Y-15180000D01*
X5165000Y-15120000D02*
X5105000Y-15180000D01*
X5120000Y-3970000D02*
X5180000Y-4030000D01*
X5180000Y-3970000D02*
X5120000Y-4030000D01*
X5170000Y-12095000D02*
X5230000Y-12155000D01*
X5230000Y-12095000D02*
X5170000Y-12155000D01*
X5220000Y-4970000D02*
X5280000Y-5030000D01*
X5280000Y-4970000D02*
X5220000Y-5030000D01*
X5220000Y-6295000D02*
X5280000Y-6355000D01*
X5280000Y-6295000D02*
X5220000Y-6355000D01*
X5235000Y-3295000D02*
X5295000Y-3355000D01*
X5295000Y-3295000D02*
X5235000Y-3355000D01*
X5245000Y-7245000D02*
X5305000Y-7305000D01*
X5305000Y-7245000D02*
X5245000Y-7305000D01*
X5270000Y-4645000D02*
X5330000Y-4705000D01*
X5330000Y-4645000D02*
X5270000Y-4705000D01*
X5270000Y-5545000D02*
X5330000Y-5605000D01*
X5330000Y-5545000D02*
X5270000Y-5605000D01*
X5295000Y-4295000D02*
X5355000Y-4355000D01*
X5355000Y-4295000D02*
X5295000Y-4355000D01*
X5335000Y-15120000D02*
X5395000Y-15180000D01*
X5395000Y-15120000D02*
X5335000Y-15180000D01*
X5345000Y-12495000D02*
X5405000Y-12555000D01*
X5405000Y-12495000D02*
X5345000Y-12555000D01*
X5395000Y-5270000D02*
X5455000Y-5330000D01*
X5455000Y-5270000D02*
X5395000Y-5330000D01*
X5465000Y-3295000D02*
X5525000Y-3355000D01*
X5525000Y-3295000D02*
X5465000Y-3355000D01*
X5495000Y-4645000D02*
X5555000Y-4705000D01*
X5555000Y-4645000D02*
X5495000Y-4705000D01*
X5565000Y-15120000D02*
X5625000Y-15180000D01*
X5625000Y-15120000D02*
X5565000Y-15180000D01*
X5595000Y-12370000D02*
X5655000Y-12430000D01*
X5655000Y-12370000D02*
X5595000Y-12430000D01*
X5620000Y-4645000D02*
X5680000Y-4705000D01*
X5680000Y-4645000D02*
X5620000Y-4705000D01*
X5695000Y-3295000D02*
X5755000Y-3355000D01*
X5755000Y-3295000D02*
X5695000Y-3355000D01*
X5720000Y-12370000D02*
X5780000Y-12430000D01*
X5780000Y-12370000D02*
X5720000Y-12430000D01*
X5745000Y-7345000D02*
X5805000Y-7405000D01*
X5805000Y-7345000D02*
X5745000Y-7405000D01*
X5745000Y-7570000D02*
X5805000Y-7630000D01*
X5805000Y-7570000D02*
X5745000Y-7630000D01*
X5745000Y-9970000D02*
X5805000Y-10030000D01*
X5805000Y-9970000D02*
X5745000Y-10030000D01*
X5745000Y-11470000D02*
X5805000Y-11530000D01*
X5805000Y-11470000D02*
X5745000Y-11530000D01*
X5745000Y-11670000D02*
X5805000Y-11730000D01*
X5805000Y-11670000D02*
X5745000Y-11730000D01*
X5770000Y-9170000D02*
X5830000Y-9230000D01*
X5830000Y-9170000D02*
X5770000Y-9230000D01*
X5795000Y-15120000D02*
X5855000Y-15180000D01*
X5855000Y-15120000D02*
X5795000Y-15180000D01*
X5820000Y-4645000D02*
X5880000Y-4705000D01*
X5880000Y-4645000D02*
X5820000Y-4705000D01*
X5820000Y-14620000D02*
X5880000Y-14680000D01*
X5880000Y-14620000D02*
X5820000Y-14680000D01*
X5870000Y-4295000D02*
X5930000Y-4355000D01*
X5930000Y-4295000D02*
X5870000Y-4355000D01*
X5870000Y-6395000D02*
X5930000Y-6455000D01*
X5930000Y-6395000D02*
X5870000Y-6455000D01*
X5870000Y-6570000D02*
X5930000Y-6630000D01*
X5930000Y-6570000D02*
X5870000Y-6630000D01*
X5925000Y-3295000D02*
X5985000Y-3355000D01*
X5985000Y-3295000D02*
X5925000Y-3355000D01*
X5945000Y-3995000D02*
X6005000Y-4055000D01*
X6005000Y-3995000D02*
X5945000Y-4055000D01*
X5945000Y-4645000D02*
X6005000Y-4705000D01*
X6005000Y-4645000D02*
X5945000Y-4705000D01*
X6025000Y-15120000D02*
X6085000Y-15180000D01*
X6085000Y-15120000D02*
X6025000Y-15180000D01*
X6050000Y-14620000D02*
X6110000Y-14680000D01*
X6110000Y-14620000D02*
X6050000Y-14680000D01*
X6120000Y-4645000D02*
X6180000Y-4705000D01*
X6180000Y-4645000D02*
X6120000Y-4705000D01*
X6121500Y-6976000D02*
X6181500Y-7036000D01*
X6181500Y-6976000D02*
X6121500Y-7036000D01*
X6145000Y-3995000D02*
X6205000Y-4055000D01*
X6205000Y-3995000D02*
X6145000Y-4055000D01*
X6148500Y-12525000D02*
X6208500Y-12585000D01*
X6208500Y-12525000D02*
X6148500Y-12585000D01*
X6155000Y-3295000D02*
X6215000Y-3355000D01*
X6215000Y-3295000D02*
X6155000Y-3355000D01*
X6170000Y-5495000D02*
X6230000Y-5555000D01*
X6230000Y-5495000D02*
X6170000Y-5555000D01*
X6255000Y-15120000D02*
X6315000Y-15180000D01*
X6315000Y-15120000D02*
X6255000Y-15180000D01*
X6280000Y-14620000D02*
X6340000Y-14680000D01*
X6340000Y-14620000D02*
X6280000Y-14680000D01*
X6293130Y-8467479D02*
X6353130Y-8527479D01*
X6353130Y-8467479D02*
X6293130Y-8527479D01*
X6295000Y-7370000D02*
X6355000Y-7430000D01*
X6355000Y-7370000D02*
X6295000Y-7430000D01*
X6295000Y-7545000D02*
X6355000Y-7605000D01*
X6355000Y-7545000D02*
X6295000Y-7605000D01*
X6295000Y-11620000D02*
X6355000Y-11680000D01*
X6355000Y-11620000D02*
X6295000Y-11680000D01*
X6295000Y-11770000D02*
X6355000Y-11830000D01*
X6355000Y-11770000D02*
X6295000Y-11830000D01*
X6320000Y-5495000D02*
X6380000Y-5555000D01*
X6380000Y-5495000D02*
X6320000Y-5555000D01*
X6345000Y-9170000D02*
X6405000Y-9230000D01*
X6405000Y-9170000D02*
X6345000Y-9230000D01*
X6345000Y-9945000D02*
X6405000Y-10005000D01*
X6405000Y-9945000D02*
X6345000Y-10005000D01*
X6345000Y-10645000D02*
X6405000Y-10705000D01*
X6405000Y-10645000D02*
X6345000Y-10705000D01*
X6385000Y-3295000D02*
X6445000Y-3355000D01*
X6445000Y-3295000D02*
X6385000Y-3355000D01*
X6485000Y-15120000D02*
X6545000Y-15180000D01*
X6545000Y-15120000D02*
X6485000Y-15180000D01*
X6495000Y-5795000D02*
X6555000Y-5855000D01*
X6555000Y-5795000D02*
X6495000Y-5855000D01*
X6510000Y-14620000D02*
X6570000Y-14680000D01*
X6570000Y-14620000D02*
X6510000Y-14680000D01*
X6520000Y-6520000D02*
X6580000Y-6580000D01*
X6580000Y-6520000D02*
X6520000Y-6580000D01*
X6570000Y-4670000D02*
X6630000Y-4730000D01*
X6630000Y-4670000D02*
X6570000Y-4730000D01*
X6570000Y-4970000D02*
X6630000Y-5030000D01*
X6630000Y-4970000D02*
X6570000Y-5030000D01*
X6595000Y-10620000D02*
X6655000Y-10680000D01*
X6655000Y-10620000D02*
X6595000Y-10680000D01*
X6615000Y-3295000D02*
X6675000Y-3355000D01*
X6675000Y-3295000D02*
X6615000Y-3355000D01*
X6620000Y-8520000D02*
X6680000Y-8580000D01*
X6680000Y-8520000D02*
X6620000Y-8580000D01*
X6645000Y-7870000D02*
X6705000Y-7930000D01*
X6705000Y-7870000D02*
X6645000Y-7930000D01*
X6695000Y-3770000D02*
X6755000Y-3830000D01*
X6755000Y-3770000D02*
X6695000Y-3830000D01*
X6695000Y-6195000D02*
X6755000Y-6255000D01*
X6755000Y-6195000D02*
X6695000Y-6255000D01*
X6715000Y-15120000D02*
X6775000Y-15180000D01*
X6775000Y-15120000D02*
X6715000Y-15180000D01*
X6740000Y-14620000D02*
X6800000Y-14680000D01*
X6800000Y-14620000D02*
X6740000Y-14680000D01*
X6820000Y-10470000D02*
X6880000Y-10530000D01*
X6880000Y-10470000D02*
X6820000Y-10530000D01*
X6845000Y-3295000D02*
X6905000Y-3355000D01*
X6905000Y-3295000D02*
X6845000Y-3355000D01*
X6845000Y-8695000D02*
X6905000Y-8755000D01*
X6905000Y-8695000D02*
X6845000Y-8755000D01*
X6940000Y-5220000D02*
X7000000Y-5280000D01*
X7000000Y-5220000D02*
X6940000Y-5280000D01*
X6945000Y-4045000D02*
X7005000Y-4105000D01*
X7005000Y-4045000D02*
X6945000Y-4105000D01*
X6945000Y-15120000D02*
X7005000Y-15180000D01*
X7005000Y-15120000D02*
X6945000Y-15180000D01*
X6970000Y-14620000D02*
X7030000Y-14680000D01*
X7030000Y-14620000D02*
X6970000Y-14680000D01*
X6995000Y-6195000D02*
X7055000Y-6255000D01*
X7055000Y-6195000D02*
X6995000Y-6255000D01*
X7020000Y-7895000D02*
X7080000Y-7955000D01*
X7080000Y-7895000D02*
X7020000Y-7955000D01*
X7020000Y-8045000D02*
X7080000Y-8105000D01*
X7080000Y-8045000D02*
X7020000Y-8105000D01*
X7020000Y-11095000D02*
X7080000Y-11155000D01*
X7080000Y-11095000D02*
X7020000Y-11155000D01*
X7020000Y-11220000D02*
X7080000Y-11280000D01*
X7080000Y-11220000D02*
X7020000Y-11280000D01*
X7045000Y-6520000D02*
X7105000Y-6580000D01*
X7105000Y-6520000D02*
X7045000Y-6580000D01*
X7075000Y-3295000D02*
X7135000Y-3355000D01*
X7135000Y-3295000D02*
X7075000Y-3355000D01*
X7155000Y-8457500D02*
X7215000Y-8517500D01*
X7215000Y-8457500D02*
X7155000Y-8517500D01*
X7160000Y-10700000D02*
X7220000Y-10760000D01*
X7220000Y-10700000D02*
X7160000Y-10760000D01*
X7175000Y-15120000D02*
X7235000Y-15180000D01*
X7235000Y-15120000D02*
X7175000Y-15180000D01*
X7200000Y-14620000D02*
X7260000Y-14680000D01*
X7260000Y-14620000D02*
X7200000Y-14680000D01*
X7220000Y-12470000D02*
X7280000Y-12530000D01*
X7280000Y-12470000D02*
X7220000Y-12530000D01*
X7245000Y-11920000D02*
X7305000Y-11980000D01*
X7305000Y-11920000D02*
X7245000Y-11980000D01*
X7245000Y-12045000D02*
X7305000Y-12105000D01*
X7305000Y-12045000D02*
X7245000Y-12105000D01*
X7246660Y-4453100D02*
X7306660Y-4513100D01*
X7306660Y-4453100D02*
X7246660Y-4513100D01*
X7270000Y-3945000D02*
X7330000Y-4005000D01*
X7330000Y-3945000D02*
X7270000Y-4005000D01*
X7305000Y-3295000D02*
X7365000Y-3355000D01*
X7365000Y-3295000D02*
X7305000Y-3355000D01*
X7345000Y-5645000D02*
X7405000Y-5705000D01*
X7405000Y-5645000D02*
X7345000Y-5705000D01*
X7366660Y-4453100D02*
X7426660Y-4513100D01*
X7426660Y-4453100D02*
X7366660Y-4513100D01*
X7370000Y-4820000D02*
X7430000Y-4880000D01*
X7430000Y-4820000D02*
X7370000Y-4880000D01*
X7370000Y-5070000D02*
X7430000Y-5130000D01*
X7430000Y-5070000D02*
X7370000Y-5130000D01*
X7405000Y-15120000D02*
X7465000Y-15180000D01*
X7465000Y-15120000D02*
X7405000Y-15180000D01*
X7420000Y-7295000D02*
X7480000Y-7355000D01*
X7480000Y-7295000D02*
X7420000Y-7355000D01*
X7430000Y-14620000D02*
X7490000Y-14680000D01*
X7490000Y-14620000D02*
X7430000Y-14680000D01*
X7495000Y-12470000D02*
X7555000Y-12530000D01*
X7555000Y-12470000D02*
X7495000Y-12530000D01*
X7535000Y-3295000D02*
X7595000Y-3355000D01*
X7595000Y-3295000D02*
X7535000Y-3355000D01*
X7536660Y-4453100D02*
X7596660Y-4513100D01*
X7596660Y-4453100D02*
X7536660Y-4513100D01*
X7560000Y-8460000D02*
X7620000Y-8520000D01*
X7620000Y-8460000D02*
X7560000Y-8520000D01*
X7560000Y-10700000D02*
X7620000Y-10760000D01*
X7620000Y-10700000D02*
X7560000Y-10760000D01*
X7620000Y-5070000D02*
X7680000Y-5130000D01*
X7680000Y-5070000D02*
X7620000Y-5130000D01*
X7628100Y-3871440D02*
X7688100Y-3931440D01*
X7688100Y-3871440D02*
X7628100Y-3931440D01*
X7635000Y-15120000D02*
X7695000Y-15180000D01*
X7695000Y-15120000D02*
X7635000Y-15180000D01*
X7645000Y-3645000D02*
X7705000Y-3705000D01*
X7705000Y-3645000D02*
X7645000Y-3705000D01*
X7660000Y-14620000D02*
X7720000Y-14680000D01*
X7720000Y-14620000D02*
X7660000Y-14680000D01*
X7695000Y-12345000D02*
X7755000Y-12405000D01*
X7755000Y-12345000D02*
X7695000Y-12405000D01*
X7710000Y-11565000D02*
X7770000Y-11625000D01*
X7770000Y-11565000D02*
X7710000Y-11625000D01*
X7715000Y-7575000D02*
X7775000Y-7635000D01*
X7775000Y-7575000D02*
X7715000Y-7635000D01*
X7720780Y-4884900D02*
X7780780Y-4944900D01*
X7780780Y-4884900D02*
X7720780Y-4944900D01*
X7745000Y-6570000D02*
X7805000Y-6630000D01*
X7805000Y-6570000D02*
X7745000Y-6630000D01*
X7765000Y-3295000D02*
X7825000Y-3355000D01*
X7825000Y-3295000D02*
X7765000Y-3355000D01*
X7844000Y-3866360D02*
X7904000Y-3926360D01*
X7904000Y-3866360D02*
X7844000Y-3926360D01*
X7846540Y-3645000D02*
X7906540Y-3705000D01*
X7906540Y-3645000D02*
X7846540Y-3705000D01*
X7852860Y-5075400D02*
X7912860Y-5135400D01*
X7912860Y-5075400D02*
X7852860Y-5135400D01*
X7865000Y-15120000D02*
X7925000Y-15180000D01*
X7925000Y-15120000D02*
X7865000Y-15180000D01*
X7870000Y-5950000D02*
X7930000Y-6010000D01*
X7930000Y-5950000D02*
X7870000Y-6010000D01*
X7890000Y-14620000D02*
X7950000Y-14680000D01*
X7950000Y-14620000D02*
X7890000Y-14680000D01*
X7920000Y-12220000D02*
X7980000Y-12280000D01*
X7980000Y-12220000D02*
X7920000Y-12280000D01*
X7950780Y-4884900D02*
X8010780Y-4944900D01*
X8010780Y-4884900D02*
X7950780Y-4944900D01*
X7960000Y-10700000D02*
X8020000Y-10760000D01*
X8020000Y-10700000D02*
X7960000Y-10760000D01*
X7965000Y-8462500D02*
X8025000Y-8522500D01*
X8025000Y-8462500D02*
X7965000Y-8522500D01*
X7970000Y-11170000D02*
X8030000Y-11230000D01*
X8030000Y-11170000D02*
X7970000Y-11230000D01*
X7995000Y-3295000D02*
X8055000Y-3355000D01*
X8055000Y-3295000D02*
X7995000Y-3355000D01*
X8020000Y-6895000D02*
X8080000Y-6955000D01*
X8080000Y-6895000D02*
X8020000Y-6955000D01*
X8020000Y-7995000D02*
X8080000Y-8055000D01*
X8080000Y-7995000D02*
X8020000Y-8055000D01*
X8082860Y-5075400D02*
X8142860Y-5135400D01*
X8142860Y-5075400D02*
X8082860Y-5135400D01*
X8095000Y-15120000D02*
X8155000Y-15180000D01*
X8155000Y-15120000D02*
X8095000Y-15180000D01*
X8120000Y-9045000D02*
X8180000Y-9105000D01*
X8180000Y-9045000D02*
X8120000Y-9105000D01*
X8120000Y-10095000D02*
X8180000Y-10155000D01*
X8180000Y-10095000D02*
X8120000Y-10155000D01*
X8120000Y-14620000D02*
X8180000Y-14680000D01*
X8180000Y-14620000D02*
X8120000Y-14680000D01*
X8140099Y-5290000D02*
X8200099Y-5350000D01*
X8200099Y-5290000D02*
X8140099Y-5350000D01*
X8170000Y-11095000D02*
X8230000Y-11155000D01*
X8230000Y-11095000D02*
X8170000Y-11155000D01*
X8170000Y-11970000D02*
X8230000Y-12030000D01*
X8230000Y-11970000D02*
X8170000Y-12030000D01*
X8170000Y-12095000D02*
X8230000Y-12155000D01*
X8230000Y-12095000D02*
X8170000Y-12155000D01*
X8180780Y-4884900D02*
X8240780Y-4944900D01*
X8240780Y-4884900D02*
X8180780Y-4944900D01*
X8225000Y-3295000D02*
X8285000Y-3355000D01*
X8285000Y-3295000D02*
X8225000Y-3355000D01*
X8270000Y-8020000D02*
X8330000Y-8080000D01*
X8330000Y-8020000D02*
X8270000Y-8080000D01*
X8270000Y-8345000D02*
X8330000Y-8405000D01*
X8330000Y-8345000D02*
X8270000Y-8405000D01*
X8270000Y-8645000D02*
X8330000Y-8705000D01*
X8330000Y-8645000D02*
X8270000Y-8705000D01*
X8270000Y-10495000D02*
X8330000Y-10555000D01*
X8330000Y-10495000D02*
X8270000Y-10555000D01*
X8270000Y-10770000D02*
X8330000Y-10830000D01*
X8330000Y-10770000D02*
X8270000Y-10830000D01*
X8298660Y-4214340D02*
X8358660Y-4274340D01*
X8358660Y-4214340D02*
X8298660Y-4274340D01*
X8312860Y-5075400D02*
X8372860Y-5135400D01*
X8372860Y-5075400D02*
X8312860Y-5135400D01*
X8316440Y-3782540D02*
X8376440Y-3842540D01*
X8376440Y-3782540D02*
X8316440Y-3842540D01*
X8325000Y-15120000D02*
X8385000Y-15180000D01*
X8385000Y-15120000D02*
X8325000Y-15180000D01*
X8330000Y-5730000D02*
X8390000Y-5790000D01*
X8390000Y-5730000D02*
X8330000Y-5790000D01*
X8350000Y-14620000D02*
X8410000Y-14680000D01*
X8410000Y-14620000D02*
X8350000Y-14680000D01*
X8356560Y-4003520D02*
X8416560Y-4063520D01*
X8416560Y-4003520D02*
X8356560Y-4063520D01*
X8410780Y-4884900D02*
X8470780Y-4944900D01*
X8470780Y-4884900D02*
X8410780Y-4944900D01*
X8455000Y-3295000D02*
X8515000Y-3355000D01*
X8515000Y-3295000D02*
X8455000Y-3355000D01*
X8520000Y-5270000D02*
X8580000Y-5330000D01*
X8580000Y-5270000D02*
X8520000Y-5330000D01*
X8542860Y-5075400D02*
X8602860Y-5135400D01*
X8602860Y-5075400D02*
X8542860Y-5135400D01*
X8555000Y-15120000D02*
X8615000Y-15180000D01*
X8615000Y-15120000D02*
X8555000Y-15180000D01*
X8580000Y-14620000D02*
X8640000Y-14680000D01*
X8640000Y-14620000D02*
X8580000Y-14680000D01*
X8586560Y-4003520D02*
X8646560Y-4063520D01*
X8646560Y-4003520D02*
X8586560Y-4063520D01*
X8640780Y-4884900D02*
X8700780Y-4944900D01*
X8700780Y-4884900D02*
X8640780Y-4944900D01*
X8685000Y-3295000D02*
X8745000Y-3355000D01*
X8745000Y-3295000D02*
X8685000Y-3355000D01*
X8772860Y-5075400D02*
X8832860Y-5135400D01*
X8832860Y-5075400D02*
X8772860Y-5135400D01*
X8785000Y-15120000D02*
X8845000Y-15180000D01*
X8845000Y-15120000D02*
X8785000Y-15180000D01*
X8810000Y-14620000D02*
X8870000Y-14680000D01*
X8870000Y-14620000D02*
X8810000Y-14680000D01*
X8816560Y-4003520D02*
X8876560Y-4063520D01*
X8876560Y-4003520D02*
X8816560Y-4063520D01*
X8870780Y-4884900D02*
X8930780Y-4944900D01*
X8930780Y-4884900D02*
X8870780Y-4944900D01*
X8915000Y-3295000D02*
X8975000Y-3355000D01*
X8975000Y-3295000D02*
X8915000Y-3355000D01*
X8920000Y-5270000D02*
X8980000Y-5330000D01*
X8980000Y-5270000D02*
X8920000Y-5330000D01*
X9002860Y-5075400D02*
X9062860Y-5135400D01*
X9062860Y-5075400D02*
X9002860Y-5135400D01*
X9015000Y-15120000D02*
X9075000Y-15180000D01*
X9075000Y-15120000D02*
X9015000Y-15180000D01*
X9040000Y-14620000D02*
X9100000Y-14680000D01*
X9100000Y-14620000D02*
X9040000Y-14680000D01*
X9046560Y-4003520D02*
X9106560Y-4063520D01*
X9106560Y-4003520D02*
X9046560Y-4063520D01*
X9100780Y-4884900D02*
X9160780Y-4944900D01*
X9160780Y-4884900D02*
X9100780Y-4944900D01*
X9145000Y-3295000D02*
X9205000Y-3355000D01*
X9205000Y-3295000D02*
X9145000Y-3355000D01*
X9195000Y-11095000D02*
X9255000Y-11155000D01*
X9255000Y-11095000D02*
X9195000Y-11155000D01*
X9232860Y-5075400D02*
X9292860Y-5135400D01*
X9292860Y-5075400D02*
X9232860Y-5135400D01*
X9245000Y-15120000D02*
X9305000Y-15180000D01*
X9305000Y-15120000D02*
X9245000Y-15180000D01*
X9270000Y-14620000D02*
X9330000Y-14680000D01*
X9330000Y-14620000D02*
X9270000Y-14680000D01*
X9276560Y-4003520D02*
X9336560Y-4063520D01*
X9336560Y-4003520D02*
X9276560Y-4063520D01*
X9330780Y-4884900D02*
X9390780Y-4944900D01*
X9390780Y-4884900D02*
X9330780Y-4944900D01*
X9375000Y-3295000D02*
X9435000Y-3355000D01*
X9435000Y-3295000D02*
X9375000Y-3355000D01*
X9462860Y-5075400D02*
X9522860Y-5135400D01*
X9522860Y-5075400D02*
X9462860Y-5135400D01*
X9470000Y-11095000D02*
X9530000Y-11155000D01*
X9530000Y-11095000D02*
X9470000Y-11155000D01*
X9475000Y-15120000D02*
X9535000Y-15180000D01*
X9535000Y-15120000D02*
X9475000Y-15180000D01*
X9500000Y-14620000D02*
X9560000Y-14680000D01*
X9560000Y-14620000D02*
X9500000Y-14680000D01*
X9502620Y-4006060D02*
X9562620Y-4066060D01*
X9562620Y-4006060D02*
X9502620Y-4066060D01*
X9560780Y-4884900D02*
X9620780Y-4944900D01*
X9620780Y-4884900D02*
X9560780Y-4944900D01*
X9605000Y-3295000D02*
X9665000Y-3355000D01*
X9665000Y-3295000D02*
X9605000Y-3355000D01*
X9692860Y-5075400D02*
X9752860Y-5135400D01*
X9752860Y-5075400D02*
X9692860Y-5135400D01*
X9705000Y-15120000D02*
X9765000Y-15180000D01*
X9765000Y-15120000D02*
X9705000Y-15180000D01*
X9720000Y-5295000D02*
X9780000Y-5355000D01*
X9780000Y-5295000D02*
X9720000Y-5355000D01*
X9730000Y-14620000D02*
X9790000Y-14680000D01*
X9790000Y-14620000D02*
X9730000Y-14680000D01*
X9790780Y-4884900D02*
X9850780Y-4944900D01*
X9850780Y-4884900D02*
X9790780Y-4944900D01*
X9835000Y-3295000D02*
X9895000Y-3355000D01*
X9895000Y-3295000D02*
X9835000Y-3355000D01*
X9922860Y-5075400D02*
X9982860Y-5135400D01*
X9982860Y-5075400D02*
X9922860Y-5135400D01*
X9935000Y-15120000D02*
X9995000Y-15180000D01*
X9995000Y-15120000D02*
X9935000Y-15180000D01*
X9960000Y-14620000D02*
X10020000Y-14680000D01*
X10020000Y-14620000D02*
X9960000Y-14680000D01*
X10020780Y-4884900D02*
X10080780Y-4944900D01*
X10080780Y-4884900D02*
X10020780Y-4944900D01*
X10065000Y-3295000D02*
X10125000Y-3355000D01*
X10125000Y-3295000D02*
X10065000Y-3355000D01*
X10132540Y-4691860D02*
X10192540Y-4751860D01*
X10192540Y-4691860D02*
X10132540Y-4751860D01*
X10152860Y-5075400D02*
X10212860Y-5135400D01*
X10212860Y-5075400D02*
X10152860Y-5135400D01*
X10165000Y-15120000D02*
X10225000Y-15180000D01*
X10225000Y-15120000D02*
X10165000Y-15180000D01*
X10190000Y-14620000D02*
X10250000Y-14680000D01*
X10250000Y-14620000D02*
X10190000Y-14680000D01*
X10236680Y-4493740D02*
X10296680Y-4553740D01*
X10296680Y-4493740D02*
X10236680Y-4553740D01*
X10295000Y-3295000D02*
X10355000Y-3355000D01*
X10355000Y-3295000D02*
X10295000Y-3355000D01*
X10345900Y-4290540D02*
X10405900Y-4350540D01*
X10405900Y-4290540D02*
X10345900Y-4350540D01*
X10395000Y-15120000D02*
X10455000Y-15180000D01*
X10455000Y-15120000D02*
X10395000Y-15180000D01*
X10420000Y-14620000D02*
X10480000Y-14680000D01*
X10480000Y-14620000D02*
X10420000Y-14680000D01*
X10455120Y-4044160D02*
X10515120Y-4104160D01*
X10515120Y-4044160D02*
X10455120Y-4104160D01*
X10525000Y-3295000D02*
X10585000Y-3355000D01*
X10585000Y-3295000D02*
X10525000Y-3355000D01*
X10570000Y-3770000D02*
X10630000Y-3830000D01*
X10630000Y-3770000D02*
X10570000Y-3830000D01*
X10625000Y-15120000D02*
X10685000Y-15180000D01*
X10685000Y-15120000D02*
X10625000Y-15180000D01*
X10650000Y-14620000D02*
X10710000Y-14680000D01*
X10710000Y-14620000D02*
X10650000Y-14680000D01*
X10755000Y-3295000D02*
X10815000Y-3355000D01*
X10815000Y-3295000D02*
X10755000Y-3355000D01*
X10800000Y-3770000D02*
X10860000Y-3830000D01*
X10860000Y-3770000D02*
X10800000Y-3830000D01*
X10855000Y-15120000D02*
X10915000Y-15180000D01*
X10915000Y-15120000D02*
X10855000Y-15180000D01*
X10880000Y-14620000D02*
X10940000Y-14680000D01*
X10940000Y-14620000D02*
X10880000Y-14680000D01*
X10985000Y-3295000D02*
X11045000Y-3355000D01*
X11045000Y-3295000D02*
X10985000Y-3355000D01*
X11030000Y-3770000D02*
X11090000Y-3830000D01*
X11090000Y-3770000D02*
X11030000Y-3830000D01*
X11085000Y-15120000D02*
X11145000Y-15180000D01*
X11145000Y-15120000D02*
X11085000Y-15180000D01*
X11110000Y-14620000D02*
X11170000Y-14680000D01*
X11170000Y-14620000D02*
X11110000Y-14680000D01*
X11215000Y-3295000D02*
X11275000Y-3355000D01*
X11275000Y-3295000D02*
X11215000Y-3355000D01*
X11260000Y-3770000D02*
X11320000Y-3830000D01*
X11320000Y-3770000D02*
X11260000Y-3830000D01*
X11315000Y-15120000D02*
X11375000Y-15180000D01*
X11375000Y-15120000D02*
X11315000Y-15180000D01*
X11340000Y-14620000D02*
X11400000Y-14680000D01*
X11400000Y-14620000D02*
X11340000Y-14680000D01*
X11445000Y-3295000D02*
X11505000Y-3355000D01*
X11505000Y-3295000D02*
X11445000Y-3355000D01*
X11490000Y-3770000D02*
X11550000Y-3830000D01*
X11550000Y-3770000D02*
X11490000Y-3830000D01*
X11545000Y-15120000D02*
X11605000Y-15180000D01*
X11605000Y-15120000D02*
X11545000Y-15180000D01*
X11570000Y-14620000D02*
X11630000Y-14680000D01*
X11630000Y-14620000D02*
X11570000Y-14680000D01*
X11675000Y-3295000D02*
X11735000Y-3355000D01*
X11735000Y-3295000D02*
X11675000Y-3355000D01*
X11720000Y-3770000D02*
X11780000Y-3830000D01*
X11780000Y-3770000D02*
X11720000Y-3830000D01*
X11775000Y-15120000D02*
X11835000Y-15180000D01*
X11835000Y-15120000D02*
X11775000Y-15180000D01*
X11800000Y-14620000D02*
X11860000Y-14680000D01*
X11860000Y-14620000D02*
X11800000Y-14680000D01*
X11905000Y-3295000D02*
X11965000Y-3355000D01*
X11965000Y-3295000D02*
X11905000Y-3355000D01*
X11950000Y-3770000D02*
X12010000Y-3830000D01*
X12010000Y-3770000D02*
X11950000Y-3830000D01*
X12005000Y-15120000D02*
X12065000Y-15180000D01*
X12065000Y-15120000D02*
X12005000Y-15180000D01*
X12030000Y-14620000D02*
X12090000Y-14680000D01*
X12090000Y-14620000D02*
X12030000Y-14680000D01*
X12135000Y-3295000D02*
X12195000Y-3355000D01*
X12195000Y-3295000D02*
X12135000Y-3355000D01*
X12180000Y-3770000D02*
X12240000Y-3830000D01*
X12240000Y-3770000D02*
X12180000Y-3830000D01*
X12235000Y-15120000D02*
X12295000Y-15180000D01*
X12295000Y-15120000D02*
X12235000Y-15180000D01*
X12260000Y-14620000D02*
X12320000Y-14680000D01*
X12320000Y-14620000D02*
X12260000Y-14680000D01*
X12365000Y-3295000D02*
X12425000Y-3355000D01*
X12425000Y-3295000D02*
X12365000Y-3355000D01*
X12410000Y-3770000D02*
X12470000Y-3830000D01*
X12470000Y-3770000D02*
X12410000Y-3830000D01*
X12465000Y-15120000D02*
X12525000Y-15180000D01*
X12525000Y-15120000D02*
X12465000Y-15180000D01*
X12490000Y-14620000D02*
X12550000Y-14680000D01*
X12550000Y-14620000D02*
X12490000Y-14680000D01*
X12595000Y-3295000D02*
X12655000Y-3355000D01*
X12655000Y-3295000D02*
X12595000Y-3355000D01*
X12640000Y-3770000D02*
X12700000Y-3830000D01*
X12700000Y-3770000D02*
X12640000Y-3830000D01*
X12695000Y-15120000D02*
X12755000Y-15180000D01*
X12755000Y-15120000D02*
X12695000Y-15180000D01*
X12720000Y-14620000D02*
X12780000Y-14680000D01*
X12780000Y-14620000D02*
X12720000Y-14680000D01*
X12825000Y-3295000D02*
X12885000Y-3355000D01*
X12885000Y-3295000D02*
X12825000Y-3355000D01*
X12870000Y-3770000D02*
X12930000Y-3830000D01*
X12930000Y-3770000D02*
X12870000Y-3830000D01*
X12925000Y-15120000D02*
X12985000Y-15180000D01*
X12985000Y-15120000D02*
X12925000Y-15180000D01*
X12950000Y-14620000D02*
X13010000Y-14680000D01*
X13010000Y-14620000D02*
X12950000Y-14680000D01*
X13055000Y-3295000D02*
X13115000Y-3355000D01*
X13115000Y-3295000D02*
X13055000Y-3355000D01*
X13100000Y-3770000D02*
X13160000Y-3830000D01*
X13160000Y-3770000D02*
X13100000Y-3830000D01*
X13155000Y-15120000D02*
X13215000Y-15180000D01*
X13215000Y-15120000D02*
X13155000Y-15180000D01*
X13180000Y-14620000D02*
X13240000Y-14680000D01*
X13240000Y-14620000D02*
X13180000Y-14680000D01*
X13285000Y-3295000D02*
X13345000Y-3355000D01*
X13345000Y-3295000D02*
X13285000Y-3355000D01*
X13330000Y-3770000D02*
X13390000Y-3830000D01*
X13390000Y-3770000D02*
X13330000Y-3830000D01*
X13385000Y-15120000D02*
X13445000Y-15180000D01*
X13445000Y-15120000D02*
X13385000Y-15180000D01*
X13410000Y-14620000D02*
X13470000Y-14680000D01*
X13470000Y-14620000D02*
X13410000Y-14680000D01*
X13515000Y-3295000D02*
X13575000Y-3355000D01*
X13575000Y-3295000D02*
X13515000Y-3355000D01*
X13560000Y-3770000D02*
X13620000Y-3830000D01*
X13620000Y-3770000D02*
X13560000Y-3830000D01*
X13615000Y-15120000D02*
X13675000Y-15180000D01*
X13675000Y-15120000D02*
X13615000Y-15180000D01*
X13640000Y-14620000D02*
X13700000Y-14680000D01*
X13700000Y-14620000D02*
X13640000Y-14680000D01*
X13745000Y-3295000D02*
X13805000Y-3355000D01*
X13805000Y-3295000D02*
X13745000Y-3355000D01*
X13790000Y-3770000D02*
X13850000Y-3830000D01*
X13850000Y-3770000D02*
X13790000Y-3830000D01*
X13845000Y-15120000D02*
X13905000Y-15180000D01*
X13905000Y-15120000D02*
X13845000Y-15180000D01*
X13870000Y-14620000D02*
X13930000Y-14680000D01*
X13930000Y-14620000D02*
X13870000Y-14680000D01*
X13975000Y-3295000D02*
X14035000Y-3355000D01*
X14035000Y-3295000D02*
X13975000Y-3355000D01*
X14020000Y-3770000D02*
X14080000Y-3830000D01*
X14080000Y-3770000D02*
X14020000Y-3830000D01*
X14075000Y-15120000D02*
X14135000Y-15180000D01*
X14135000Y-15120000D02*
X14075000Y-15180000D01*
X14100000Y-14620000D02*
X14160000Y-14680000D01*
X14160000Y-14620000D02*
X14100000Y-14680000D01*
X14205000Y-3295000D02*
X14265000Y-3355000D01*
X14265000Y-3295000D02*
X14205000Y-3355000D01*
X14250000Y-3770000D02*
X14310000Y-3830000D01*
X14310000Y-3770000D02*
X14250000Y-3830000D01*
X14305000Y-15120000D02*
X14365000Y-15180000D01*
X14365000Y-15120000D02*
X14305000Y-15180000D01*
X14330000Y-14620000D02*
X14390000Y-14680000D01*
X14390000Y-14620000D02*
X14330000Y-14680000D01*
X14435000Y-3295000D02*
X14495000Y-3355000D01*
X14495000Y-3295000D02*
X14435000Y-3355000D01*
X14480000Y-3770000D02*
X14540000Y-3830000D01*
X14540000Y-3770000D02*
X14480000Y-3830000D01*
X14535000Y-15120000D02*
X14595000Y-15180000D01*
X14595000Y-15120000D02*
X14535000Y-15180000D01*
X14560000Y-14620000D02*
X14620000Y-14680000D01*
X14620000Y-14620000D02*
X14560000Y-14680000D01*
X14665000Y-3295000D02*
X14725000Y-3355000D01*
X14725000Y-3295000D02*
X14665000Y-3355000D01*
X14710000Y-3770000D02*
X14770000Y-3830000D01*
X14770000Y-3770000D02*
X14710000Y-3830000D01*
X14765000Y-15120000D02*
X14825000Y-15180000D01*
X14825000Y-15120000D02*
X14765000Y-15180000D01*
X14790000Y-14620000D02*
X14850000Y-14680000D01*
X14850000Y-14620000D02*
X14790000Y-14680000D01*
X14895000Y-3295000D02*
X14955000Y-3355000D01*
X14955000Y-3295000D02*
X14895000Y-3355000D01*
X14940000Y-3770000D02*
X15000000Y-3830000D01*
X15000000Y-3770000D02*
X14940000Y-3830000D01*
X14995000Y-15120000D02*
X15055000Y-15180000D01*
X15055000Y-15120000D02*
X14995000Y-15180000D01*
X15020000Y-14620000D02*
X15080000Y-14680000D01*
X15080000Y-14620000D02*
X15020000Y-14680000D01*
X15125000Y-3295000D02*
X15185000Y-3355000D01*
X15185000Y-3295000D02*
X15125000Y-3355000D01*
X15170000Y-3770000D02*
X15230000Y-3830000D01*
X15230000Y-3770000D02*
X15170000Y-3830000D01*
X15225000Y-15120000D02*
X15285000Y-15180000D01*
X15285000Y-15120000D02*
X15225000Y-15180000D01*
X15355000Y-3295000D02*
X15415000Y-3355000D01*
X15415000Y-3295000D02*
X15355000Y-3355000D01*
X15400000Y-3770000D02*
X15460000Y-3830000D01*
X15460000Y-3770000D02*
X15400000Y-3830000D01*
X15455000Y-15120000D02*
X15515000Y-15180000D01*
X15515000Y-15120000D02*
X15455000Y-15180000D01*
X15585000Y-3295000D02*
X15645000Y-3355000D01*
X15645000Y-3295000D02*
X15585000Y-3355000D01*
X15630000Y-3770000D02*
X15690000Y-3830000D01*
X15690000Y-3770000D02*
X15630000Y-3830000D01*
X15685000Y-15120000D02*
X15745000Y-15180000D01*
X15745000Y-15120000D02*
X15685000Y-15180000D01*
X15815000Y-3295000D02*
X15875000Y-3355000D01*
X15875000Y-3295000D02*
X15815000Y-3355000D01*
X15860000Y-3770000D02*
X15920000Y-3830000D01*
X15920000Y-3770000D02*
X15860000Y-3830000D01*
X15915000Y-15120000D02*
X15975000Y-15180000D01*
X15975000Y-15120000D02*
X15915000Y-15180000D01*
X16045000Y-3295000D02*
X16105000Y-3355000D01*
X16105000Y-3295000D02*
X16045000Y-3355000D01*
X16145000Y-15120000D02*
X16205000Y-15180000D01*
X16205000Y-15120000D02*
X16145000Y-15180000D01*
X16275000Y-3295000D02*
X16335000Y-3355000D01*
X16335000Y-3295000D02*
X16275000Y-3355000D01*
X16505000Y-3295000D02*
X16565000Y-3355000D01*
X16565000Y-3295000D02*
X16505000Y-3355000D01*
X16735000Y-3295000D02*
X16795000Y-3355000D01*
X16795000Y-3295000D02*
X16735000Y-3355000D01*
X16965000Y-3295000D02*
X17025000Y-3355000D01*
X17025000Y-3295000D02*
X16965000Y-3355000D01*
X17045000Y-15120000D02*
X17105000Y-15180000D01*
X17105000Y-15120000D02*
X17045000Y-15180000D01*
X17195000Y-3295000D02*
X17255000Y-3355000D01*
X17255000Y-3295000D02*
X17195000Y-3355000D01*
X17220000Y-3770000D02*
X17280000Y-3830000D01*
X17280000Y-3770000D02*
X17220000Y-3830000D01*
X17275000Y-15120000D02*
X17335000Y-15180000D01*
X17335000Y-15120000D02*
X17275000Y-15180000D01*
X17425000Y-3295000D02*
X17485000Y-3355000D01*
X17485000Y-3295000D02*
X17425000Y-3355000D01*
X17450000Y-3770000D02*
X17510000Y-3830000D01*
X17510000Y-3770000D02*
X17450000Y-3830000D01*
X17505000Y-15120000D02*
X17565000Y-15180000D01*
X17565000Y-15120000D02*
X17505000Y-15180000D01*
X17620000Y-14770000D02*
X17680000Y-14830000D01*
X17680000Y-14770000D02*
X17620000Y-14830000D01*
X17655000Y-3295000D02*
X17715000Y-3355000D01*
X17715000Y-3295000D02*
X17655000Y-3355000D01*
X17680000Y-3770000D02*
X17740000Y-3830000D01*
X17740000Y-3770000D02*
X17680000Y-3830000D01*
X17735000Y-15120000D02*
X17795000Y-15180000D01*
X17795000Y-15120000D02*
X17735000Y-15180000D01*
X17850000Y-14770000D02*
X17910000Y-14830000D01*
X17910000Y-14770000D02*
X17850000Y-14830000D01*
X17885000Y-3295000D02*
X17945000Y-3355000D01*
X17945000Y-3295000D02*
X17885000Y-3355000D01*
X17910000Y-3770000D02*
X17970000Y-3830000D01*
X17970000Y-3770000D02*
X17910000Y-3830000D01*
X17965000Y-15120000D02*
X18025000Y-15180000D01*
X18025000Y-15120000D02*
X17965000Y-15180000D01*
X18080000Y-14770000D02*
X18140000Y-14830000D01*
X18140000Y-14770000D02*
X18080000Y-14830000D01*
X18115000Y-3295000D02*
X18175000Y-3355000D01*
X18175000Y-3295000D02*
X18115000Y-3355000D01*
X18140000Y-3770000D02*
X18200000Y-3830000D01*
X18200000Y-3770000D02*
X18140000Y-3830000D01*
X18195000Y-15120000D02*
X18255000Y-15180000D01*
X18255000Y-15120000D02*
X18195000Y-15180000D01*
X18310000Y-14770000D02*
X18370000Y-14830000D01*
X18370000Y-14770000D02*
X18310000Y-14830000D01*
X18345000Y-3295000D02*
X18405000Y-3355000D01*
X18405000Y-3295000D02*
X18345000Y-3355000D01*
X18370000Y-3770000D02*
X18430000Y-3830000D01*
X18430000Y-3770000D02*
X18370000Y-3830000D01*
X18425000Y-15120000D02*
X18485000Y-15180000D01*
X18485000Y-15120000D02*
X18425000Y-15180000D01*
X18540000Y-14770000D02*
X18600000Y-14830000D01*
X18600000Y-14770000D02*
X18540000Y-14830000D01*
X18575000Y-3295000D02*
X18635000Y-3355000D01*
X18635000Y-3295000D02*
X18575000Y-3355000D01*
X18600000Y-3770000D02*
X18660000Y-3830000D01*
X18660000Y-3770000D02*
X18600000Y-3830000D01*
X18655000Y-15120000D02*
X18715000Y-15180000D01*
X18715000Y-15120000D02*
X18655000Y-15180000D01*
X18770000Y-14770000D02*
X18830000Y-14830000D01*
X18830000Y-14770000D02*
X18770000Y-14830000D01*
X18805000Y-3295000D02*
X18865000Y-3355000D01*
X18865000Y-3295000D02*
X18805000Y-3355000D01*
X18830000Y-3770000D02*
X18890000Y-3830000D01*
X18890000Y-3770000D02*
X18830000Y-3830000D01*
X18885000Y-15120000D02*
X18945000Y-15180000D01*
X18945000Y-15120000D02*
X18885000Y-15180000D01*
X19000000Y-14770000D02*
X19060000Y-14830000D01*
X19060000Y-14770000D02*
X19000000Y-14830000D01*
X19035000Y-3295000D02*
X19095000Y-3355000D01*
X19095000Y-3295000D02*
X19035000Y-3355000D01*
X19060000Y-3770000D02*
X19120000Y-3830000D01*
X19120000Y-3770000D02*
X19060000Y-3830000D01*
X19115000Y-15120000D02*
X19175000Y-15180000D01*
X19175000Y-15120000D02*
X19115000Y-15180000D01*
X19230000Y-14770000D02*
X19290000Y-14830000D01*
X19290000Y-14770000D02*
X19230000Y-14830000D01*
X19265000Y-3295000D02*
X19325000Y-3355000D01*
X19325000Y-3295000D02*
X19265000Y-3355000D01*
X19290000Y-3770000D02*
X19350000Y-3830000D01*
X19350000Y-3770000D02*
X19290000Y-3830000D01*
X19345000Y-15120000D02*
X19405000Y-15180000D01*
X19405000Y-15120000D02*
X19345000Y-15180000D01*
X19460000Y-14770000D02*
X19520000Y-14830000D01*
X19520000Y-14770000D02*
X19460000Y-14830000D01*
X19495000Y-3295000D02*
X19555000Y-3355000D01*
X19555000Y-3295000D02*
X19495000Y-3355000D01*
X19520000Y-3770000D02*
X19580000Y-3830000D01*
X19580000Y-3770000D02*
X19520000Y-3830000D01*
X19575000Y-15120000D02*
X19635000Y-15180000D01*
X19635000Y-15120000D02*
X19575000Y-15180000D01*
X19690000Y-14770000D02*
X19750000Y-14830000D01*
X19750000Y-14770000D02*
X19690000Y-14830000D01*
X19725000Y-3295000D02*
X19785000Y-3355000D01*
X19785000Y-3295000D02*
X19725000Y-3355000D01*
X19750000Y-3770000D02*
X19810000Y-3830000D01*
X19810000Y-3770000D02*
X19750000Y-3830000D01*
X19805000Y-15120000D02*
X19865000Y-15180000D01*
X19865000Y-15120000D02*
X19805000Y-15180000D01*
X19920000Y-14770000D02*
X19980000Y-14830000D01*
X19980000Y-14770000D02*
X19920000Y-14830000D01*
X19955000Y-3295000D02*
X20015000Y-3355000D01*
X20015000Y-3295000D02*
X19955000Y-3355000D01*
X19980000Y-3770000D02*
X20040000Y-3830000D01*
X20040000Y-3770000D02*
X19980000Y-3830000D01*
X20035000Y-15120000D02*
X20095000Y-15180000D01*
X20095000Y-15120000D02*
X20035000Y-15180000D01*
X20150000Y-14770000D02*
X20210000Y-14830000D01*
X20210000Y-14770000D02*
X20150000Y-14830000D01*
X20185000Y-3295000D02*
X20245000Y-3355000D01*
X20245000Y-3295000D02*
X20185000Y-3355000D01*
X20210000Y-3770000D02*
X20270000Y-3830000D01*
X20270000Y-3770000D02*
X20210000Y-3830000D01*
X20265000Y-15120000D02*
X20325000Y-15180000D01*
X20325000Y-15120000D02*
X20265000Y-15180000D01*
X20380000Y-14770000D02*
X20440000Y-14830000D01*
X20440000Y-14770000D02*
X20380000Y-14830000D01*
X20415000Y-3295000D02*
X20475000Y-3355000D01*
X20475000Y-3295000D02*
X20415000Y-3355000D01*
X20440000Y-3770000D02*
X20500000Y-3830000D01*
X20500000Y-3770000D02*
X20440000Y-3830000D01*
X20495000Y-15120000D02*
X20555000Y-15180000D01*
X20555000Y-15120000D02*
X20495000Y-15180000D01*
X20610000Y-14770000D02*
X20670000Y-14830000D01*
X20670000Y-14770000D02*
X20610000Y-14830000D01*
X20645000Y-3295000D02*
X20705000Y-3355000D01*
X20705000Y-3295000D02*
X20645000Y-3355000D01*
X20670000Y-3770000D02*
X20730000Y-3830000D01*
X20730000Y-3770000D02*
X20670000Y-3830000D01*
X20725000Y-15120000D02*
X20785000Y-15180000D01*
X20785000Y-15120000D02*
X20725000Y-15180000D01*
X20840000Y-14770000D02*
X20900000Y-14830000D01*
X20900000Y-14770000D02*
X20840000Y-14830000D01*
X20875000Y-3295000D02*
X20935000Y-3355000D01*
X20935000Y-3295000D02*
X20875000Y-3355000D01*
X20900000Y-3770000D02*
X20960000Y-3830000D01*
X20960000Y-3770000D02*
X20900000Y-3830000D01*
X20955000Y-15120000D02*
X21015000Y-15180000D01*
X21015000Y-15120000D02*
X20955000Y-15180000D01*
X21070000Y-14770000D02*
X21130000Y-14830000D01*
X21130000Y-14770000D02*
X21070000Y-14830000D01*
X21105000Y-3295000D02*
X21165000Y-3355000D01*
X21165000Y-3295000D02*
X21105000Y-3355000D01*
X21130000Y-3770000D02*
X21190000Y-3830000D01*
X21190000Y-3770000D02*
X21130000Y-3830000D01*
X21185000Y-15120000D02*
X21245000Y-15180000D01*
X21245000Y-15120000D02*
X21185000Y-15180000D01*
X21300000Y-14770000D02*
X21360000Y-14830000D01*
X21360000Y-14770000D02*
X21300000Y-14830000D01*
X21335000Y-3295000D02*
X21395000Y-3355000D01*
X21395000Y-3295000D02*
X21335000Y-3355000D01*
X21360000Y-3770000D02*
X21420000Y-3830000D01*
X21420000Y-3770000D02*
X21360000Y-3830000D01*
X21415000Y-15120000D02*
X21475000Y-15180000D01*
X21475000Y-15120000D02*
X21415000Y-15180000D01*
X21530000Y-14770000D02*
X21590000Y-14830000D01*
X21590000Y-14770000D02*
X21530000Y-14830000D01*
X21565000Y-3295000D02*
X21625000Y-3355000D01*
X21625000Y-3295000D02*
X21565000Y-3355000D01*
X21590000Y-3770000D02*
X21650000Y-3830000D01*
X21650000Y-3770000D02*
X21590000Y-3830000D01*
X21645000Y-15120000D02*
X21705000Y-15180000D01*
X21705000Y-15120000D02*
X21645000Y-15180000D01*
X21760000Y-14770000D02*
X21820000Y-14830000D01*
X21820000Y-14770000D02*
X21760000Y-14830000D01*
X21795000Y-3295000D02*
X21855000Y-3355000D01*
X21855000Y-3295000D02*
X21795000Y-3355000D01*
X21820000Y-3770000D02*
X21880000Y-3830000D01*
X21880000Y-3770000D02*
X21820000Y-3830000D01*
X21875000Y-15120000D02*
X21935000Y-15180000D01*
X21935000Y-15120000D02*
X21875000Y-15180000D01*
X21990000Y-14770000D02*
X22050000Y-14830000D01*
X22050000Y-14770000D02*
X21990000Y-14830000D01*
X22025000Y-3295000D02*
X22085000Y-3355000D01*
X22085000Y-3295000D02*
X22025000Y-3355000D01*
X22050000Y-3770000D02*
X22110000Y-3830000D01*
X22110000Y-3770000D02*
X22050000Y-3830000D01*
X22105000Y-15120000D02*
X22165000Y-15180000D01*
X22165000Y-15120000D02*
X22105000Y-15180000D01*
X22220000Y-14770000D02*
X22280000Y-14830000D01*
X22280000Y-14770000D02*
X22220000Y-14830000D01*
X22255000Y-3295000D02*
X22315000Y-3355000D01*
X22315000Y-3295000D02*
X22255000Y-3355000D01*
X22280000Y-3770000D02*
X22340000Y-3830000D01*
X22340000Y-3770000D02*
X22280000Y-3830000D01*
X22335000Y-15120000D02*
X22395000Y-15180000D01*
X22395000Y-15120000D02*
X22335000Y-15180000D01*
X22450000Y-14770000D02*
X22510000Y-14830000D01*
X22510000Y-14770000D02*
X22450000Y-14830000D01*
X22485000Y-3295000D02*
X22545000Y-3355000D01*
X22545000Y-3295000D02*
X22485000Y-3355000D01*
X22510000Y-3770000D02*
X22570000Y-3830000D01*
X22570000Y-3770000D02*
X22510000Y-3830000D01*
X22565000Y-15120000D02*
X22625000Y-15180000D01*
X22625000Y-15120000D02*
X22565000Y-15180000D01*
X22570000Y-3945000D02*
X22630000Y-4005000D01*
X22630000Y-3945000D02*
X22570000Y-4005000D01*
X22570000Y-4120000D02*
X22630000Y-4180000D01*
X22630000Y-4120000D02*
X22570000Y-4180000D01*
X22570000Y-4349950D02*
X22630000Y-4409950D01*
X22630000Y-4349950D02*
X22570000Y-4409950D01*
X22680000Y-14770000D02*
X22740000Y-14830000D01*
X22740000Y-14770000D02*
X22680000Y-14830000D01*
X22715000Y-3295000D02*
X22775000Y-3355000D01*
X22775000Y-3295000D02*
X22715000Y-3355000D01*
X22740000Y-3770000D02*
X22800000Y-3830000D01*
X22800000Y-3770000D02*
X22740000Y-3830000D01*
X22745000Y-5970000D02*
X22805000Y-6030000D01*
X22805000Y-5970000D02*
X22745000Y-6030000D01*
X22745000Y-6195000D02*
X22805000Y-6255000D01*
X22805000Y-6195000D02*
X22745000Y-6255000D01*
X22745000Y-6495000D02*
X22805000Y-6555000D01*
X22805000Y-6495000D02*
X22745000Y-6555000D01*
X22745000Y-6670000D02*
X22805000Y-6730000D01*
X22805000Y-6670000D02*
X22745000Y-6730000D01*
X22795000Y-15120000D02*
X22855000Y-15180000D01*
X22855000Y-15120000D02*
X22795000Y-15180000D01*
X22910000Y-14770000D02*
X22970000Y-14830000D01*
X22970000Y-14770000D02*
X22910000Y-14830000D01*
X22945000Y-3295000D02*
X23005000Y-3355000D01*
X23005000Y-3295000D02*
X22945000Y-3355000D01*
X22995000Y-4945000D02*
X23055000Y-5005000D01*
X23055000Y-4945000D02*
X22995000Y-5005000D01*
X22995000Y-5095000D02*
X23055000Y-5155000D01*
X23055000Y-5095000D02*
X22995000Y-5155000D01*
X22995000Y-5245000D02*
X23055000Y-5305000D01*
X23055000Y-5245000D02*
X22995000Y-5305000D01*
X23025000Y-15120000D02*
X23085000Y-15180000D01*
X23085000Y-15120000D02*
X23025000Y-15180000D01*
X23140000Y-14770000D02*
X23200000Y-14830000D01*
X23200000Y-14770000D02*
X23140000Y-14830000D01*
X23175000Y-3295000D02*
X23235000Y-3355000D01*
X23235000Y-3295000D02*
X23175000Y-3355000D01*
X23255000Y-15120000D02*
X23315000Y-15180000D01*
X23315000Y-15120000D02*
X23255000Y-15180000D01*
X23405000Y-3295000D02*
X23465000Y-3355000D01*
X23465000Y-3295000D02*
X23405000Y-3355000D01*
X23485000Y-15120000D02*
X23545000Y-15180000D01*
X23545000Y-15120000D02*
X23485000Y-15180000D01*
X23570000Y-3520000D02*
X23630000Y-3580000D01*
X23630000Y-3520000D02*
X23570000Y-3580000D01*
X23570000Y-3695000D02*
X23630000Y-3755000D01*
X23630000Y-3695000D02*
X23570000Y-3755000D01*
X23635000Y-3295000D02*
X23695000Y-3355000D01*
X23695000Y-3295000D02*
X23635000Y-3355000D01*
X23715000Y-15120000D02*
X23775000Y-15180000D01*
X23775000Y-15120000D02*
X23715000Y-15180000D01*
X23865000Y-3295000D02*
X23925000Y-3355000D01*
X23925000Y-3295000D02*
X23865000Y-3355000D01*
X23945000Y-15120000D02*
X24005000Y-15180000D01*
X24005000Y-15120000D02*
X23945000Y-15180000D01*
X24095000Y-3295000D02*
X24155000Y-3355000D01*
X24155000Y-3295000D02*
X24095000Y-3355000D01*
X24175000Y-15120000D02*
X24235000Y-15180000D01*
X24235000Y-15120000D02*
X24175000Y-15180000D01*
X24325000Y-3295000D02*
X24385000Y-3355000D01*
X24385000Y-3295000D02*
X24325000Y-3355000D01*
X24405000Y-15120000D02*
X24465000Y-15180000D01*
X24465000Y-15120000D02*
X24405000Y-15180000D01*
X24520000Y-3545000D02*
X24580000Y-3605000D01*
X24580000Y-3545000D02*
X24520000Y-3605000D01*
X24520000Y-3720000D02*
X24580000Y-3780000D01*
X24580000Y-3720000D02*
X24520000Y-3780000D01*
X24555000Y-3295000D02*
X24615000Y-3355000D01*
X24615000Y-3295000D02*
X24555000Y-3355000D01*
X24635000Y-15120000D02*
X24695000Y-15180000D01*
X24695000Y-15120000D02*
X24635000Y-15180000D01*
X24785000Y-3295000D02*
X24845000Y-3355000D01*
X24845000Y-3295000D02*
X24785000Y-3355000D01*
X24865000Y-15120000D02*
X24925000Y-15180000D01*
X24925000Y-15120000D02*
X24865000Y-15180000D01*
X25015000Y-3295000D02*
X25075000Y-3355000D01*
X25075000Y-3295000D02*
X25015000Y-3355000D01*
X25095000Y-15120000D02*
X25155000Y-15180000D01*
X25155000Y-15120000D02*
X25095000Y-15180000D01*
X25245000Y-3295000D02*
X25305000Y-3355000D01*
X25305000Y-3295000D02*
X25245000Y-3355000D01*
X25325000Y-15120000D02*
X25385000Y-15180000D01*
X25385000Y-15120000D02*
X25325000Y-15180000D01*
X25475000Y-3295000D02*
X25535000Y-3355000D01*
X25535000Y-3295000D02*
X25475000Y-3355000D01*
X25555000Y-15120000D02*
X25615000Y-15180000D01*
X25615000Y-15120000D02*
X25555000Y-15180000D01*
X25705000Y-3295000D02*
X25765000Y-3355000D01*
X25765000Y-3295000D02*
X25705000Y-3355000D01*
X25785000Y-15120000D02*
X25845000Y-15180000D01*
X25845000Y-15120000D02*
X25785000Y-15180000D01*
X25935000Y-3295000D02*
X25995000Y-3355000D01*
X25995000Y-3295000D02*
X25935000Y-3355000D01*
X26015000Y-15120000D02*
X26075000Y-15180000D01*
X26075000Y-15120000D02*
X26015000Y-15180000D01*
X26165000Y-3295000D02*
X26225000Y-3355000D01*
X26225000Y-3295000D02*
X26165000Y-3355000D01*
X26245000Y-15120000D02*
X26305000Y-15180000D01*
X26305000Y-15120000D02*
X26245000Y-15180000D01*
X26395000Y-3295000D02*
X26455000Y-3355000D01*
X26455000Y-3295000D02*
X26395000Y-3355000D01*
X26475000Y-15120000D02*
X26535000Y-15180000D01*
X26535000Y-15120000D02*
X26475000Y-15180000D01*
X27545000Y-4520000D02*
X27605000Y-4580000D01*
X27605000Y-4520000D02*
X27545000Y-4580000D01*
X27545000Y-4750000D02*
X27605000Y-4810000D01*
X27605000Y-4750000D02*
X27545000Y-4810000D01*
X27545000Y-4980000D02*
X27605000Y-5040000D01*
X27605000Y-4980000D02*
X27545000Y-5040000D01*
X27545000Y-5210000D02*
X27605000Y-5270000D01*
X27605000Y-5210000D02*
X27545000Y-5270000D01*
X27545000Y-5440000D02*
X27605000Y-5500000D01*
X27605000Y-5440000D02*
X27545000Y-5500000D01*
X27545000Y-5670000D02*
X27605000Y-5730000D01*
X27605000Y-5670000D02*
X27545000Y-5730000D01*
X27545000Y-5900000D02*
X27605000Y-5960000D01*
X27605000Y-5900000D02*
X27545000Y-5960000D01*
X27545000Y-6130000D02*
X27605000Y-6190000D01*
X27605000Y-6130000D02*
X27545000Y-6190000D01*
X27545000Y-6360000D02*
X27605000Y-6420000D01*
X27605000Y-6360000D02*
X27545000Y-6420000D01*
X27545000Y-6590000D02*
X27605000Y-6650000D01*
X27605000Y-6590000D02*
X27545000Y-6650000D01*
X27545000Y-6820000D02*
X27605000Y-6880000D01*
X27605000Y-6820000D02*
X27545000Y-6880000D01*
X27595000Y-9290000D02*
X27655000Y-9350000D01*
X27655000Y-9290000D02*
X27595000Y-9350000D01*
X27595000Y-9520000D02*
X27655000Y-9580000D01*
X27655000Y-9520000D02*
X27595000Y-9580000D01*
X27595000Y-9750000D02*
X27655000Y-9810000D01*
X27655000Y-9750000D02*
X27595000Y-9810000D01*
X27595000Y-9980000D02*
X27655000Y-10040000D01*
X27655000Y-9980000D02*
X27595000Y-10040000D01*
X27595000Y-10210000D02*
X27655000Y-10270000D01*
X27655000Y-10210000D02*
X27595000Y-10270000D01*
X27595000Y-10440000D02*
X27655000Y-10500000D01*
X27655000Y-10440000D02*
X27595000Y-10500000D01*
X27595000Y-10670000D02*
X27655000Y-10730000D01*
X27655000Y-10670000D02*
X27595000Y-10730000D01*
X27595000Y-10900000D02*
X27655000Y-10960000D01*
X27655000Y-10900000D02*
X27595000Y-10960000D01*
X27595000Y-11130000D02*
X27655000Y-11190000D01*
X27655000Y-11130000D02*
X27595000Y-11190000D01*
X27595000Y-11360000D02*
X27655000Y-11420000D01*
X27655000Y-11360000D02*
X27595000Y-11420000D01*
X27595000Y-11590000D02*
X27655000Y-11650000D01*
X27655000Y-11590000D02*
X27595000Y-11650000D01*
X27595000Y-11820000D02*
X27655000Y-11880000D01*
X27655000Y-11820000D02*
X27595000Y-11880000D01*
X27595000Y-12050000D02*
X27655000Y-12110000D01*
X27655000Y-12050000D02*
X27595000Y-12110000D01*
X27595000Y-12280000D02*
X27655000Y-12340000D01*
X27655000Y-12280000D02*
X27595000Y-12340000D01*
X27595000Y-12510000D02*
X27655000Y-12570000D01*
X27655000Y-12510000D02*
X27595000Y-12570000D01*
X27595000Y-12740000D02*
X27655000Y-12800000D01*
X27655000Y-12740000D02*
X27595000Y-12800000D01*
X27595000Y-12970000D02*
X27655000Y-13030000D01*
X27655000Y-12970000D02*
X27595000Y-13030000D01*
X27595000Y-13200000D02*
X27655000Y-13260000D01*
X27655000Y-13200000D02*
X27595000Y-13260000D01*
X27595000Y-13430000D02*
X27655000Y-13490000D01*
X27655000Y-13430000D02*
X27595000Y-13490000D01*
X27595000Y-13660000D02*
X27655000Y-13720000D01*
X27655000Y-13660000D02*
X27595000Y-13720000D01*
X27595000Y-13890000D02*
X27655000Y-13950000D01*
X27655000Y-13890000D02*
X27595000Y-13950000D01*
X27595000Y-14120000D02*
X27655000Y-14180000D01*
X27655000Y-14120000D02*
X27595000Y-14180000D01*
X27845000Y-3725000D02*
X27905000Y-3785000D01*
X27905000Y-3725000D02*
X27845000Y-3785000D01*
X27845000Y-3955000D02*
X27905000Y-4015000D01*
X27905000Y-3955000D02*
X27845000Y-4015000D01*
X27845000Y-4185000D02*
X27905000Y-4245000D01*
X27905000Y-4185000D02*
X27845000Y-4245000D01*
X27845000Y-4415000D02*
X27905000Y-4475000D01*
X27905000Y-4415000D02*
X27845000Y-4475000D01*
X27845000Y-4645000D02*
X27905000Y-4705000D01*
X27905000Y-4645000D02*
X27845000Y-4705000D01*
X27845000Y-4875000D02*
X27905000Y-4935000D01*
X27905000Y-4875000D02*
X27845000Y-4935000D01*
X27845000Y-5105000D02*
X27905000Y-5165000D01*
X27905000Y-5105000D02*
X27845000Y-5165000D01*
X27845000Y-5335000D02*
X27905000Y-5395000D01*
X27905000Y-5335000D02*
X27845000Y-5395000D01*
X27845000Y-5565000D02*
X27905000Y-5625000D01*
X27905000Y-5565000D02*
X27845000Y-5625000D01*
X27845000Y-5795000D02*
X27905000Y-5855000D01*
X27905000Y-5795000D02*
X27845000Y-5855000D01*
X27845000Y-6025000D02*
X27905000Y-6085000D01*
X27905000Y-6025000D02*
X27845000Y-6085000D01*
X27845000Y-6255000D02*
X27905000Y-6315000D01*
X27905000Y-6255000D02*
X27845000Y-6315000D01*
X27845000Y-6485000D02*
X27905000Y-6545000D01*
X27905000Y-6485000D02*
X27845000Y-6545000D01*
X27845000Y-6715000D02*
X27905000Y-6775000D01*
X27905000Y-6715000D02*
X27845000Y-6775000D01*
X27845000Y-6945000D02*
X27905000Y-7005000D01*
X27905000Y-6945000D02*
X27845000Y-7005000D01*
X27845000Y-9440000D02*
X27905000Y-9500000D01*
X27905000Y-9440000D02*
X27845000Y-9500000D01*
X27845000Y-9670000D02*
X27905000Y-9730000D01*
X27905000Y-9670000D02*
X27845000Y-9730000D01*
X27845000Y-9900000D02*
X27905000Y-9960000D01*
X27905000Y-9900000D02*
X27845000Y-9960000D01*
X27845000Y-10130000D02*
X27905000Y-10190000D01*
X27905000Y-10130000D02*
X27845000Y-10190000D01*
X27845000Y-10360000D02*
X27905000Y-10420000D01*
X27905000Y-10360000D02*
X27845000Y-10420000D01*
X27845000Y-10590000D02*
X27905000Y-10650000D01*
X27905000Y-10590000D02*
X27845000Y-10650000D01*
X27845000Y-10820000D02*
X27905000Y-10880000D01*
X27905000Y-10820000D02*
X27845000Y-10880000D01*
X27845000Y-11050000D02*
X27905000Y-11110000D01*
X27905000Y-11050000D02*
X27845000Y-11110000D01*
X27845000Y-11280000D02*
X27905000Y-11340000D01*
X27905000Y-11280000D02*
X27845000Y-11340000D01*
X27845000Y-11510000D02*
X27905000Y-11570000D01*
X27905000Y-11510000D02*
X27845000Y-11570000D01*
X27845000Y-11740000D02*
X27905000Y-11800000D01*
X27905000Y-11740000D02*
X27845000Y-11800000D01*
X27845000Y-11970000D02*
X27905000Y-12030000D01*
X27905000Y-11970000D02*
X27845000Y-12030000D01*
X27845000Y-12200000D02*
X27905000Y-12260000D01*
X27905000Y-12200000D02*
X27845000Y-12260000D01*
X27845000Y-12430000D02*
X27905000Y-12490000D01*
X27905000Y-12430000D02*
X27845000Y-12490000D01*
X27845000Y-12660000D02*
X27905000Y-12720000D01*
X27905000Y-12660000D02*
X27845000Y-12720000D01*
X27845000Y-12890000D02*
X27905000Y-12950000D01*
X27905000Y-12890000D02*
X27845000Y-12950000D01*
X27845000Y-13120000D02*
X27905000Y-13180000D01*
X27905000Y-13120000D02*
X27845000Y-13180000D01*
X27845000Y-13350000D02*
X27905000Y-13410000D01*
X27905000Y-13350000D02*
X27845000Y-13410000D01*
X27845000Y-13580000D02*
X27905000Y-13640000D01*
X27905000Y-13580000D02*
X27845000Y-13640000D01*
X27845000Y-13810000D02*
X27905000Y-13870000D01*
X27905000Y-13810000D02*
X27845000Y-13870000D01*
X27845000Y-14040000D02*
X27905000Y-14100000D01*
X27905000Y-14040000D02*
X27845000Y-14100000D01*
X27845000Y-14270000D02*
X27905000Y-14330000D01*
X27905000Y-14270000D02*
X27845000Y-14330000D01*
X8215000Y-11744000D02*
G75*
G03*
X8135000Y-11744000I-40000J0D01*
G01*
X8135000Y-11744000D02*
G75*
G03*
X8215000Y-11744000I40000J0D01*
G01*
X8220000Y-7456000D02*
G75*
G03*
X8140000Y-7456000I-40000J0D01*
G01*
X8140000Y-7456000D02*
G75*
G03*
X8220000Y-7456000I40000J0D01*
G01*
X9515000Y-5400000D02*
G75*
G03*
X9435000Y-5400000I-40000J0D01*
G01*
X9435000Y-5400000D02*
G75*
G03*
X9515000Y-5400000I40000J0D01*
G01*
X4875000Y-14125000D02*
X4875000Y-14225000D01*
X4825000Y-14175000D02*
X4925000Y-14175000D01*
X5233333Y-14125000D02*
X5233333Y-14225000D01*
X5183333Y-14175000D02*
X5283333Y-14175000D01*
X5591667Y-14125000D02*
X5591667Y-14225000D01*
X5541667Y-14175000D02*
X5641667Y-14175000D01*
X5900000Y-9525000D02*
X5900000Y-9625000D01*
X5850000Y-9575000D02*
X5950000Y-9575000D01*
X5950000Y-14125000D02*
X5950000Y-14225000D01*
X5900000Y-14175000D02*
X6000000Y-14175000D01*
X6308333Y-14125000D02*
X6308333Y-14225000D01*
X6258333Y-14175000D02*
X6358333Y-14175000D01*
X6325000Y-9525000D02*
X6325000Y-9625000D01*
X6275000Y-9575000D02*
X6375000Y-9575000D01*
X6666666Y-14125000D02*
X6666666Y-14225000D01*
X6616666Y-14175000D02*
X6716666Y-14175000D01*
X6860000Y-9530000D02*
X6860000Y-9630000D01*
X6810000Y-9580000D02*
X6910000Y-9580000D01*
X7025000Y-14125000D02*
X7025000Y-14225000D01*
X6975000Y-14175000D02*
X7075000Y-14175000D01*
X7300000Y-9525000D02*
X7300000Y-9625000D01*
X7250000Y-9575000D02*
X7350000Y-9575000D01*
X7383333Y-14125000D02*
X7383333Y-14225000D01*
X7333333Y-14175000D02*
X7433333Y-14175000D01*
X7600000Y-9525000D02*
X7600000Y-9625000D01*
X7550000Y-9575000D02*
X7650000Y-9575000D01*
X7741666Y-14125000D02*
X7741666Y-14225000D01*
X7691666Y-14175000D02*
X7791666Y-14175000D01*
X7900000Y-9525000D02*
X7900000Y-9625000D01*
X7850000Y-9575000D02*
X7950000Y-9575000D01*
X8100000Y-14125000D02*
X8100000Y-14225000D01*
X8050000Y-14175000D02*
X8150000Y-14175000D01*
X8175000Y-9525000D02*
X8175000Y-9625000D01*
X8125000Y-9575000D02*
X8225000Y-9575000D01*
X8200000Y-12375000D02*
X8200000Y-12475000D01*
X8150000Y-12425000D02*
X8250000Y-12425000D01*
X8200000Y-12725000D02*
X8200000Y-12825000D01*
X8150000Y-12775000D02*
X8250000Y-12775000D01*
X8200000Y-13125000D02*
X8200000Y-13225000D01*
X8150000Y-13175000D02*
X8250000Y-13175000D01*
X8200000Y-13500000D02*
X8200000Y-13600000D01*
X8150000Y-13550000D02*
X8250000Y-13550000D01*
X8260000Y-6170000D02*
X8260000Y-6270000D01*
X8210000Y-6220000D02*
X8310000Y-6220000D01*
X8260000Y-6450000D02*
X8260000Y-6550000D01*
X8210000Y-6500000D02*
X8310000Y-6500000D01*
X8260000Y-6750000D02*
X8260000Y-6850000D01*
X8210000Y-6800000D02*
X8310000Y-6800000D01*
X8260000Y-7070000D02*
X8260000Y-7170000D01*
X8210000Y-7120000D02*
X8310000Y-7120000D01*
X8458333Y-14125000D02*
X8458333Y-14225000D01*
X8408333Y-14175000D02*
X8508333Y-14175000D01*
X8475000Y-9400000D02*
X8475000Y-9500000D01*
X8425000Y-9450000D02*
X8525000Y-9450000D01*
X8475000Y-9650000D02*
X8475000Y-9750000D01*
X8425000Y-9700000D02*
X8525000Y-9700000D01*
X8490000Y-10900000D02*
X8490000Y-11000000D01*
X8440000Y-10950000D02*
X8540000Y-10950000D01*
X8500000Y-8110000D02*
X8500000Y-8210000D01*
X8450000Y-8160000D02*
X8550000Y-8160000D01*
X8800000Y-8930000D02*
X8800000Y-9030000D01*
X8750000Y-8980000D02*
X8850000Y-8980000D01*
X8800000Y-9400000D02*
X8800000Y-9500000D01*
X8750000Y-9450000D02*
X8850000Y-9450000D01*
X8800000Y-9650000D02*
X8800000Y-9750000D01*
X8750000Y-9700000D02*
X8850000Y-9700000D01*
X8800000Y-10080000D02*
X8800000Y-10180000D01*
X8750000Y-10130000D02*
X8850000Y-10130000D01*
X8816666Y-14125000D02*
X8816666Y-14225000D01*
X8766666Y-14175000D02*
X8866666Y-14175000D01*
X9100000Y-10260000D02*
X9100000Y-10360000D01*
X9050000Y-10310000D02*
X9150000Y-10310000D01*
X9120000Y-8800000D02*
X9120000Y-8900000D01*
X9070000Y-8850000D02*
X9170000Y-8850000D01*
X9150000Y-8100000D02*
X9150000Y-8200000D01*
X9100000Y-8150000D02*
X9200000Y-8150000D01*
X9150000Y-8400000D02*
X9150000Y-8500000D01*
X9100000Y-8450000D02*
X9200000Y-8450000D01*
X9150000Y-10600000D02*
X9150000Y-10700000D01*
X9100000Y-10650000D02*
X9200000Y-10650000D01*
X9150000Y-10825000D02*
X9150000Y-10925000D01*
X9100000Y-10875000D02*
X9200000Y-10875000D01*
X9175000Y-14125000D02*
X9175000Y-14225000D01*
X9125000Y-14175000D02*
X9225000Y-14175000D01*
X9533333Y-14125000D02*
X9533333Y-14225000D01*
X9483333Y-14175000D02*
X9583333Y-14175000D01*
X9550000Y-10250000D02*
X9550000Y-10350000D01*
X9500000Y-10300000D02*
X9600000Y-10300000D01*
X9600000Y-8800000D02*
X9600000Y-8900000D01*
X9550000Y-8850000D02*
X9650000Y-8850000D01*
X9891666Y-14125000D02*
X9891666Y-14225000D01*
X9841666Y-14175000D02*
X9941666Y-14175000D01*
X10130000Y-9230000D02*
X10130000Y-9330000D01*
X10080000Y-9280000D02*
X10180000Y-9280000D01*
X10130000Y-9540000D02*
X10130000Y-9640000D01*
X10080000Y-9590000D02*
X10180000Y-9590000D01*
X10250000Y-14125000D02*
X10250000Y-14225000D01*
X10200000Y-14175000D02*
X10300000Y-14175000D01*
X10390000Y-9370000D02*
X10390000Y-9470000D01*
X10340000Y-9420000D02*
X10440000Y-9420000D01*
X10575000Y-11525000D02*
X10575000Y-11625000D01*
X10525000Y-11575000D02*
X10625000Y-11575000D01*
X10575000Y-12025000D02*
X10575000Y-12125000D01*
X10525000Y-12075000D02*
X10625000Y-12075000D01*
X10575000Y-12550000D02*
X10575000Y-12650000D01*
X10525000Y-12600000D02*
X10625000Y-12600000D01*
X10575000Y-13025000D02*
X10575000Y-13125000D01*
X10525000Y-13075000D02*
X10625000Y-13075000D01*
X10575000Y-13500000D02*
X10575000Y-13600000D01*
X10525000Y-13550000D02*
X10625000Y-13550000D01*
X10650000Y-14125000D02*
X10650000Y-14225000D01*
X10600000Y-14175000D02*
X10700000Y-14175000D01*
X10675000Y-4950000D02*
X10675000Y-5050000D01*
X10625000Y-5000000D02*
X10725000Y-5000000D01*
X10715000Y-6285000D02*
X10715000Y-6385000D01*
X10665000Y-6335000D02*
X10765000Y-6335000D01*
X10715000Y-6685000D02*
X10715000Y-6785000D01*
X10665000Y-6735000D02*
X10765000Y-6735000D01*
X10715000Y-7135000D02*
X10715000Y-7235000D01*
X10665000Y-7185000D02*
X10765000Y-7185000D01*
X10715000Y-7510000D02*
X10715000Y-7610000D01*
X10665000Y-7560000D02*
X10765000Y-7560000D01*
X10740000Y-5410000D02*
X10740000Y-5510000D01*
X10690000Y-5460000D02*
X10790000Y-5460000D01*
X10740000Y-5835000D02*
X10740000Y-5935000D01*
X10690000Y-5885000D02*
X10790000Y-5885000D01*
X10933333Y-11525000D02*
X10933333Y-11625000D01*
X10883333Y-11575000D02*
X10983333Y-11575000D01*
X10933333Y-12550000D02*
X10933333Y-12650000D01*
X10883333Y-12600000D02*
X10983333Y-12600000D01*
X10933333Y-13500000D02*
X10933333Y-13600000D01*
X10883333Y-13550000D02*
X10983333Y-13550000D01*
X11008333Y-14125000D02*
X11008333Y-14225000D01*
X10958333Y-14175000D02*
X11058333Y-14175000D01*
X11033333Y-4950000D02*
X11033333Y-5050000D01*
X10983333Y-5000000D02*
X11083333Y-5000000D01*
X11291667Y-11525000D02*
X11291667Y-11625000D01*
X11241667Y-11575000D02*
X11341667Y-11575000D01*
X11291667Y-12550000D02*
X11291667Y-12650000D01*
X11241667Y-12600000D02*
X11341667Y-12600000D01*
X11291667Y-13500000D02*
X11291667Y-13600000D01*
X11241667Y-13550000D02*
X11341667Y-13550000D01*
X11366667Y-6675000D02*
X11366667Y-6775000D01*
X11316667Y-6725000D02*
X11416667Y-6725000D01*
X11366667Y-14125000D02*
X11366667Y-14225000D01*
X11316667Y-14175000D02*
X11416667Y-14175000D01*
X11391667Y-4950000D02*
X11391667Y-5050000D01*
X11341667Y-5000000D02*
X11441667Y-5000000D01*
X11391667Y-5825000D02*
X11391667Y-5925000D01*
X11341667Y-5875000D02*
X11441667Y-5875000D01*
X11650000Y-11525000D02*
X11650000Y-11625000D01*
X11600000Y-11575000D02*
X11700000Y-11575000D01*
X11650000Y-12550000D02*
X11650000Y-12650000D01*
X11600000Y-12600000D02*
X11700000Y-12600000D01*
X11650000Y-13500000D02*
X11650000Y-13600000D01*
X11600000Y-13550000D02*
X11700000Y-13550000D01*
X11725000Y-6675000D02*
X11725000Y-6775000D01*
X11675000Y-6725000D02*
X11775000Y-6725000D01*
X11725000Y-14125000D02*
X11725000Y-14225000D01*
X11675000Y-14175000D02*
X11775000Y-14175000D01*
X11750000Y-4950000D02*
X11750000Y-5050000D01*
X11700000Y-5000000D02*
X11800000Y-5000000D01*
X11750000Y-5825000D02*
X11750000Y-5925000D01*
X11700000Y-5875000D02*
X11800000Y-5875000D01*
X12008333Y-11525000D02*
X12008333Y-11625000D01*
X11958333Y-11575000D02*
X12058333Y-11575000D01*
X12008333Y-12550000D02*
X12008333Y-12650000D01*
X11958333Y-12600000D02*
X12058333Y-12600000D01*
X12008333Y-13500000D02*
X12008333Y-13600000D01*
X11958333Y-13550000D02*
X12058333Y-13550000D01*
X12083333Y-6675000D02*
X12083333Y-6775000D01*
X12033333Y-6725000D02*
X12133333Y-6725000D01*
X12083333Y-14125000D02*
X12083333Y-14225000D01*
X12033333Y-14175000D02*
X12133333Y-14175000D01*
X12108333Y-4950000D02*
X12108333Y-5050000D01*
X12058333Y-5000000D02*
X12158333Y-5000000D01*
X12108333Y-5825000D02*
X12108333Y-5925000D01*
X12058333Y-5875000D02*
X12158333Y-5875000D01*
X12366666Y-11525000D02*
X12366666Y-11625000D01*
X12316666Y-11575000D02*
X12416666Y-11575000D01*
X12366666Y-12550000D02*
X12366666Y-12650000D01*
X12316666Y-12600000D02*
X12416666Y-12600000D01*
X12366666Y-13500000D02*
X12366666Y-13600000D01*
X12316666Y-13550000D02*
X12416666Y-13550000D01*
X12441666Y-6675000D02*
X12441666Y-6775000D01*
X12391666Y-6725000D02*
X12491666Y-6725000D01*
X12441666Y-14125000D02*
X12441666Y-14225000D01*
X12391666Y-14175000D02*
X12491666Y-14175000D01*
X12466666Y-4950000D02*
X12466666Y-5050000D01*
X12416666Y-5000000D02*
X12516666Y-5000000D01*
X12466666Y-5825000D02*
X12466666Y-5925000D01*
X12416666Y-5875000D02*
X12516666Y-5875000D01*
X12725000Y-11525000D02*
X12725000Y-11625000D01*
X12675000Y-11575000D02*
X12775000Y-11575000D01*
X12725000Y-12550000D02*
X12725000Y-12650000D01*
X12675000Y-12600000D02*
X12775000Y-12600000D01*
X12725000Y-13500000D02*
X12725000Y-13600000D01*
X12675000Y-13550000D02*
X12775000Y-13550000D01*
X12800000Y-6675000D02*
X12800000Y-6775000D01*
X12750000Y-6725000D02*
X12850000Y-6725000D01*
X12800000Y-14125000D02*
X12800000Y-14225000D01*
X12750000Y-14175000D02*
X12850000Y-14175000D01*
X12825000Y-4950000D02*
X12825000Y-5050000D01*
X12775000Y-5000000D02*
X12875000Y-5000000D01*
X12825000Y-5825000D02*
X12825000Y-5925000D01*
X12775000Y-5875000D02*
X12875000Y-5875000D01*
X13083333Y-11525000D02*
X13083333Y-11625000D01*
X13033333Y-11575000D02*
X13133333Y-11575000D01*
X13083333Y-12550000D02*
X13083333Y-12650000D01*
X13033333Y-12600000D02*
X13133333Y-12600000D01*
X13083333Y-13500000D02*
X13083333Y-13600000D01*
X13033333Y-13550000D02*
X13133333Y-13550000D01*
X13158333Y-6675000D02*
X13158333Y-6775000D01*
X13108333Y-6725000D02*
X13208333Y-6725000D01*
X13158333Y-14125000D02*
X13158333Y-14225000D01*
X13108333Y-14175000D02*
X13208333Y-14175000D01*
X13183333Y-4950000D02*
X13183333Y-5050000D01*
X13133333Y-5000000D02*
X13233333Y-5000000D01*
X13183333Y-5825000D02*
X13183333Y-5925000D01*
X13133333Y-5875000D02*
X13233333Y-5875000D01*
X13441666Y-11525000D02*
X13441666Y-11625000D01*
X13391666Y-11575000D02*
X13491666Y-11575000D01*
X13441666Y-12550000D02*
X13441666Y-12650000D01*
X13391666Y-12600000D02*
X13491666Y-12600000D01*
X13441666Y-13500000D02*
X13441666Y-13600000D01*
X13391666Y-13550000D02*
X13491666Y-13550000D01*
X13516666Y-6675000D02*
X13516666Y-6775000D01*
X13466666Y-6725000D02*
X13566666Y-6725000D01*
X13516666Y-14125000D02*
X13516666Y-14225000D01*
X13466666Y-14175000D02*
X13566666Y-14175000D01*
X13541666Y-4950000D02*
X13541666Y-5050000D01*
X13491666Y-5000000D02*
X13591666Y-5000000D01*
X13541666Y-5825000D02*
X13541666Y-5925000D01*
X13491666Y-5875000D02*
X13591666Y-5875000D01*
X13800000Y-11525000D02*
X13800000Y-11625000D01*
X13750000Y-11575000D02*
X13850000Y-11575000D01*
X13800000Y-12550000D02*
X13800000Y-12650000D01*
X13750000Y-12600000D02*
X13850000Y-12600000D01*
X13800000Y-13500000D02*
X13800000Y-13600000D01*
X13750000Y-13550000D02*
X13850000Y-13550000D01*
X13875000Y-6675000D02*
X13875000Y-6775000D01*
X13825000Y-6725000D02*
X13925000Y-6725000D01*
X13875000Y-14125000D02*
X13875000Y-14225000D01*
X13825000Y-14175000D02*
X13925000Y-14175000D01*
X13900000Y-4950000D02*
X13900000Y-5050000D01*
X13850000Y-5000000D02*
X13950000Y-5000000D01*
X13900000Y-5825000D02*
X13900000Y-5925000D01*
X13850000Y-5875000D02*
X13950000Y-5875000D01*
X14158333Y-11525000D02*
X14158333Y-11625000D01*
X14108333Y-11575000D02*
X14208333Y-11575000D01*
X14158333Y-12550000D02*
X14158333Y-12650000D01*
X14108333Y-12600000D02*
X14208333Y-12600000D01*
X14158333Y-13500000D02*
X14158333Y-13600000D01*
X14108333Y-13550000D02*
X14208333Y-13550000D01*
X14233333Y-6675000D02*
X14233333Y-6775000D01*
X14183333Y-6725000D02*
X14283333Y-6725000D01*
X14233333Y-14125000D02*
X14233333Y-14225000D01*
X14183333Y-14175000D02*
X14283333Y-14175000D01*
X14258333Y-4950000D02*
X14258333Y-5050000D01*
X14208333Y-5000000D02*
X14308333Y-5000000D01*
X14258333Y-5825000D02*
X14258333Y-5925000D01*
X14208333Y-5875000D02*
X14308333Y-5875000D01*
X14516666Y-11525000D02*
X14516666Y-11625000D01*
X14466666Y-11575000D02*
X14566666Y-11575000D01*
X14516666Y-12550000D02*
X14516666Y-12650000D01*
X14466666Y-12600000D02*
X14566666Y-12600000D01*
X14516666Y-13500000D02*
X14516666Y-13600000D01*
X14466666Y-13550000D02*
X14566666Y-13550000D01*
X14591666Y-6675000D02*
X14591666Y-6775000D01*
X14541666Y-6725000D02*
X14641666Y-6725000D01*
X14591666Y-14125000D02*
X14591666Y-14225000D01*
X14541666Y-14175000D02*
X14641666Y-14175000D01*
X14616666Y-4950000D02*
X14616666Y-5050000D01*
X14566666Y-5000000D02*
X14666666Y-5000000D01*
X14616666Y-5825000D02*
X14616666Y-5925000D01*
X14566666Y-5875000D02*
X14666666Y-5875000D01*
X14875000Y-11525000D02*
X14875000Y-11625000D01*
X14825000Y-11575000D02*
X14925000Y-11575000D01*
X14875000Y-12550000D02*
X14875000Y-12650000D01*
X14825000Y-12600000D02*
X14925000Y-12600000D01*
X14875000Y-13500000D02*
X14875000Y-13600000D01*
X14825000Y-13550000D02*
X14925000Y-13550000D01*
X14950000Y-6675000D02*
X14950000Y-6775000D01*
X14900000Y-6725000D02*
X15000000Y-6725000D01*
X14950000Y-14125000D02*
X14950000Y-14225000D01*
X14900000Y-14175000D02*
X15000000Y-14175000D01*
X14975000Y-4950000D02*
X14975000Y-5050000D01*
X14925000Y-5000000D02*
X15025000Y-5000000D01*
X14975000Y-5825000D02*
X14975000Y-5925000D01*
X14925000Y-5875000D02*
X15025000Y-5875000D01*
X15233333Y-11525000D02*
X15233333Y-11625000D01*
X15183333Y-11575000D02*
X15283333Y-11575000D01*
X15233333Y-12550000D02*
X15233333Y-12650000D01*
X15183333Y-12600000D02*
X15283333Y-12600000D01*
X15233333Y-13500000D02*
X15233333Y-13600000D01*
X15183333Y-13550000D02*
X15283333Y-13550000D01*
X15308333Y-6675000D02*
X15308333Y-6775000D01*
X15258333Y-6725000D02*
X15358333Y-6725000D01*
X15308333Y-14125000D02*
X15308333Y-14225000D01*
X15258333Y-14175000D02*
X15358333Y-14175000D01*
X15333333Y-4950000D02*
X15333333Y-5050000D01*
X15283333Y-5000000D02*
X15383333Y-5000000D01*
X15333333Y-5825000D02*
X15333333Y-5925000D01*
X15283333Y-5875000D02*
X15383333Y-5875000D01*
X15591666Y-11525000D02*
X15591666Y-11625000D01*
X15541666Y-11575000D02*
X15641666Y-11575000D01*
X15591666Y-12550000D02*
X15591666Y-12650000D01*
X15541666Y-12600000D02*
X15641666Y-12600000D01*
X15591666Y-13500000D02*
X15591666Y-13600000D01*
X15541666Y-13550000D02*
X15641666Y-13550000D01*
X15666666Y-6675000D02*
X15666666Y-6775000D01*
X15616666Y-6725000D02*
X15716666Y-6725000D01*
X15666666Y-14125000D02*
X15666666Y-14225000D01*
X15616666Y-14175000D02*
X15716666Y-14175000D01*
X15691666Y-4950000D02*
X15691666Y-5050000D01*
X15641666Y-5000000D02*
X15741666Y-5000000D01*
X15691666Y-5825000D02*
X15691666Y-5925000D01*
X15641666Y-5875000D02*
X15741666Y-5875000D01*
X15950000Y-11525000D02*
X15950000Y-11625000D01*
X15900000Y-11575000D02*
X16000000Y-11575000D01*
X15950000Y-12550000D02*
X15950000Y-12650000D01*
X15900000Y-12600000D02*
X16000000Y-12600000D01*
X15950000Y-13500000D02*
X15950000Y-13600000D01*
X15900000Y-13550000D02*
X16000000Y-13550000D01*
X16025000Y-6675000D02*
X16025000Y-6775000D01*
X15975000Y-6725000D02*
X16075000Y-6725000D01*
X16025000Y-14125000D02*
X16025000Y-14225000D01*
X15975000Y-14175000D02*
X16075000Y-14175000D01*
X16050000Y-4950000D02*
X16050000Y-5050000D01*
X16000000Y-5000000D02*
X16100000Y-5000000D01*
X16050000Y-5825000D02*
X16050000Y-5925000D01*
X16000000Y-5875000D02*
X16100000Y-5875000D01*
X16210000Y-11170000D02*
X16210000Y-11270000D01*
X16160000Y-11220000D02*
X16260000Y-11220000D01*
X16450000Y-10880000D02*
X16450000Y-10980000D01*
X16400000Y-10930000D02*
X16500000Y-10930000D01*
X16690000Y-10590000D02*
X16690000Y-10690000D01*
X16640000Y-10640000D02*
X16740000Y-10640000D01*
X16900000Y-6175000D02*
X16900000Y-6275000D01*
X16850000Y-6225000D02*
X16950000Y-6225000D01*
X16925000Y-5250000D02*
X16925000Y-5350000D01*
X16875000Y-5300000D02*
X16975000Y-5300000D01*
X16960000Y-10350000D02*
X16960000Y-10450000D01*
X16910000Y-10400000D02*
X17010000Y-10400000D01*
X17258333Y-6175000D02*
X17258333Y-6275000D01*
X17208333Y-6225000D02*
X17308333Y-6225000D01*
X17283333Y-5250000D02*
X17283333Y-5350000D01*
X17233333Y-5300000D02*
X17333333Y-5300000D01*
X17300000Y-10275000D02*
X17300000Y-10375000D01*
X17250000Y-10325000D02*
X17350000Y-10325000D01*
X17616667Y-6175000D02*
X17616667Y-6275000D01*
X17566667Y-6225000D02*
X17666667Y-6225000D01*
X17641667Y-5250000D02*
X17641667Y-5350000D01*
X17591667Y-5300000D02*
X17691667Y-5300000D01*
X17658333Y-10275000D02*
X17658333Y-10375000D01*
X17608333Y-10325000D02*
X17708333Y-10325000D01*
X17975000Y-6175000D02*
X17975000Y-6275000D01*
X17925000Y-6225000D02*
X18025000Y-6225000D01*
X18000000Y-5250000D02*
X18000000Y-5350000D01*
X17950000Y-5300000D02*
X18050000Y-5300000D01*
X18016667Y-10275000D02*
X18016667Y-10375000D01*
X17966667Y-10325000D02*
X18066667Y-10325000D01*
X18333333Y-6175000D02*
X18333333Y-6275000D01*
X18283333Y-6225000D02*
X18383333Y-6225000D01*
X18358333Y-5250000D02*
X18358333Y-5350000D01*
X18308333Y-5300000D02*
X18408333Y-5300000D01*
X18375000Y-10275000D02*
X18375000Y-10375000D01*
X18325000Y-10325000D02*
X18425000Y-10325000D01*
X18675000Y-11250000D02*
X18675000Y-11350000D01*
X18625000Y-11300000D02*
X18725000Y-11300000D01*
X18691667Y-6175000D02*
X18691667Y-6275000D01*
X18641667Y-6225000D02*
X18741667Y-6225000D01*
X18716667Y-5250000D02*
X18716667Y-5350000D01*
X18666667Y-5300000D02*
X18766667Y-5300000D01*
X18733333Y-10275000D02*
X18733333Y-10375000D01*
X18683333Y-10325000D02*
X18783333Y-10325000D01*
X18775000Y-14075000D02*
X18775000Y-14175000D01*
X18725000Y-14125000D02*
X18825000Y-14125000D01*
X19033333Y-11250000D02*
X19033333Y-11350000D01*
X18983333Y-11300000D02*
X19083333Y-11300000D01*
X19050000Y-6175000D02*
X19050000Y-6275000D01*
X19000000Y-6225000D02*
X19100000Y-6225000D01*
X19075000Y-5250000D02*
X19075000Y-5350000D01*
X19025000Y-5300000D02*
X19125000Y-5300000D01*
X19091667Y-10275000D02*
X19091667Y-10375000D01*
X19041667Y-10325000D02*
X19141667Y-10325000D01*
X19133333Y-14075000D02*
X19133333Y-14175000D01*
X19083333Y-14125000D02*
X19183333Y-14125000D01*
X19391667Y-11250000D02*
X19391667Y-11350000D01*
X19341667Y-11300000D02*
X19441667Y-11300000D01*
X19408333Y-6175000D02*
X19408333Y-6275000D01*
X19358333Y-6225000D02*
X19458333Y-6225000D01*
X19433333Y-5250000D02*
X19433333Y-5350000D01*
X19383333Y-5300000D02*
X19483333Y-5300000D01*
X19450000Y-10275000D02*
X19450000Y-10375000D01*
X19400000Y-10325000D02*
X19500000Y-10325000D01*
X19480000Y-7290000D02*
X19480000Y-7390000D01*
X19430000Y-7340000D02*
X19530000Y-7340000D01*
X19480000Y-8250000D02*
X19480000Y-8350000D01*
X19430000Y-8300000D02*
X19530000Y-8300000D01*
X19491667Y-14075000D02*
X19491667Y-14175000D01*
X19441667Y-14125000D02*
X19541667Y-14125000D01*
X19750000Y-11250000D02*
X19750000Y-11350000D01*
X19700000Y-11300000D02*
X19800000Y-11300000D01*
X19766666Y-6175000D02*
X19766666Y-6275000D01*
X19716666Y-6225000D02*
X19816666Y-6225000D01*
X19791666Y-5250000D02*
X19791666Y-5350000D01*
X19741666Y-5300000D02*
X19841666Y-5300000D01*
X19808333Y-10275000D02*
X19808333Y-10375000D01*
X19758333Y-10325000D02*
X19858333Y-10325000D01*
X19838333Y-7290000D02*
X19838333Y-7390000D01*
X19788333Y-7340000D02*
X19888333Y-7340000D01*
X19838333Y-8250000D02*
X19838333Y-8350000D01*
X19788333Y-8300000D02*
X19888333Y-8300000D01*
X19850000Y-14075000D02*
X19850000Y-14175000D01*
X19800000Y-14125000D02*
X19900000Y-14125000D01*
X20108333Y-11250000D02*
X20108333Y-11350000D01*
X20058333Y-11300000D02*
X20158333Y-11300000D01*
X20125000Y-6175000D02*
X20125000Y-6275000D01*
X20075000Y-6225000D02*
X20175000Y-6225000D01*
X20150000Y-5250000D02*
X20150000Y-5350000D01*
X20100000Y-5300000D02*
X20200000Y-5300000D01*
X20166666Y-10275000D02*
X20166666Y-10375000D01*
X20116666Y-10325000D02*
X20216666Y-10325000D01*
X20196667Y-7290000D02*
X20196667Y-7390000D01*
X20146667Y-7340000D02*
X20246667Y-7340000D01*
X20196667Y-8250000D02*
X20196667Y-8350000D01*
X20146667Y-8300000D02*
X20246667Y-8300000D01*
X20208333Y-14075000D02*
X20208333Y-14175000D01*
X20158333Y-14125000D02*
X20258333Y-14125000D01*
X20466667Y-11250000D02*
X20466667Y-11350000D01*
X20416667Y-11300000D02*
X20516667Y-11300000D01*
X20483333Y-6175000D02*
X20483333Y-6275000D01*
X20433333Y-6225000D02*
X20533333Y-6225000D01*
X20508333Y-5250000D02*
X20508333Y-5350000D01*
X20458333Y-5300000D02*
X20558333Y-5300000D01*
X20525000Y-10275000D02*
X20525000Y-10375000D01*
X20475000Y-10325000D02*
X20575000Y-10325000D01*
X20555000Y-7290000D02*
X20555000Y-7390000D01*
X20505000Y-7340000D02*
X20605000Y-7340000D01*
X20555000Y-8250000D02*
X20555000Y-8350000D01*
X20505000Y-8300000D02*
X20605000Y-8300000D01*
X20566667Y-14075000D02*
X20566667Y-14175000D01*
X20516667Y-14125000D02*
X20616667Y-14125000D01*
X20825000Y-11250000D02*
X20825000Y-11350000D01*
X20775000Y-11300000D02*
X20875000Y-11300000D01*
X20841666Y-6175000D02*
X20841666Y-6275000D01*
X20791666Y-6225000D02*
X20891666Y-6225000D01*
X20866666Y-5250000D02*
X20866666Y-5350000D01*
X20816666Y-5300000D02*
X20916666Y-5300000D01*
X20883333Y-10275000D02*
X20883333Y-10375000D01*
X20833333Y-10325000D02*
X20933333Y-10325000D01*
X20925000Y-14075000D02*
X20925000Y-14175000D01*
X20875000Y-14125000D02*
X20975000Y-14125000D01*
X21183333Y-11250000D02*
X21183333Y-11350000D01*
X21133333Y-11300000D02*
X21233333Y-11300000D01*
X21200000Y-6175000D02*
X21200000Y-6275000D01*
X21150000Y-6225000D02*
X21250000Y-6225000D01*
X21225000Y-5250000D02*
X21225000Y-5350000D01*
X21175000Y-5300000D02*
X21275000Y-5300000D01*
X21241666Y-10275000D02*
X21241666Y-10375000D01*
X21191666Y-10325000D02*
X21291666Y-10325000D01*
X21283333Y-14075000D02*
X21283333Y-14175000D01*
X21233333Y-14125000D02*
X21333333Y-14125000D01*
X21425000Y-9775000D02*
X21425000Y-9875000D01*
X21375000Y-9825000D02*
X21475000Y-9825000D01*
X21541667Y-11250000D02*
X21541667Y-11350000D01*
X21491667Y-11300000D02*
X21591667Y-11300000D01*
X21558333Y-6175000D02*
X21558333Y-6275000D01*
X21508333Y-6225000D02*
X21608333Y-6225000D01*
X21583333Y-5250000D02*
X21583333Y-5350000D01*
X21533333Y-5300000D02*
X21633333Y-5300000D01*
X21600000Y-10275000D02*
X21600000Y-10375000D01*
X21550000Y-10325000D02*
X21650000Y-10325000D01*
X21641667Y-14075000D02*
X21641667Y-14175000D01*
X21591667Y-14125000D02*
X21691667Y-14125000D01*
X21783333Y-9775000D02*
X21783333Y-9875000D01*
X21733333Y-9825000D02*
X21833333Y-9825000D01*
X21916666Y-6175000D02*
X21916666Y-6275000D01*
X21866666Y-6225000D02*
X21966666Y-6225000D01*
X21941666Y-5250000D02*
X21941666Y-5350000D01*
X21891666Y-5300000D02*
X21991666Y-5300000D01*
X21958333Y-10275000D02*
X21958333Y-10375000D01*
X21908333Y-10325000D02*
X22008333Y-10325000D01*
X22141667Y-9775000D02*
X22141667Y-9875000D01*
X22091667Y-9825000D02*
X22191667Y-9825000D01*
X22275000Y-6175000D02*
X22275000Y-6275000D01*
X22225000Y-6225000D02*
X22325000Y-6225000D01*
X22300000Y-5250000D02*
X22300000Y-5350000D01*
X22250000Y-5300000D02*
X22350000Y-5300000D01*
X22316666Y-10275000D02*
X22316666Y-10375000D01*
X22266666Y-10325000D02*
X22366666Y-10325000D01*
X22500000Y-9775000D02*
X22500000Y-9875000D01*
X22450000Y-9825000D02*
X22550000Y-9825000D01*
X22675000Y-10275000D02*
X22675000Y-10375000D01*
X22625000Y-10325000D02*
X22725000Y-10325000D01*
X22783333Y-9025000D02*
X22783333Y-9125000D01*
X22733333Y-9075000D02*
X22833333Y-9075000D01*
X22858333Y-9775000D02*
X22858333Y-9875000D01*
X22808333Y-9825000D02*
X22908333Y-9825000D01*
X23141667Y-9025000D02*
X23141667Y-9125000D01*
X23091667Y-9075000D02*
X23191667Y-9075000D01*
X23216666Y-9775000D02*
X23216666Y-9875000D01*
X23166666Y-9825000D02*
X23266666Y-9825000D01*
X23500000Y-9025000D02*
X23500000Y-9125000D01*
X23450000Y-9075000D02*
X23550000Y-9075000D01*
X23575000Y-9775000D02*
X23575000Y-9875000D01*
X23525000Y-9825000D02*
X23625000Y-9825000D01*
X23858333Y-9025000D02*
X23858333Y-9125000D01*
X23808333Y-9075000D02*
X23908333Y-9075000D01*
X23930000Y-5555000D02*
X23930000Y-5655000D01*
X23880000Y-5605000D02*
X23980000Y-5605000D01*
X23931667Y-4935000D02*
X23931667Y-5035000D01*
X23881667Y-4985000D02*
X23981667Y-4985000D01*
X23933333Y-9775000D02*
X23933333Y-9875000D01*
X23883333Y-9825000D02*
X23983333Y-9825000D01*
X24216667Y-9025000D02*
X24216667Y-9125000D01*
X24166667Y-9075000D02*
X24266667Y-9075000D01*
X24288333Y-5555000D02*
X24288333Y-5655000D01*
X24238333Y-5605000D02*
X24338333Y-5605000D01*
X24290000Y-4935000D02*
X24290000Y-5035000D01*
X24240000Y-4985000D02*
X24340000Y-4985000D01*
X24291666Y-9775000D02*
X24291666Y-9875000D01*
X24241666Y-9825000D02*
X24341666Y-9825000D01*
X24345000Y-6945000D02*
X24345000Y-7045000D01*
X24295000Y-6995000D02*
X24395000Y-6995000D01*
X24345000Y-7303333D02*
X24345000Y-7403333D01*
X24295000Y-7353333D02*
X24395000Y-7353333D01*
X24575000Y-9025000D02*
X24575000Y-9125000D01*
X24525000Y-9075000D02*
X24625000Y-9075000D01*
X24650000Y-9775000D02*
X24650000Y-9875000D01*
X24600000Y-9825000D02*
X24700000Y-9825000D01*
X24840000Y-14510000D02*
X24840000Y-14610000D01*
X24790000Y-14560000D02*
X24890000Y-14560000D01*
X24933333Y-9025000D02*
X24933333Y-9125000D01*
X24883333Y-9075000D02*
X24983333Y-9075000D01*
X25008333Y-9775000D02*
X25008333Y-9875000D01*
X24958333Y-9825000D02*
X25058333Y-9825000D01*
X25198333Y-14510000D02*
X25198333Y-14610000D01*
X25148333Y-14560000D02*
X25248333Y-14560000D01*
X25291667Y-9025000D02*
X25291667Y-9125000D01*
X25241667Y-9075000D02*
X25341667Y-9075000D01*
X25366666Y-9775000D02*
X25366666Y-9875000D01*
X25316666Y-9825000D02*
X25416666Y-9825000D01*
X25556667Y-14510000D02*
X25556667Y-14610000D01*
X25506667Y-14560000D02*
X25606667Y-14560000D01*
X25650000Y-9025000D02*
X25650000Y-9125000D01*
X25600000Y-9075000D02*
X25700000Y-9075000D01*
X25700000Y-13300000D02*
X25700000Y-13400000D01*
X25650000Y-13350000D02*
X25750000Y-13350000D01*
X25720000Y-7395000D02*
X25720000Y-7495000D01*
X25670000Y-7445000D02*
X25770000Y-7445000D01*
X25720000Y-7753333D02*
X25720000Y-7853333D01*
X25670000Y-7803333D02*
X25770000Y-7803333D01*
X25720000Y-8111667D02*
X25720000Y-8211667D01*
X25670000Y-8161667D02*
X25770000Y-8161667D01*
X25720000Y-8470000D02*
X25720000Y-8570000D01*
X25670000Y-8520000D02*
X25770000Y-8520000D01*
X25725000Y-9775000D02*
X25725000Y-9875000D01*
X25675000Y-9825000D02*
X25775000Y-9825000D01*
X25900000Y-3883333D02*
X25900000Y-3983333D01*
X25850000Y-3933333D02*
X25950000Y-3933333D01*
X25900000Y-4241667D02*
X25900000Y-4341667D01*
X25850000Y-4291667D02*
X25950000Y-4291667D01*
X25900000Y-4600000D02*
X25900000Y-4700000D01*
X25850000Y-4650000D02*
X25950000Y-4650000D01*
X25900000Y-4958334D02*
X25900000Y-5058334D01*
X25850000Y-5008334D02*
X25950000Y-5008334D01*
X25900000Y-5316667D02*
X25900000Y-5416667D01*
X25850000Y-5366667D02*
X25950000Y-5366667D01*
X25900000Y-5675000D02*
X25900000Y-5775000D01*
X25850000Y-5725000D02*
X25950000Y-5725000D01*
X25900000Y-6033333D02*
X25900000Y-6133333D01*
X25850000Y-6083333D02*
X25950000Y-6083333D01*
X25900000Y-6391667D02*
X25900000Y-6491667D01*
X25850000Y-6441667D02*
X25950000Y-6441667D01*
X25900000Y-6750000D02*
X25900000Y-6850000D01*
X25850000Y-6800000D02*
X25950000Y-6800000D01*
X25915000Y-14510000D02*
X25915000Y-14610000D01*
X25865000Y-14560000D02*
X25965000Y-14560000D01*
X26058333Y-13300000D02*
X26058333Y-13400000D01*
X26008333Y-13350000D02*
X26108333Y-13350000D01*
X26083333Y-9775000D02*
X26083333Y-9875000D01*
X26033333Y-9825000D02*
X26133333Y-9825000D01*
X26416667Y-13300000D02*
X26416667Y-13400000D01*
X26366667Y-13350000D02*
X26466667Y-13350000D01*
X26441666Y-9775000D02*
X26441666Y-9875000D01*
X26391666Y-9825000D02*
X26491666Y-9825000D01*
X26775000Y-13300000D02*
X26775000Y-13400000D01*
X26725000Y-13350000D02*
X26825000Y-13350000D01*
X26800000Y-5090000D02*
X26800000Y-5190000D01*
X26750000Y-5140000D02*
X26850000Y-5140000D01*
X26800000Y-5448333D02*
X26800000Y-5548333D01*
X26750000Y-5498333D02*
X26850000Y-5498333D01*
X26800000Y-5806667D02*
X26800000Y-5906667D01*
X26750000Y-5856667D02*
X26850000Y-5856667D01*
X26800000Y-6165000D02*
X26800000Y-6265000D01*
X26750000Y-6215000D02*
X26850000Y-6215000D01*
X26800000Y-9775000D02*
X26800000Y-9875000D01*
X26750000Y-9825000D02*
X26850000Y-9825000D01*
D12*
X9458034Y-8433034D02*
X9458034Y-8326966D01*
X9351967Y-8326966D01*
X9351967Y-8433034D01*
X9458034Y-8433034D01*
X9458034Y-10853034D02*
X9458034Y-10746967D01*
X9351967Y-10746967D01*
X9351967Y-10853034D01*
X9458034Y-10853034D01*
D13*
X25679000Y-12925000D02*
X25804000Y-12800000D01*
X25679000Y-12675000D01*
X25554000Y-12800000D01*
X25679000Y-12925000D01*
X25679000Y-14005000D02*
X25804000Y-13880000D01*
X25679000Y-13755000D01*
X25554000Y-13880000D01*
X25679000Y-14005000D01*
X26200000Y-12925000D02*
X26325000Y-12800000D01*
X26200000Y-12675000D01*
X26075000Y-12800000D01*
X26200000Y-12925000D01*
X26200000Y-14005000D02*
X26325000Y-13880000D01*
X26200000Y-13755000D01*
X26075000Y-13880000D01*
X26200000Y-14005000D01*
X26721000Y-12925000D02*
X26846000Y-12800000D01*
X26721000Y-12675000D01*
X26596000Y-12800000D01*
X26721000Y-12925000D01*
X26721000Y-14005000D02*
X26846000Y-13880000D01*
X26721000Y-13755000D01*
X26596000Y-13880000D01*
X26721000Y-14005000D01*
D14*
X2890000Y-3890000D02*
X3310000Y-4310000D01*
X3310000Y-3890000D02*
X2890000Y-4310000D01*
X3310000Y-4100000D02*
G75*
G03*
X2890000Y-4100000I-210000J0D01*
G01*
X2890000Y-4100000D02*
G75*
G03*
X3310000Y-4100000I210000J0D01*
G01*
X2890000Y-14490000D02*
X3310000Y-14910000D01*
X3310000Y-14490000D02*
X2890000Y-14910000D01*
X3310000Y-14700000D02*
G75*
G03*
X2890000Y-14700000I-210000J0D01*
G01*
X2890000Y-14700000D02*
G75*
G03*
X3310000Y-14700000I210000J0D01*
G01*
X9290000Y-9365000D02*
X9710000Y-9785000D01*
X9710000Y-9365000D02*
X9290000Y-9785000D01*
X9710000Y-9575000D02*
G75*
G03*
X9290000Y-9575000I-210000J0D01*
G01*
X9290000Y-9575000D02*
G75*
G03*
X9710000Y-9575000I210000J0D01*
G01*
X16390000Y-3890000D02*
X16810000Y-4310000D01*
X16810000Y-3890000D02*
X16390000Y-4310000D01*
X16810000Y-4100000D02*
G75*
G03*
X16390000Y-4100000I-210000J0D01*
G01*
X16390000Y-4100000D02*
G75*
G03*
X16810000Y-4100000I210000J0D01*
G01*
X16390000Y-14490000D02*
X16810000Y-14910000D01*
X16810000Y-14490000D02*
X16390000Y-14910000D01*
X16810000Y-14700000D02*
G75*
G03*
X16390000Y-14700000I-210000J0D01*
G01*
X16390000Y-14700000D02*
G75*
G03*
X16810000Y-14700000I210000J0D01*
G01*
X19690000Y-9390000D02*
X20110000Y-9810000D01*
X20110000Y-9390000D02*
X19690000Y-9810000D01*
X20110000Y-9600000D02*
G75*
G03*
X19690000Y-9600000I-210000J0D01*
G01*
X19690000Y-9600000D02*
G75*
G03*
X20110000Y-9600000I210000J0D01*
G01*
X26890000Y-3890000D02*
X27310000Y-4310000D01*
X27310000Y-3890000D02*
X26890000Y-4310000D01*
X27310000Y-4100000D02*
G75*
G03*
X26890000Y-4100000I-210000J0D01*
G01*
X26890000Y-4100000D02*
G75*
G03*
X27310000Y-4100000I210000J0D01*
G01*
X26890000Y-14490000D02*
X27310000Y-14910000D01*
X27310000Y-14490000D02*
X26890000Y-14910000D01*
X27310000Y-14700000D02*
G75*
G03*
X26890000Y-14700000I-210000J0D01*
G01*
X26890000Y-14700000D02*
G75*
G03*
X27310000Y-14700000I210000J0D01*
G01*
D11*
X2655777Y-15616484D02*
X2655777Y-15416484D01*
X2655777Y-15416484D02*
X2703396Y-15416484D01*
X2703396Y-15416484D02*
X2731967Y-15426008D01*
X2731967Y-15426008D02*
X2751015Y-15445055D01*
X2751015Y-15445055D02*
X2760539Y-15464103D01*
X2760539Y-15464103D02*
X2770063Y-15502198D01*
X2770063Y-15502198D02*
X2770063Y-15530769D01*
X2770063Y-15530769D02*
X2760539Y-15568865D01*
X2760539Y-15568865D02*
X2751015Y-15587912D01*
X2751015Y-15587912D02*
X2731967Y-15606960D01*
X2731967Y-15606960D02*
X2703396Y-15616484D01*
X2703396Y-15616484D02*
X2655777Y-15616484D01*
X2855777Y-15616484D02*
X2855777Y-15483150D01*
X2855777Y-15521246D02*
X2865301Y-15502198D01*
X2865301Y-15502198D02*
X2874824Y-15492674D01*
X2874824Y-15492674D02*
X2893872Y-15483150D01*
X2893872Y-15483150D02*
X2912920Y-15483150D01*
X2979586Y-15616484D02*
X2979586Y-15483150D01*
X2979586Y-15416484D02*
X2970062Y-15426008D01*
X2970062Y-15426008D02*
X2979586Y-15435531D01*
X2979586Y-15435531D02*
X2989110Y-15426008D01*
X2989110Y-15426008D02*
X2979586Y-15416484D01*
X2979586Y-15416484D02*
X2979586Y-15435531D01*
X3103396Y-15616484D02*
X3084348Y-15606960D01*
X3084348Y-15606960D02*
X3074824Y-15587912D01*
X3074824Y-15587912D02*
X3074824Y-15416484D01*
X3208158Y-15616484D02*
X3189110Y-15606960D01*
X3189110Y-15606960D02*
X3179586Y-15587912D01*
X3179586Y-15587912D02*
X3179586Y-15416484D01*
X3436729Y-15616484D02*
X3436729Y-15416484D01*
X3436729Y-15416484D02*
X3503396Y-15559341D01*
X3503396Y-15559341D02*
X3570062Y-15416484D01*
X3570062Y-15416484D02*
X3570062Y-15616484D01*
X3751015Y-15616484D02*
X3751015Y-15511722D01*
X3751015Y-15511722D02*
X3741491Y-15492674D01*
X3741491Y-15492674D02*
X3722443Y-15483150D01*
X3722443Y-15483150D02*
X3684348Y-15483150D01*
X3684348Y-15483150D02*
X3665301Y-15492674D01*
X3751015Y-15606960D02*
X3731967Y-15616484D01*
X3731967Y-15616484D02*
X3684348Y-15616484D01*
X3684348Y-15616484D02*
X3665301Y-15606960D01*
X3665301Y-15606960D02*
X3655777Y-15587912D01*
X3655777Y-15587912D02*
X3655777Y-15568865D01*
X3655777Y-15568865D02*
X3665301Y-15549817D01*
X3665301Y-15549817D02*
X3684348Y-15540293D01*
X3684348Y-15540293D02*
X3731967Y-15540293D01*
X3731967Y-15540293D02*
X3751015Y-15530769D01*
X3846253Y-15483150D02*
X3846253Y-15683150D01*
X3846253Y-15492674D02*
X3865301Y-15483150D01*
X3865301Y-15483150D02*
X3903396Y-15483150D01*
X3903396Y-15483150D02*
X3922443Y-15492674D01*
X3922443Y-15492674D02*
X3931967Y-15502198D01*
X3931967Y-15502198D02*
X3941491Y-15521246D01*
X3941491Y-15521246D02*
X3941491Y-15578388D01*
X3941491Y-15578388D02*
X3931967Y-15597436D01*
X3931967Y-15597436D02*
X3922443Y-15606960D01*
X3922443Y-15606960D02*
X3903396Y-15616484D01*
X3903396Y-15616484D02*
X3865301Y-15616484D01*
X3865301Y-15616484D02*
X3846253Y-15606960D01*
X4027205Y-15597436D02*
X4036729Y-15606960D01*
X4036729Y-15606960D02*
X4027205Y-15616484D01*
X4027205Y-15616484D02*
X4017682Y-15606960D01*
X4017682Y-15606960D02*
X4027205Y-15597436D01*
X4027205Y-15597436D02*
X4027205Y-15616484D01*
X4027205Y-15492674D02*
X4036729Y-15502198D01*
X4036729Y-15502198D02*
X4027205Y-15511722D01*
X4027205Y-15511722D02*
X4017682Y-15502198D01*
X4017682Y-15502198D02*
X4027205Y-15492674D01*
X4027205Y-15492674D02*
X4027205Y-15511722D01*
D10*
X2335000Y-15915000D02*
X2395000Y-15975000D01*
X2395000Y-15915000D02*
X2335000Y-15975000D01*
D11*
X2693872Y-15836484D02*
X2712920Y-15836484D01*
X2712920Y-15836484D02*
X2731967Y-15846008D01*
X2731967Y-15846008D02*
X2741491Y-15855531D01*
X2741491Y-15855531D02*
X2751015Y-15874579D01*
X2751015Y-15874579D02*
X2760539Y-15912674D01*
X2760539Y-15912674D02*
X2760539Y-15960293D01*
X2760539Y-15960293D02*
X2751015Y-15998388D01*
X2751015Y-15998388D02*
X2741491Y-16017436D01*
X2741491Y-16017436D02*
X2731967Y-16026960D01*
X2731967Y-16026960D02*
X2712920Y-16036484D01*
X2712920Y-16036484D02*
X2693872Y-16036484D01*
X2693872Y-16036484D02*
X2674824Y-16026960D01*
X2674824Y-16026960D02*
X2665301Y-16017436D01*
X2665301Y-16017436D02*
X2655777Y-15998388D01*
X2655777Y-15998388D02*
X2646253Y-15960293D01*
X2646253Y-15960293D02*
X2646253Y-15912674D01*
X2646253Y-15912674D02*
X2655777Y-15874579D01*
X2655777Y-15874579D02*
X2665301Y-15855531D01*
X2665301Y-15855531D02*
X2674824Y-15846008D01*
X2674824Y-15846008D02*
X2693872Y-15836484D01*
X2846253Y-16017436D02*
X2855777Y-16026960D01*
X2855777Y-16026960D02*
X2846253Y-16036484D01*
X2846253Y-16036484D02*
X2836729Y-16026960D01*
X2836729Y-16026960D02*
X2846253Y-16017436D01*
X2846253Y-16017436D02*
X2846253Y-16036484D01*
X3027205Y-15836484D02*
X2989110Y-15836484D01*
X2989110Y-15836484D02*
X2970062Y-15846008D01*
X2970062Y-15846008D02*
X2960539Y-15855531D01*
X2960539Y-15855531D02*
X2941491Y-15884103D01*
X2941491Y-15884103D02*
X2931967Y-15922198D01*
X2931967Y-15922198D02*
X2931967Y-15998388D01*
X2931967Y-15998388D02*
X2941491Y-16017436D01*
X2941491Y-16017436D02*
X2951015Y-16026960D01*
X2951015Y-16026960D02*
X2970062Y-16036484D01*
X2970062Y-16036484D02*
X3008158Y-16036484D01*
X3008158Y-16036484D02*
X3027205Y-16026960D01*
X3027205Y-16026960D02*
X3036729Y-16017436D01*
X3036729Y-16017436D02*
X3046253Y-15998388D01*
X3046253Y-15998388D02*
X3046253Y-15950769D01*
X3046253Y-15950769D02*
X3036729Y-15931722D01*
X3036729Y-15931722D02*
X3027205Y-15922198D01*
X3027205Y-15922198D02*
X3008158Y-15912674D01*
X3008158Y-15912674D02*
X2970062Y-15912674D01*
X2970062Y-15912674D02*
X2951015Y-15922198D01*
X2951015Y-15922198D02*
X2941491Y-15931722D01*
X2941491Y-15931722D02*
X2931967Y-15950769D01*
X3170062Y-15836484D02*
X3189110Y-15836484D01*
X3189110Y-15836484D02*
X3208158Y-15846008D01*
X3208158Y-15846008D02*
X3217682Y-15855531D01*
X3217682Y-15855531D02*
X3227205Y-15874579D01*
X3227205Y-15874579D02*
X3236729Y-15912674D01*
X3236729Y-15912674D02*
X3236729Y-15960293D01*
X3236729Y-15960293D02*
X3227205Y-15998388D01*
X3227205Y-15998388D02*
X3217682Y-16017436D01*
X3217682Y-16017436D02*
X3208158Y-16026960D01*
X3208158Y-16026960D02*
X3189110Y-16036484D01*
X3189110Y-16036484D02*
X3170062Y-16036484D01*
X3170062Y-16036484D02*
X3151015Y-16026960D01*
X3151015Y-16026960D02*
X3141491Y-16017436D01*
X3141491Y-16017436D02*
X3131967Y-15998388D01*
X3131967Y-15998388D02*
X3122443Y-15960293D01*
X3122443Y-15960293D02*
X3122443Y-15912674D01*
X3122443Y-15912674D02*
X3131967Y-15874579D01*
X3131967Y-15874579D02*
X3141491Y-15855531D01*
X3141491Y-15855531D02*
X3151015Y-15846008D01*
X3151015Y-15846008D02*
X3170062Y-15836484D01*
X3360539Y-15836484D02*
X3379586Y-15836484D01*
X3379586Y-15836484D02*
X3398634Y-15846008D01*
X3398634Y-15846008D02*
X3408158Y-15855531D01*
X3408158Y-15855531D02*
X3417682Y-15874579D01*
X3417682Y-15874579D02*
X3427205Y-15912674D01*
X3427205Y-15912674D02*
X3427205Y-15960293D01*
X3427205Y-15960293D02*
X3417682Y-15998388D01*
X3417682Y-15998388D02*
X3408158Y-16017436D01*
X3408158Y-16017436D02*
X3398634Y-16026960D01*
X3398634Y-16026960D02*
X3379586Y-16036484D01*
X3379586Y-16036484D02*
X3360539Y-16036484D01*
X3360539Y-16036484D02*
X3341491Y-16026960D01*
X3341491Y-16026960D02*
X3331967Y-16017436D01*
X3331967Y-16017436D02*
X3322443Y-15998388D01*
X3322443Y-15998388D02*
X3312920Y-15960293D01*
X3312920Y-15960293D02*
X3312920Y-15912674D01*
X3312920Y-15912674D02*
X3322443Y-15874579D01*
X3322443Y-15874579D02*
X3331967Y-15855531D01*
X3331967Y-15855531D02*
X3341491Y-15846008D01*
X3341491Y-15846008D02*
X3360539Y-15836484D01*
X3512920Y-16036484D02*
X3512920Y-15903150D01*
X3512920Y-15922198D02*
X3522443Y-15912674D01*
X3522443Y-15912674D02*
X3541491Y-15903150D01*
X3541491Y-15903150D02*
X3570063Y-15903150D01*
X3570063Y-15903150D02*
X3589110Y-15912674D01*
X3589110Y-15912674D02*
X3598634Y-15931722D01*
X3598634Y-15931722D02*
X3598634Y-16036484D01*
X3598634Y-15931722D02*
X3608158Y-15912674D01*
X3608158Y-15912674D02*
X3627205Y-15903150D01*
X3627205Y-15903150D02*
X3655777Y-15903150D01*
X3655777Y-15903150D02*
X3674824Y-15912674D01*
X3674824Y-15912674D02*
X3684348Y-15931722D01*
X3684348Y-15931722D02*
X3684348Y-16036484D01*
X3779586Y-16036484D02*
X3779586Y-15903150D01*
X3779586Y-15922198D02*
X3789110Y-15912674D01*
X3789110Y-15912674D02*
X3808158Y-15903150D01*
X3808158Y-15903150D02*
X3836729Y-15903150D01*
X3836729Y-15903150D02*
X3855777Y-15912674D01*
X3855777Y-15912674D02*
X3865301Y-15931722D01*
X3865301Y-15931722D02*
X3865301Y-16036484D01*
X3865301Y-15931722D02*
X3874824Y-15912674D01*
X3874824Y-15912674D02*
X3893872Y-15903150D01*
X3893872Y-15903150D02*
X3922443Y-15903150D01*
X3922443Y-15903150D02*
X3941491Y-15912674D01*
X3941491Y-15912674D02*
X3951015Y-15931722D01*
X3951015Y-15931722D02*
X3951015Y-16036484D01*
X4341491Y-15826960D02*
X4170063Y-16084103D01*
X4598634Y-15836484D02*
X4617682Y-15836484D01*
X4617682Y-15836484D02*
X4636729Y-15846008D01*
X4636729Y-15846008D02*
X4646253Y-15855531D01*
X4646253Y-15855531D02*
X4655777Y-15874579D01*
X4655777Y-15874579D02*
X4665301Y-15912674D01*
X4665301Y-15912674D02*
X4665301Y-15960293D01*
X4665301Y-15960293D02*
X4655777Y-15998388D01*
X4655777Y-15998388D02*
X4646253Y-16017436D01*
X4646253Y-16017436D02*
X4636729Y-16026960D01*
X4636729Y-16026960D02*
X4617682Y-16036484D01*
X4617682Y-16036484D02*
X4598634Y-16036484D01*
X4598634Y-16036484D02*
X4579587Y-16026960D01*
X4579587Y-16026960D02*
X4570063Y-16017436D01*
X4570063Y-16017436D02*
X4560539Y-15998388D01*
X4560539Y-15998388D02*
X4551015Y-15960293D01*
X4551015Y-15960293D02*
X4551015Y-15912674D01*
X4551015Y-15912674D02*
X4560539Y-15874579D01*
X4560539Y-15874579D02*
X4570063Y-15855531D01*
X4570063Y-15855531D02*
X4579587Y-15846008D01*
X4579587Y-15846008D02*
X4598634Y-15836484D01*
X4751015Y-16017436D02*
X4760539Y-16026960D01*
X4760539Y-16026960D02*
X4751015Y-16036484D01*
X4751015Y-16036484D02*
X4741491Y-16026960D01*
X4741491Y-16026960D02*
X4751015Y-16017436D01*
X4751015Y-16017436D02*
X4751015Y-16036484D01*
X4884348Y-15836484D02*
X4903396Y-15836484D01*
X4903396Y-15836484D02*
X4922444Y-15846008D01*
X4922444Y-15846008D02*
X4931968Y-15855531D01*
X4931968Y-15855531D02*
X4941491Y-15874579D01*
X4941491Y-15874579D02*
X4951015Y-15912674D01*
X4951015Y-15912674D02*
X4951015Y-15960293D01*
X4951015Y-15960293D02*
X4941491Y-15998388D01*
X4941491Y-15998388D02*
X4931968Y-16017436D01*
X4931968Y-16017436D02*
X4922444Y-16026960D01*
X4922444Y-16026960D02*
X4903396Y-16036484D01*
X4903396Y-16036484D02*
X4884348Y-16036484D01*
X4884348Y-16036484D02*
X4865301Y-16026960D01*
X4865301Y-16026960D02*
X4855777Y-16017436D01*
X4855777Y-16017436D02*
X4846253Y-15998388D01*
X4846253Y-15998388D02*
X4836729Y-15960293D01*
X4836729Y-15960293D02*
X4836729Y-15912674D01*
X4836729Y-15912674D02*
X4846253Y-15874579D01*
X4846253Y-15874579D02*
X4855777Y-15855531D01*
X4855777Y-15855531D02*
X4865301Y-15846008D01*
X4865301Y-15846008D02*
X4884348Y-15836484D01*
X5027206Y-15855531D02*
X5036729Y-15846008D01*
X5036729Y-15846008D02*
X5055777Y-15836484D01*
X5055777Y-15836484D02*
X5103396Y-15836484D01*
X5103396Y-15836484D02*
X5122444Y-15846008D01*
X5122444Y-15846008D02*
X5131968Y-15855531D01*
X5131968Y-15855531D02*
X5141491Y-15874579D01*
X5141491Y-15874579D02*
X5141491Y-15893627D01*
X5141491Y-15893627D02*
X5131968Y-15922198D01*
X5131968Y-15922198D02*
X5017682Y-16036484D01*
X5017682Y-16036484D02*
X5141491Y-16036484D01*
X5208158Y-15836484D02*
X5331968Y-15836484D01*
X5331968Y-15836484D02*
X5265301Y-15912674D01*
X5265301Y-15912674D02*
X5293872Y-15912674D01*
X5293872Y-15912674D02*
X5312920Y-15922198D01*
X5312920Y-15922198D02*
X5322444Y-15931722D01*
X5322444Y-15931722D02*
X5331968Y-15950769D01*
X5331968Y-15950769D02*
X5331968Y-15998388D01*
X5331968Y-15998388D02*
X5322444Y-16017436D01*
X5322444Y-16017436D02*
X5312920Y-16026960D01*
X5312920Y-16026960D02*
X5293872Y-16036484D01*
X5293872Y-16036484D02*
X5236729Y-16036484D01*
X5236729Y-16036484D02*
X5217682Y-16026960D01*
X5217682Y-16026960D02*
X5208158Y-16017436D01*
X5503396Y-15836484D02*
X5465301Y-15836484D01*
X5465301Y-15836484D02*
X5446253Y-15846008D01*
X5446253Y-15846008D02*
X5436729Y-15855531D01*
X5436729Y-15855531D02*
X5417682Y-15884103D01*
X5417682Y-15884103D02*
X5408158Y-15922198D01*
X5408158Y-15922198D02*
X5408158Y-15998388D01*
X5408158Y-15998388D02*
X5417682Y-16017436D01*
X5417682Y-16017436D02*
X5427206Y-16026960D01*
X5427206Y-16026960D02*
X5446253Y-16036484D01*
X5446253Y-16036484D02*
X5484349Y-16036484D01*
X5484349Y-16036484D02*
X5503396Y-16026960D01*
X5503396Y-16026960D02*
X5512920Y-16017436D01*
X5512920Y-16017436D02*
X5522444Y-15998388D01*
X5522444Y-15998388D02*
X5522444Y-15950769D01*
X5522444Y-15950769D02*
X5512920Y-15931722D01*
X5512920Y-15931722D02*
X5503396Y-15922198D01*
X5503396Y-15922198D02*
X5484349Y-15912674D01*
X5484349Y-15912674D02*
X5446253Y-15912674D01*
X5446253Y-15912674D02*
X5427206Y-15922198D01*
X5427206Y-15922198D02*
X5417682Y-15931722D01*
X5417682Y-15931722D02*
X5408158Y-15950769D01*
X5598634Y-15836484D02*
X5598634Y-15874579D01*
X5674825Y-15836484D02*
X5674825Y-15874579D01*
X5970063Y-16112674D02*
X5960539Y-16103150D01*
X5960539Y-16103150D02*
X5941491Y-16074579D01*
X5941491Y-16074579D02*
X5931968Y-16055531D01*
X5931968Y-16055531D02*
X5922444Y-16026960D01*
X5922444Y-16026960D02*
X5912920Y-15979341D01*
X5912920Y-15979341D02*
X5912920Y-15941246D01*
X5912920Y-15941246D02*
X5922444Y-15893627D01*
X5922444Y-15893627D02*
X5931968Y-15865055D01*
X5931968Y-15865055D02*
X5941491Y-15846008D01*
X5941491Y-15846008D02*
X5960539Y-15817436D01*
X5960539Y-15817436D02*
X5970063Y-15807912D01*
X6027206Y-15836484D02*
X6160539Y-15836484D01*
X6160539Y-15836484D02*
X6074825Y-16036484D01*
X6217682Y-15836484D02*
X6341491Y-15836484D01*
X6341491Y-15836484D02*
X6274825Y-15912674D01*
X6274825Y-15912674D02*
X6303396Y-15912674D01*
X6303396Y-15912674D02*
X6322444Y-15922198D01*
X6322444Y-15922198D02*
X6331968Y-15931722D01*
X6331968Y-15931722D02*
X6341491Y-15950769D01*
X6341491Y-15950769D02*
X6341491Y-15998388D01*
X6341491Y-15998388D02*
X6331968Y-16017436D01*
X6331968Y-16017436D02*
X6322444Y-16026960D01*
X6322444Y-16026960D02*
X6303396Y-16036484D01*
X6303396Y-16036484D02*
X6246253Y-16036484D01*
X6246253Y-16036484D02*
X6227206Y-16026960D01*
X6227206Y-16026960D02*
X6217682Y-16017436D01*
X6408158Y-15836484D02*
X6531968Y-15836484D01*
X6531968Y-15836484D02*
X6465301Y-15912674D01*
X6465301Y-15912674D02*
X6493872Y-15912674D01*
X6493872Y-15912674D02*
X6512920Y-15922198D01*
X6512920Y-15922198D02*
X6522444Y-15931722D01*
X6522444Y-15931722D02*
X6531968Y-15950769D01*
X6531968Y-15950769D02*
X6531968Y-15998388D01*
X6531968Y-15998388D02*
X6522444Y-16017436D01*
X6522444Y-16017436D02*
X6512920Y-16026960D01*
X6512920Y-16026960D02*
X6493872Y-16036484D01*
X6493872Y-16036484D02*
X6436729Y-16036484D01*
X6436729Y-16036484D02*
X6417682Y-16026960D01*
X6417682Y-16026960D02*
X6408158Y-16017436D01*
X6770063Y-16036484D02*
X6770063Y-15836484D01*
X6855777Y-16036484D02*
X6855777Y-15931722D01*
X6855777Y-15931722D02*
X6846253Y-15912674D01*
X6846253Y-15912674D02*
X6827206Y-15903150D01*
X6827206Y-15903150D02*
X6798634Y-15903150D01*
X6798634Y-15903150D02*
X6779587Y-15912674D01*
X6779587Y-15912674D02*
X6770063Y-15922198D01*
X6979587Y-16036484D02*
X6960539Y-16026960D01*
X6960539Y-16026960D02*
X6951015Y-16017436D01*
X6951015Y-16017436D02*
X6941491Y-15998388D01*
X6941491Y-15998388D02*
X6941491Y-15941246D01*
X6941491Y-15941246D02*
X6951015Y-15922198D01*
X6951015Y-15922198D02*
X6960539Y-15912674D01*
X6960539Y-15912674D02*
X6979587Y-15903150D01*
X6979587Y-15903150D02*
X7008158Y-15903150D01*
X7008158Y-15903150D02*
X7027206Y-15912674D01*
X7027206Y-15912674D02*
X7036730Y-15922198D01*
X7036730Y-15922198D02*
X7046253Y-15941246D01*
X7046253Y-15941246D02*
X7046253Y-15998388D01*
X7046253Y-15998388D02*
X7036730Y-16017436D01*
X7036730Y-16017436D02*
X7027206Y-16026960D01*
X7027206Y-16026960D02*
X7008158Y-16036484D01*
X7008158Y-16036484D02*
X6979587Y-16036484D01*
X7160539Y-16036484D02*
X7141491Y-16026960D01*
X7141491Y-16026960D02*
X7131968Y-16007912D01*
X7131968Y-16007912D02*
X7131968Y-15836484D01*
X7312920Y-16026960D02*
X7293872Y-16036484D01*
X7293872Y-16036484D02*
X7255777Y-16036484D01*
X7255777Y-16036484D02*
X7236730Y-16026960D01*
X7236730Y-16026960D02*
X7227206Y-16007912D01*
X7227206Y-16007912D02*
X7227206Y-15931722D01*
X7227206Y-15931722D02*
X7236730Y-15912674D01*
X7236730Y-15912674D02*
X7255777Y-15903150D01*
X7255777Y-15903150D02*
X7293872Y-15903150D01*
X7293872Y-15903150D02*
X7312920Y-15912674D01*
X7312920Y-15912674D02*
X7322444Y-15931722D01*
X7322444Y-15931722D02*
X7322444Y-15950769D01*
X7322444Y-15950769D02*
X7227206Y-15969817D01*
X7398634Y-16026960D02*
X7417682Y-16036484D01*
X7417682Y-16036484D02*
X7455777Y-16036484D01*
X7455777Y-16036484D02*
X7474825Y-16026960D01*
X7474825Y-16026960D02*
X7484349Y-16007912D01*
X7484349Y-16007912D02*
X7484349Y-15998388D01*
X7484349Y-15998388D02*
X7474825Y-15979341D01*
X7474825Y-15979341D02*
X7455777Y-15969817D01*
X7455777Y-15969817D02*
X7427206Y-15969817D01*
X7427206Y-15969817D02*
X7408158Y-15960293D01*
X7408158Y-15960293D02*
X7398634Y-15941246D01*
X7398634Y-15941246D02*
X7398634Y-15931722D01*
X7398634Y-15931722D02*
X7408158Y-15912674D01*
X7408158Y-15912674D02*
X7427206Y-15903150D01*
X7427206Y-15903150D02*
X7455777Y-15903150D01*
X7455777Y-15903150D02*
X7474825Y-15912674D01*
X7551015Y-16112674D02*
X7560539Y-16103150D01*
X7560539Y-16103150D02*
X7579587Y-16074579D01*
X7579587Y-16074579D02*
X7589111Y-16055531D01*
X7589111Y-16055531D02*
X7598634Y-16026960D01*
X7598634Y-16026960D02*
X7608158Y-15979341D01*
X7608158Y-15979341D02*
X7608158Y-15941246D01*
X7608158Y-15941246D02*
X7598634Y-15893627D01*
X7598634Y-15893627D02*
X7589111Y-15865055D01*
X7589111Y-15865055D02*
X7579587Y-15846008D01*
X7579587Y-15846008D02*
X7560539Y-15817436D01*
X7560539Y-15817436D02*
X7551015Y-15807912D01*
D10*
X2395000Y-16209000D02*
G75*
G03*
X2315000Y-16209000I-40000J0D01*
G01*
X2315000Y-16209000D02*
G75*
G03*
X2395000Y-16209000I40000J0D01*
G01*
D11*
X2693872Y-16100484D02*
X2712920Y-16100484D01*
X2712920Y-16100484D02*
X2731967Y-16110008D01*
X2731967Y-16110008D02*
X2741491Y-16119531D01*
X2741491Y-16119531D02*
X2751015Y-16138579D01*
X2751015Y-16138579D02*
X2760539Y-16176674D01*
X2760539Y-16176674D02*
X2760539Y-16224293D01*
X2760539Y-16224293D02*
X2751015Y-16262388D01*
X2751015Y-16262388D02*
X2741491Y-16281436D01*
X2741491Y-16281436D02*
X2731967Y-16290960D01*
X2731967Y-16290960D02*
X2712920Y-16300484D01*
X2712920Y-16300484D02*
X2693872Y-16300484D01*
X2693872Y-16300484D02*
X2674824Y-16290960D01*
X2674824Y-16290960D02*
X2665301Y-16281436D01*
X2665301Y-16281436D02*
X2655777Y-16262388D01*
X2655777Y-16262388D02*
X2646253Y-16224293D01*
X2646253Y-16224293D02*
X2646253Y-16176674D01*
X2646253Y-16176674D02*
X2655777Y-16138579D01*
X2655777Y-16138579D02*
X2665301Y-16119531D01*
X2665301Y-16119531D02*
X2674824Y-16110008D01*
X2674824Y-16110008D02*
X2693872Y-16100484D01*
X2846253Y-16281436D02*
X2855777Y-16290960D01*
X2855777Y-16290960D02*
X2846253Y-16300484D01*
X2846253Y-16300484D02*
X2836729Y-16290960D01*
X2836729Y-16290960D02*
X2846253Y-16281436D01*
X2846253Y-16281436D02*
X2846253Y-16300484D01*
X2970062Y-16186198D02*
X2951015Y-16176674D01*
X2951015Y-16176674D02*
X2941491Y-16167150D01*
X2941491Y-16167150D02*
X2931967Y-16148103D01*
X2931967Y-16148103D02*
X2931967Y-16138579D01*
X2931967Y-16138579D02*
X2941491Y-16119531D01*
X2941491Y-16119531D02*
X2951015Y-16110008D01*
X2951015Y-16110008D02*
X2970062Y-16100484D01*
X2970062Y-16100484D02*
X3008158Y-16100484D01*
X3008158Y-16100484D02*
X3027205Y-16110008D01*
X3027205Y-16110008D02*
X3036729Y-16119531D01*
X3036729Y-16119531D02*
X3046253Y-16138579D01*
X3046253Y-16138579D02*
X3046253Y-16148103D01*
X3046253Y-16148103D02*
X3036729Y-16167150D01*
X3036729Y-16167150D02*
X3027205Y-16176674D01*
X3027205Y-16176674D02*
X3008158Y-16186198D01*
X3008158Y-16186198D02*
X2970062Y-16186198D01*
X2970062Y-16186198D02*
X2951015Y-16195722D01*
X2951015Y-16195722D02*
X2941491Y-16205246D01*
X2941491Y-16205246D02*
X2931967Y-16224293D01*
X2931967Y-16224293D02*
X2931967Y-16262388D01*
X2931967Y-16262388D02*
X2941491Y-16281436D01*
X2941491Y-16281436D02*
X2951015Y-16290960D01*
X2951015Y-16290960D02*
X2970062Y-16300484D01*
X2970062Y-16300484D02*
X3008158Y-16300484D01*
X3008158Y-16300484D02*
X3027205Y-16290960D01*
X3027205Y-16290960D02*
X3036729Y-16281436D01*
X3036729Y-16281436D02*
X3046253Y-16262388D01*
X3046253Y-16262388D02*
X3046253Y-16224293D01*
X3046253Y-16224293D02*
X3036729Y-16205246D01*
X3036729Y-16205246D02*
X3027205Y-16195722D01*
X3027205Y-16195722D02*
X3008158Y-16186198D01*
X3170062Y-16100484D02*
X3189110Y-16100484D01*
X3189110Y-16100484D02*
X3208158Y-16110008D01*
X3208158Y-16110008D02*
X3217682Y-16119531D01*
X3217682Y-16119531D02*
X3227205Y-16138579D01*
X3227205Y-16138579D02*
X3236729Y-16176674D01*
X3236729Y-16176674D02*
X3236729Y-16224293D01*
X3236729Y-16224293D02*
X3227205Y-16262388D01*
X3227205Y-16262388D02*
X3217682Y-16281436D01*
X3217682Y-16281436D02*
X3208158Y-16290960D01*
X3208158Y-16290960D02*
X3189110Y-16300484D01*
X3189110Y-16300484D02*
X3170062Y-16300484D01*
X3170062Y-16300484D02*
X3151015Y-16290960D01*
X3151015Y-16290960D02*
X3141491Y-16281436D01*
X3141491Y-16281436D02*
X3131967Y-16262388D01*
X3131967Y-16262388D02*
X3122443Y-16224293D01*
X3122443Y-16224293D02*
X3122443Y-16176674D01*
X3122443Y-16176674D02*
X3131967Y-16138579D01*
X3131967Y-16138579D02*
X3141491Y-16119531D01*
X3141491Y-16119531D02*
X3151015Y-16110008D01*
X3151015Y-16110008D02*
X3170062Y-16100484D01*
X3360539Y-16100484D02*
X3379586Y-16100484D01*
X3379586Y-16100484D02*
X3398634Y-16110008D01*
X3398634Y-16110008D02*
X3408158Y-16119531D01*
X3408158Y-16119531D02*
X3417682Y-16138579D01*
X3417682Y-16138579D02*
X3427205Y-16176674D01*
X3427205Y-16176674D02*
X3427205Y-16224293D01*
X3427205Y-16224293D02*
X3417682Y-16262388D01*
X3417682Y-16262388D02*
X3408158Y-16281436D01*
X3408158Y-16281436D02*
X3398634Y-16290960D01*
X3398634Y-16290960D02*
X3379586Y-16300484D01*
X3379586Y-16300484D02*
X3360539Y-16300484D01*
X3360539Y-16300484D02*
X3341491Y-16290960D01*
X3341491Y-16290960D02*
X3331967Y-16281436D01*
X3331967Y-16281436D02*
X3322443Y-16262388D01*
X3322443Y-16262388D02*
X3312920Y-16224293D01*
X3312920Y-16224293D02*
X3312920Y-16176674D01*
X3312920Y-16176674D02*
X3322443Y-16138579D01*
X3322443Y-16138579D02*
X3331967Y-16119531D01*
X3331967Y-16119531D02*
X3341491Y-16110008D01*
X3341491Y-16110008D02*
X3360539Y-16100484D01*
X3512920Y-16300484D02*
X3512920Y-16167150D01*
X3512920Y-16186198D02*
X3522443Y-16176674D01*
X3522443Y-16176674D02*
X3541491Y-16167150D01*
X3541491Y-16167150D02*
X3570063Y-16167150D01*
X3570063Y-16167150D02*
X3589110Y-16176674D01*
X3589110Y-16176674D02*
X3598634Y-16195722D01*
X3598634Y-16195722D02*
X3598634Y-16300484D01*
X3598634Y-16195722D02*
X3608158Y-16176674D01*
X3608158Y-16176674D02*
X3627205Y-16167150D01*
X3627205Y-16167150D02*
X3655777Y-16167150D01*
X3655777Y-16167150D02*
X3674824Y-16176674D01*
X3674824Y-16176674D02*
X3684348Y-16195722D01*
X3684348Y-16195722D02*
X3684348Y-16300484D01*
X3779586Y-16300484D02*
X3779586Y-16167150D01*
X3779586Y-16186198D02*
X3789110Y-16176674D01*
X3789110Y-16176674D02*
X3808158Y-16167150D01*
X3808158Y-16167150D02*
X3836729Y-16167150D01*
X3836729Y-16167150D02*
X3855777Y-16176674D01*
X3855777Y-16176674D02*
X3865301Y-16195722D01*
X3865301Y-16195722D02*
X3865301Y-16300484D01*
X3865301Y-16195722D02*
X3874824Y-16176674D01*
X3874824Y-16176674D02*
X3893872Y-16167150D01*
X3893872Y-16167150D02*
X3922443Y-16167150D01*
X3922443Y-16167150D02*
X3941491Y-16176674D01*
X3941491Y-16176674D02*
X3951015Y-16195722D01*
X3951015Y-16195722D02*
X3951015Y-16300484D01*
X4341491Y-16090960D02*
X4170063Y-16348103D01*
X4598634Y-16100484D02*
X4617682Y-16100484D01*
X4617682Y-16100484D02*
X4636729Y-16110008D01*
X4636729Y-16110008D02*
X4646253Y-16119531D01*
X4646253Y-16119531D02*
X4655777Y-16138579D01*
X4655777Y-16138579D02*
X4665301Y-16176674D01*
X4665301Y-16176674D02*
X4665301Y-16224293D01*
X4665301Y-16224293D02*
X4655777Y-16262388D01*
X4655777Y-16262388D02*
X4646253Y-16281436D01*
X4646253Y-16281436D02*
X4636729Y-16290960D01*
X4636729Y-16290960D02*
X4617682Y-16300484D01*
X4617682Y-16300484D02*
X4598634Y-16300484D01*
X4598634Y-16300484D02*
X4579587Y-16290960D01*
X4579587Y-16290960D02*
X4570063Y-16281436D01*
X4570063Y-16281436D02*
X4560539Y-16262388D01*
X4560539Y-16262388D02*
X4551015Y-16224293D01*
X4551015Y-16224293D02*
X4551015Y-16176674D01*
X4551015Y-16176674D02*
X4560539Y-16138579D01*
X4560539Y-16138579D02*
X4570063Y-16119531D01*
X4570063Y-16119531D02*
X4579587Y-16110008D01*
X4579587Y-16110008D02*
X4598634Y-16100484D01*
X4751015Y-16281436D02*
X4760539Y-16290960D01*
X4760539Y-16290960D02*
X4751015Y-16300484D01*
X4751015Y-16300484D02*
X4741491Y-16290960D01*
X4741491Y-16290960D02*
X4751015Y-16281436D01*
X4751015Y-16281436D02*
X4751015Y-16300484D01*
X4884348Y-16100484D02*
X4903396Y-16100484D01*
X4903396Y-16100484D02*
X4922444Y-16110008D01*
X4922444Y-16110008D02*
X4931968Y-16119531D01*
X4931968Y-16119531D02*
X4941491Y-16138579D01*
X4941491Y-16138579D02*
X4951015Y-16176674D01*
X4951015Y-16176674D02*
X4951015Y-16224293D01*
X4951015Y-16224293D02*
X4941491Y-16262388D01*
X4941491Y-16262388D02*
X4931968Y-16281436D01*
X4931968Y-16281436D02*
X4922444Y-16290960D01*
X4922444Y-16290960D02*
X4903396Y-16300484D01*
X4903396Y-16300484D02*
X4884348Y-16300484D01*
X4884348Y-16300484D02*
X4865301Y-16290960D01*
X4865301Y-16290960D02*
X4855777Y-16281436D01*
X4855777Y-16281436D02*
X4846253Y-16262388D01*
X4846253Y-16262388D02*
X4836729Y-16224293D01*
X4836729Y-16224293D02*
X4836729Y-16176674D01*
X4836729Y-16176674D02*
X4846253Y-16138579D01*
X4846253Y-16138579D02*
X4855777Y-16119531D01*
X4855777Y-16119531D02*
X4865301Y-16110008D01*
X4865301Y-16110008D02*
X4884348Y-16100484D01*
X5017682Y-16100484D02*
X5141491Y-16100484D01*
X5141491Y-16100484D02*
X5074825Y-16176674D01*
X5074825Y-16176674D02*
X5103396Y-16176674D01*
X5103396Y-16176674D02*
X5122444Y-16186198D01*
X5122444Y-16186198D02*
X5131968Y-16195722D01*
X5131968Y-16195722D02*
X5141491Y-16214769D01*
X5141491Y-16214769D02*
X5141491Y-16262388D01*
X5141491Y-16262388D02*
X5131968Y-16281436D01*
X5131968Y-16281436D02*
X5122444Y-16290960D01*
X5122444Y-16290960D02*
X5103396Y-16300484D01*
X5103396Y-16300484D02*
X5046253Y-16300484D01*
X5046253Y-16300484D02*
X5027206Y-16290960D01*
X5027206Y-16290960D02*
X5017682Y-16281436D01*
X5331968Y-16300484D02*
X5217682Y-16300484D01*
X5274825Y-16300484D02*
X5274825Y-16100484D01*
X5274825Y-16100484D02*
X5255777Y-16129055D01*
X5255777Y-16129055D02*
X5236729Y-16148103D01*
X5236729Y-16148103D02*
X5217682Y-16157627D01*
X5512920Y-16100484D02*
X5417682Y-16100484D01*
X5417682Y-16100484D02*
X5408158Y-16195722D01*
X5408158Y-16195722D02*
X5417682Y-16186198D01*
X5417682Y-16186198D02*
X5436729Y-16176674D01*
X5436729Y-16176674D02*
X5484349Y-16176674D01*
X5484349Y-16176674D02*
X5503396Y-16186198D01*
X5503396Y-16186198D02*
X5512920Y-16195722D01*
X5512920Y-16195722D02*
X5522444Y-16214769D01*
X5522444Y-16214769D02*
X5522444Y-16262388D01*
X5522444Y-16262388D02*
X5512920Y-16281436D01*
X5512920Y-16281436D02*
X5503396Y-16290960D01*
X5503396Y-16290960D02*
X5484349Y-16300484D01*
X5484349Y-16300484D02*
X5436729Y-16300484D01*
X5436729Y-16300484D02*
X5417682Y-16290960D01*
X5417682Y-16290960D02*
X5408158Y-16281436D01*
X5598634Y-16100484D02*
X5598634Y-16138579D01*
X5674825Y-16100484D02*
X5674825Y-16138579D01*
X5970063Y-16376674D02*
X5960539Y-16367150D01*
X5960539Y-16367150D02*
X5941491Y-16338579D01*
X5941491Y-16338579D02*
X5931968Y-16319531D01*
X5931968Y-16319531D02*
X5922444Y-16290960D01*
X5922444Y-16290960D02*
X5912920Y-16243341D01*
X5912920Y-16243341D02*
X5912920Y-16205246D01*
X5912920Y-16205246D02*
X5922444Y-16157627D01*
X5922444Y-16157627D02*
X5931968Y-16129055D01*
X5931968Y-16129055D02*
X5941491Y-16110008D01*
X5941491Y-16110008D02*
X5960539Y-16081436D01*
X5960539Y-16081436D02*
X5970063Y-16071912D01*
X6027206Y-16100484D02*
X6151015Y-16100484D01*
X6151015Y-16100484D02*
X6084348Y-16176674D01*
X6084348Y-16176674D02*
X6112920Y-16176674D01*
X6112920Y-16176674D02*
X6131968Y-16186198D01*
X6131968Y-16186198D02*
X6141491Y-16195722D01*
X6141491Y-16195722D02*
X6151015Y-16214769D01*
X6151015Y-16214769D02*
X6151015Y-16262388D01*
X6151015Y-16262388D02*
X6141491Y-16281436D01*
X6141491Y-16281436D02*
X6131968Y-16290960D01*
X6131968Y-16290960D02*
X6112920Y-16300484D01*
X6112920Y-16300484D02*
X6055777Y-16300484D01*
X6055777Y-16300484D02*
X6036729Y-16290960D01*
X6036729Y-16290960D02*
X6027206Y-16281436D01*
X6389110Y-16300484D02*
X6389110Y-16100484D01*
X6474825Y-16300484D02*
X6474825Y-16195722D01*
X6474825Y-16195722D02*
X6465301Y-16176674D01*
X6465301Y-16176674D02*
X6446253Y-16167150D01*
X6446253Y-16167150D02*
X6417682Y-16167150D01*
X6417682Y-16167150D02*
X6398634Y-16176674D01*
X6398634Y-16176674D02*
X6389110Y-16186198D01*
X6598634Y-16300484D02*
X6579587Y-16290960D01*
X6579587Y-16290960D02*
X6570063Y-16281436D01*
X6570063Y-16281436D02*
X6560539Y-16262388D01*
X6560539Y-16262388D02*
X6560539Y-16205246D01*
X6560539Y-16205246D02*
X6570063Y-16186198D01*
X6570063Y-16186198D02*
X6579587Y-16176674D01*
X6579587Y-16176674D02*
X6598634Y-16167150D01*
X6598634Y-16167150D02*
X6627206Y-16167150D01*
X6627206Y-16167150D02*
X6646253Y-16176674D01*
X6646253Y-16176674D02*
X6655777Y-16186198D01*
X6655777Y-16186198D02*
X6665301Y-16205246D01*
X6665301Y-16205246D02*
X6665301Y-16262388D01*
X6665301Y-16262388D02*
X6655777Y-16281436D01*
X6655777Y-16281436D02*
X6646253Y-16290960D01*
X6646253Y-16290960D02*
X6627206Y-16300484D01*
X6627206Y-16300484D02*
X6598634Y-16300484D01*
X6779587Y-16300484D02*
X6760539Y-16290960D01*
X6760539Y-16290960D02*
X6751015Y-16271912D01*
X6751015Y-16271912D02*
X6751015Y-16100484D01*
X6931968Y-16290960D02*
X6912920Y-16300484D01*
X6912920Y-16300484D02*
X6874825Y-16300484D01*
X6874825Y-16300484D02*
X6855777Y-16290960D01*
X6855777Y-16290960D02*
X6846253Y-16271912D01*
X6846253Y-16271912D02*
X6846253Y-16195722D01*
X6846253Y-16195722D02*
X6855777Y-16176674D01*
X6855777Y-16176674D02*
X6874825Y-16167150D01*
X6874825Y-16167150D02*
X6912920Y-16167150D01*
X6912920Y-16167150D02*
X6931968Y-16176674D01*
X6931968Y-16176674D02*
X6941491Y-16195722D01*
X6941491Y-16195722D02*
X6941491Y-16214769D01*
X6941491Y-16214769D02*
X6846253Y-16233817D01*
X7017682Y-16290960D02*
X7036730Y-16300484D01*
X7036730Y-16300484D02*
X7074825Y-16300484D01*
X7074825Y-16300484D02*
X7093872Y-16290960D01*
X7093872Y-16290960D02*
X7103396Y-16271912D01*
X7103396Y-16271912D02*
X7103396Y-16262388D01*
X7103396Y-16262388D02*
X7093872Y-16243341D01*
X7093872Y-16243341D02*
X7074825Y-16233817D01*
X7074825Y-16233817D02*
X7046253Y-16233817D01*
X7046253Y-16233817D02*
X7027206Y-16224293D01*
X7027206Y-16224293D02*
X7017682Y-16205246D01*
X7017682Y-16205246D02*
X7017682Y-16195722D01*
X7017682Y-16195722D02*
X7027206Y-16176674D01*
X7027206Y-16176674D02*
X7046253Y-16167150D01*
X7046253Y-16167150D02*
X7074825Y-16167150D01*
X7074825Y-16167150D02*
X7093872Y-16176674D01*
X7170063Y-16376674D02*
X7179587Y-16367150D01*
X7179587Y-16367150D02*
X7198634Y-16338579D01*
X7198634Y-16338579D02*
X7208158Y-16319531D01*
X7208158Y-16319531D02*
X7217682Y-16290960D01*
X7217682Y-16290960D02*
X7227206Y-16243341D01*
X7227206Y-16243341D02*
X7227206Y-16205246D01*
X7227206Y-16205246D02*
X7217682Y-16157627D01*
X7217682Y-16157627D02*
X7208158Y-16129055D01*
X7208158Y-16129055D02*
X7198634Y-16110008D01*
X7198634Y-16110008D02*
X7179587Y-16081436D01*
X7179587Y-16081436D02*
X7170063Y-16071912D01*
D10*
X2345000Y-16423000D02*
X2345000Y-16523000D01*
X2295000Y-16473000D02*
X2395000Y-16473000D01*
D11*
X2760539Y-16564484D02*
X2646253Y-16564484D01*
X2703396Y-16564484D02*
X2703396Y-16364484D01*
X2703396Y-16364484D02*
X2684348Y-16393055D01*
X2684348Y-16393055D02*
X2665301Y-16412103D01*
X2665301Y-16412103D02*
X2646253Y-16421627D01*
X2846253Y-16545436D02*
X2855777Y-16554960D01*
X2855777Y-16554960D02*
X2846253Y-16564484D01*
X2846253Y-16564484D02*
X2836729Y-16554960D01*
X2836729Y-16554960D02*
X2846253Y-16545436D01*
X2846253Y-16545436D02*
X2846253Y-16564484D01*
X2979586Y-16364484D02*
X2998634Y-16364484D01*
X2998634Y-16364484D02*
X3017682Y-16374008D01*
X3017682Y-16374008D02*
X3027205Y-16383531D01*
X3027205Y-16383531D02*
X3036729Y-16402579D01*
X3036729Y-16402579D02*
X3046253Y-16440674D01*
X3046253Y-16440674D02*
X3046253Y-16488293D01*
X3046253Y-16488293D02*
X3036729Y-16526388D01*
X3036729Y-16526388D02*
X3027205Y-16545436D01*
X3027205Y-16545436D02*
X3017682Y-16554960D01*
X3017682Y-16554960D02*
X2998634Y-16564484D01*
X2998634Y-16564484D02*
X2979586Y-16564484D01*
X2979586Y-16564484D02*
X2960539Y-16554960D01*
X2960539Y-16554960D02*
X2951015Y-16545436D01*
X2951015Y-16545436D02*
X2941491Y-16526388D01*
X2941491Y-16526388D02*
X2931967Y-16488293D01*
X2931967Y-16488293D02*
X2931967Y-16440674D01*
X2931967Y-16440674D02*
X2941491Y-16402579D01*
X2941491Y-16402579D02*
X2951015Y-16383531D01*
X2951015Y-16383531D02*
X2960539Y-16374008D01*
X2960539Y-16374008D02*
X2979586Y-16364484D01*
X3170062Y-16364484D02*
X3189110Y-16364484D01*
X3189110Y-16364484D02*
X3208158Y-16374008D01*
X3208158Y-16374008D02*
X3217682Y-16383531D01*
X3217682Y-16383531D02*
X3227205Y-16402579D01*
X3227205Y-16402579D02*
X3236729Y-16440674D01*
X3236729Y-16440674D02*
X3236729Y-16488293D01*
X3236729Y-16488293D02*
X3227205Y-16526388D01*
X3227205Y-16526388D02*
X3217682Y-16545436D01*
X3217682Y-16545436D02*
X3208158Y-16554960D01*
X3208158Y-16554960D02*
X3189110Y-16564484D01*
X3189110Y-16564484D02*
X3170062Y-16564484D01*
X3170062Y-16564484D02*
X3151015Y-16554960D01*
X3151015Y-16554960D02*
X3141491Y-16545436D01*
X3141491Y-16545436D02*
X3131967Y-16526388D01*
X3131967Y-16526388D02*
X3122443Y-16488293D01*
X3122443Y-16488293D02*
X3122443Y-16440674D01*
X3122443Y-16440674D02*
X3131967Y-16402579D01*
X3131967Y-16402579D02*
X3141491Y-16383531D01*
X3141491Y-16383531D02*
X3151015Y-16374008D01*
X3151015Y-16374008D02*
X3170062Y-16364484D01*
X3360539Y-16364484D02*
X3379586Y-16364484D01*
X3379586Y-16364484D02*
X3398634Y-16374008D01*
X3398634Y-16374008D02*
X3408158Y-16383531D01*
X3408158Y-16383531D02*
X3417682Y-16402579D01*
X3417682Y-16402579D02*
X3427205Y-16440674D01*
X3427205Y-16440674D02*
X3427205Y-16488293D01*
X3427205Y-16488293D02*
X3417682Y-16526388D01*
X3417682Y-16526388D02*
X3408158Y-16545436D01*
X3408158Y-16545436D02*
X3398634Y-16554960D01*
X3398634Y-16554960D02*
X3379586Y-16564484D01*
X3379586Y-16564484D02*
X3360539Y-16564484D01*
X3360539Y-16564484D02*
X3341491Y-16554960D01*
X3341491Y-16554960D02*
X3331967Y-16545436D01*
X3331967Y-16545436D02*
X3322443Y-16526388D01*
X3322443Y-16526388D02*
X3312920Y-16488293D01*
X3312920Y-16488293D02*
X3312920Y-16440674D01*
X3312920Y-16440674D02*
X3322443Y-16402579D01*
X3322443Y-16402579D02*
X3331967Y-16383531D01*
X3331967Y-16383531D02*
X3341491Y-16374008D01*
X3341491Y-16374008D02*
X3360539Y-16364484D01*
X3512920Y-16564484D02*
X3512920Y-16431150D01*
X3512920Y-16450198D02*
X3522443Y-16440674D01*
X3522443Y-16440674D02*
X3541491Y-16431150D01*
X3541491Y-16431150D02*
X3570063Y-16431150D01*
X3570063Y-16431150D02*
X3589110Y-16440674D01*
X3589110Y-16440674D02*
X3598634Y-16459722D01*
X3598634Y-16459722D02*
X3598634Y-16564484D01*
X3598634Y-16459722D02*
X3608158Y-16440674D01*
X3608158Y-16440674D02*
X3627205Y-16431150D01*
X3627205Y-16431150D02*
X3655777Y-16431150D01*
X3655777Y-16431150D02*
X3674824Y-16440674D01*
X3674824Y-16440674D02*
X3684348Y-16459722D01*
X3684348Y-16459722D02*
X3684348Y-16564484D01*
X3779586Y-16564484D02*
X3779586Y-16431150D01*
X3779586Y-16450198D02*
X3789110Y-16440674D01*
X3789110Y-16440674D02*
X3808158Y-16431150D01*
X3808158Y-16431150D02*
X3836729Y-16431150D01*
X3836729Y-16431150D02*
X3855777Y-16440674D01*
X3855777Y-16440674D02*
X3865301Y-16459722D01*
X3865301Y-16459722D02*
X3865301Y-16564484D01*
X3865301Y-16459722D02*
X3874824Y-16440674D01*
X3874824Y-16440674D02*
X3893872Y-16431150D01*
X3893872Y-16431150D02*
X3922443Y-16431150D01*
X3922443Y-16431150D02*
X3941491Y-16440674D01*
X3941491Y-16440674D02*
X3951015Y-16459722D01*
X3951015Y-16459722D02*
X3951015Y-16564484D01*
X4341491Y-16354960D02*
X4170063Y-16612103D01*
X4598634Y-16364484D02*
X4617682Y-16364484D01*
X4617682Y-16364484D02*
X4636729Y-16374008D01*
X4636729Y-16374008D02*
X4646253Y-16383531D01*
X4646253Y-16383531D02*
X4655777Y-16402579D01*
X4655777Y-16402579D02*
X4665301Y-16440674D01*
X4665301Y-16440674D02*
X4665301Y-16488293D01*
X4665301Y-16488293D02*
X4655777Y-16526388D01*
X4655777Y-16526388D02*
X4646253Y-16545436D01*
X4646253Y-16545436D02*
X4636729Y-16554960D01*
X4636729Y-16554960D02*
X4617682Y-16564484D01*
X4617682Y-16564484D02*
X4598634Y-16564484D01*
X4598634Y-16564484D02*
X4579587Y-16554960D01*
X4579587Y-16554960D02*
X4570063Y-16545436D01*
X4570063Y-16545436D02*
X4560539Y-16526388D01*
X4560539Y-16526388D02*
X4551015Y-16488293D01*
X4551015Y-16488293D02*
X4551015Y-16440674D01*
X4551015Y-16440674D02*
X4560539Y-16402579D01*
X4560539Y-16402579D02*
X4570063Y-16383531D01*
X4570063Y-16383531D02*
X4579587Y-16374008D01*
X4579587Y-16374008D02*
X4598634Y-16364484D01*
X4751015Y-16545436D02*
X4760539Y-16554960D01*
X4760539Y-16554960D02*
X4751015Y-16564484D01*
X4751015Y-16564484D02*
X4741491Y-16554960D01*
X4741491Y-16554960D02*
X4751015Y-16545436D01*
X4751015Y-16545436D02*
X4751015Y-16564484D01*
X4884348Y-16364484D02*
X4903396Y-16364484D01*
X4903396Y-16364484D02*
X4922444Y-16374008D01*
X4922444Y-16374008D02*
X4931968Y-16383531D01*
X4931968Y-16383531D02*
X4941491Y-16402579D01*
X4941491Y-16402579D02*
X4951015Y-16440674D01*
X4951015Y-16440674D02*
X4951015Y-16488293D01*
X4951015Y-16488293D02*
X4941491Y-16526388D01*
X4941491Y-16526388D02*
X4931968Y-16545436D01*
X4931968Y-16545436D02*
X4922444Y-16554960D01*
X4922444Y-16554960D02*
X4903396Y-16564484D01*
X4903396Y-16564484D02*
X4884348Y-16564484D01*
X4884348Y-16564484D02*
X4865301Y-16554960D01*
X4865301Y-16554960D02*
X4855777Y-16545436D01*
X4855777Y-16545436D02*
X4846253Y-16526388D01*
X4846253Y-16526388D02*
X4836729Y-16488293D01*
X4836729Y-16488293D02*
X4836729Y-16440674D01*
X4836729Y-16440674D02*
X4846253Y-16402579D01*
X4846253Y-16402579D02*
X4855777Y-16383531D01*
X4855777Y-16383531D02*
X4865301Y-16374008D01*
X4865301Y-16374008D02*
X4884348Y-16364484D01*
X5017682Y-16364484D02*
X5141491Y-16364484D01*
X5141491Y-16364484D02*
X5074825Y-16440674D01*
X5074825Y-16440674D02*
X5103396Y-16440674D01*
X5103396Y-16440674D02*
X5122444Y-16450198D01*
X5122444Y-16450198D02*
X5131968Y-16459722D01*
X5131968Y-16459722D02*
X5141491Y-16478769D01*
X5141491Y-16478769D02*
X5141491Y-16526388D01*
X5141491Y-16526388D02*
X5131968Y-16545436D01*
X5131968Y-16545436D02*
X5122444Y-16554960D01*
X5122444Y-16554960D02*
X5103396Y-16564484D01*
X5103396Y-16564484D02*
X5046253Y-16564484D01*
X5046253Y-16564484D02*
X5027206Y-16554960D01*
X5027206Y-16554960D02*
X5017682Y-16545436D01*
X5236729Y-16564484D02*
X5274825Y-16564484D01*
X5274825Y-16564484D02*
X5293872Y-16554960D01*
X5293872Y-16554960D02*
X5303396Y-16545436D01*
X5303396Y-16545436D02*
X5322444Y-16516865D01*
X5322444Y-16516865D02*
X5331968Y-16478769D01*
X5331968Y-16478769D02*
X5331968Y-16402579D01*
X5331968Y-16402579D02*
X5322444Y-16383531D01*
X5322444Y-16383531D02*
X5312920Y-16374008D01*
X5312920Y-16374008D02*
X5293872Y-16364484D01*
X5293872Y-16364484D02*
X5255777Y-16364484D01*
X5255777Y-16364484D02*
X5236729Y-16374008D01*
X5236729Y-16374008D02*
X5227206Y-16383531D01*
X5227206Y-16383531D02*
X5217682Y-16402579D01*
X5217682Y-16402579D02*
X5217682Y-16450198D01*
X5217682Y-16450198D02*
X5227206Y-16469246D01*
X5227206Y-16469246D02*
X5236729Y-16478769D01*
X5236729Y-16478769D02*
X5255777Y-16488293D01*
X5255777Y-16488293D02*
X5293872Y-16488293D01*
X5293872Y-16488293D02*
X5312920Y-16478769D01*
X5312920Y-16478769D02*
X5322444Y-16469246D01*
X5322444Y-16469246D02*
X5331968Y-16450198D01*
X5503396Y-16431150D02*
X5503396Y-16564484D01*
X5455777Y-16354960D02*
X5408158Y-16497817D01*
X5408158Y-16497817D02*
X5531968Y-16497817D01*
X5598634Y-16364484D02*
X5598634Y-16402579D01*
X5674825Y-16364484D02*
X5674825Y-16402579D01*
X5970063Y-16640674D02*
X5960539Y-16631150D01*
X5960539Y-16631150D02*
X5941491Y-16602579D01*
X5941491Y-16602579D02*
X5931968Y-16583531D01*
X5931968Y-16583531D02*
X5922444Y-16554960D01*
X5922444Y-16554960D02*
X5912920Y-16507341D01*
X5912920Y-16507341D02*
X5912920Y-16469246D01*
X5912920Y-16469246D02*
X5922444Y-16421627D01*
X5922444Y-16421627D02*
X5931968Y-16393055D01*
X5931968Y-16393055D02*
X5941491Y-16374008D01*
X5941491Y-16374008D02*
X5960539Y-16345436D01*
X5960539Y-16345436D02*
X5970063Y-16335912D01*
X6027206Y-16364484D02*
X6151015Y-16364484D01*
X6151015Y-16364484D02*
X6084348Y-16440674D01*
X6084348Y-16440674D02*
X6112920Y-16440674D01*
X6112920Y-16440674D02*
X6131968Y-16450198D01*
X6131968Y-16450198D02*
X6141491Y-16459722D01*
X6141491Y-16459722D02*
X6151015Y-16478769D01*
X6151015Y-16478769D02*
X6151015Y-16526388D01*
X6151015Y-16526388D02*
X6141491Y-16545436D01*
X6141491Y-16545436D02*
X6131968Y-16554960D01*
X6131968Y-16554960D02*
X6112920Y-16564484D01*
X6112920Y-16564484D02*
X6055777Y-16564484D01*
X6055777Y-16564484D02*
X6036729Y-16554960D01*
X6036729Y-16554960D02*
X6027206Y-16545436D01*
X6274825Y-16364484D02*
X6293872Y-16364484D01*
X6293872Y-16364484D02*
X6312920Y-16374008D01*
X6312920Y-16374008D02*
X6322444Y-16383531D01*
X6322444Y-16383531D02*
X6331968Y-16402579D01*
X6331968Y-16402579D02*
X6341491Y-16440674D01*
X6341491Y-16440674D02*
X6341491Y-16488293D01*
X6341491Y-16488293D02*
X6331968Y-16526388D01*
X6331968Y-16526388D02*
X6322444Y-16545436D01*
X6322444Y-16545436D02*
X6312920Y-16554960D01*
X6312920Y-16554960D02*
X6293872Y-16564484D01*
X6293872Y-16564484D02*
X6274825Y-16564484D01*
X6274825Y-16564484D02*
X6255777Y-16554960D01*
X6255777Y-16554960D02*
X6246253Y-16545436D01*
X6246253Y-16545436D02*
X6236729Y-16526388D01*
X6236729Y-16526388D02*
X6227206Y-16488293D01*
X6227206Y-16488293D02*
X6227206Y-16440674D01*
X6227206Y-16440674D02*
X6236729Y-16402579D01*
X6236729Y-16402579D02*
X6246253Y-16383531D01*
X6246253Y-16383531D02*
X6255777Y-16374008D01*
X6255777Y-16374008D02*
X6274825Y-16364484D01*
X6465301Y-16364484D02*
X6484349Y-16364484D01*
X6484349Y-16364484D02*
X6503396Y-16374008D01*
X6503396Y-16374008D02*
X6512920Y-16383531D01*
X6512920Y-16383531D02*
X6522444Y-16402579D01*
X6522444Y-16402579D02*
X6531968Y-16440674D01*
X6531968Y-16440674D02*
X6531968Y-16488293D01*
X6531968Y-16488293D02*
X6522444Y-16526388D01*
X6522444Y-16526388D02*
X6512920Y-16545436D01*
X6512920Y-16545436D02*
X6503396Y-16554960D01*
X6503396Y-16554960D02*
X6484349Y-16564484D01*
X6484349Y-16564484D02*
X6465301Y-16564484D01*
X6465301Y-16564484D02*
X6446253Y-16554960D01*
X6446253Y-16554960D02*
X6436729Y-16545436D01*
X6436729Y-16545436D02*
X6427206Y-16526388D01*
X6427206Y-16526388D02*
X6417682Y-16488293D01*
X6417682Y-16488293D02*
X6417682Y-16440674D01*
X6417682Y-16440674D02*
X6427206Y-16402579D01*
X6427206Y-16402579D02*
X6436729Y-16383531D01*
X6436729Y-16383531D02*
X6446253Y-16374008D01*
X6446253Y-16374008D02*
X6465301Y-16364484D01*
X6770063Y-16564484D02*
X6770063Y-16364484D01*
X6855777Y-16564484D02*
X6855777Y-16459722D01*
X6855777Y-16459722D02*
X6846253Y-16440674D01*
X6846253Y-16440674D02*
X6827206Y-16431150D01*
X6827206Y-16431150D02*
X6798634Y-16431150D01*
X6798634Y-16431150D02*
X6779587Y-16440674D01*
X6779587Y-16440674D02*
X6770063Y-16450198D01*
X6979587Y-16564484D02*
X6960539Y-16554960D01*
X6960539Y-16554960D02*
X6951015Y-16545436D01*
X6951015Y-16545436D02*
X6941491Y-16526388D01*
X6941491Y-16526388D02*
X6941491Y-16469246D01*
X6941491Y-16469246D02*
X6951015Y-16450198D01*
X6951015Y-16450198D02*
X6960539Y-16440674D01*
X6960539Y-16440674D02*
X6979587Y-16431150D01*
X6979587Y-16431150D02*
X7008158Y-16431150D01*
X7008158Y-16431150D02*
X7027206Y-16440674D01*
X7027206Y-16440674D02*
X7036730Y-16450198D01*
X7036730Y-16450198D02*
X7046253Y-16469246D01*
X7046253Y-16469246D02*
X7046253Y-16526388D01*
X7046253Y-16526388D02*
X7036730Y-16545436D01*
X7036730Y-16545436D02*
X7027206Y-16554960D01*
X7027206Y-16554960D02*
X7008158Y-16564484D01*
X7008158Y-16564484D02*
X6979587Y-16564484D01*
X7160539Y-16564484D02*
X7141491Y-16554960D01*
X7141491Y-16554960D02*
X7131968Y-16535912D01*
X7131968Y-16535912D02*
X7131968Y-16364484D01*
X7312920Y-16554960D02*
X7293872Y-16564484D01*
X7293872Y-16564484D02*
X7255777Y-16564484D01*
X7255777Y-16564484D02*
X7236730Y-16554960D01*
X7236730Y-16554960D02*
X7227206Y-16535912D01*
X7227206Y-16535912D02*
X7227206Y-16459722D01*
X7227206Y-16459722D02*
X7236730Y-16440674D01*
X7236730Y-16440674D02*
X7255777Y-16431150D01*
X7255777Y-16431150D02*
X7293872Y-16431150D01*
X7293872Y-16431150D02*
X7312920Y-16440674D01*
X7312920Y-16440674D02*
X7322444Y-16459722D01*
X7322444Y-16459722D02*
X7322444Y-16478769D01*
X7322444Y-16478769D02*
X7227206Y-16497817D01*
X7398634Y-16554960D02*
X7417682Y-16564484D01*
X7417682Y-16564484D02*
X7455777Y-16564484D01*
X7455777Y-16564484D02*
X7474825Y-16554960D01*
X7474825Y-16554960D02*
X7484349Y-16535912D01*
X7484349Y-16535912D02*
X7484349Y-16526388D01*
X7484349Y-16526388D02*
X7474825Y-16507341D01*
X7474825Y-16507341D02*
X7455777Y-16497817D01*
X7455777Y-16497817D02*
X7427206Y-16497817D01*
X7427206Y-16497817D02*
X7408158Y-16488293D01*
X7408158Y-16488293D02*
X7398634Y-16469246D01*
X7398634Y-16469246D02*
X7398634Y-16459722D01*
X7398634Y-16459722D02*
X7408158Y-16440674D01*
X7408158Y-16440674D02*
X7427206Y-16431150D01*
X7427206Y-16431150D02*
X7455777Y-16431150D01*
X7455777Y-16431150D02*
X7474825Y-16440674D01*
X7551015Y-16640674D02*
X7560539Y-16631150D01*
X7560539Y-16631150D02*
X7579587Y-16602579D01*
X7579587Y-16602579D02*
X7589111Y-16583531D01*
X7589111Y-16583531D02*
X7598634Y-16554960D01*
X7598634Y-16554960D02*
X7608158Y-16507341D01*
X7608158Y-16507341D02*
X7608158Y-16469246D01*
X7608158Y-16469246D02*
X7598634Y-16421627D01*
X7598634Y-16421627D02*
X7589111Y-16393055D01*
X7589111Y-16393055D02*
X7579587Y-16374008D01*
X7579587Y-16374008D02*
X7560539Y-16345436D01*
X7560539Y-16345436D02*
X7551015Y-16335912D01*
D12*
X2373034Y-16790034D02*
X2373034Y-16683966D01*
X2266967Y-16683966D01*
X2266967Y-16790034D01*
X2373034Y-16790034D01*
D11*
X2760539Y-16828484D02*
X2646253Y-16828484D01*
X2703396Y-16828484D02*
X2703396Y-16628484D01*
X2703396Y-16628484D02*
X2684348Y-16657055D01*
X2684348Y-16657055D02*
X2665301Y-16676103D01*
X2665301Y-16676103D02*
X2646253Y-16685627D01*
X2846253Y-16809436D02*
X2855777Y-16818960D01*
X2855777Y-16818960D02*
X2846253Y-16828484D01*
X2846253Y-16828484D02*
X2836729Y-16818960D01*
X2836729Y-16818960D02*
X2846253Y-16809436D01*
X2846253Y-16809436D02*
X2846253Y-16828484D01*
X3036729Y-16628484D02*
X2941491Y-16628484D01*
X2941491Y-16628484D02*
X2931967Y-16723722D01*
X2931967Y-16723722D02*
X2941491Y-16714198D01*
X2941491Y-16714198D02*
X2960539Y-16704674D01*
X2960539Y-16704674D02*
X3008158Y-16704674D01*
X3008158Y-16704674D02*
X3027205Y-16714198D01*
X3027205Y-16714198D02*
X3036729Y-16723722D01*
X3036729Y-16723722D02*
X3046253Y-16742769D01*
X3046253Y-16742769D02*
X3046253Y-16790389D01*
X3046253Y-16790389D02*
X3036729Y-16809436D01*
X3036729Y-16809436D02*
X3027205Y-16818960D01*
X3027205Y-16818960D02*
X3008158Y-16828484D01*
X3008158Y-16828484D02*
X2960539Y-16828484D01*
X2960539Y-16828484D02*
X2941491Y-16818960D01*
X2941491Y-16818960D02*
X2931967Y-16809436D01*
X3170062Y-16628484D02*
X3189110Y-16628484D01*
X3189110Y-16628484D02*
X3208158Y-16638008D01*
X3208158Y-16638008D02*
X3217682Y-16647531D01*
X3217682Y-16647531D02*
X3227205Y-16666579D01*
X3227205Y-16666579D02*
X3236729Y-16704674D01*
X3236729Y-16704674D02*
X3236729Y-16752293D01*
X3236729Y-16752293D02*
X3227205Y-16790389D01*
X3227205Y-16790389D02*
X3217682Y-16809436D01*
X3217682Y-16809436D02*
X3208158Y-16818960D01*
X3208158Y-16818960D02*
X3189110Y-16828484D01*
X3189110Y-16828484D02*
X3170062Y-16828484D01*
X3170062Y-16828484D02*
X3151015Y-16818960D01*
X3151015Y-16818960D02*
X3141491Y-16809436D01*
X3141491Y-16809436D02*
X3131967Y-16790389D01*
X3131967Y-16790389D02*
X3122443Y-16752293D01*
X3122443Y-16752293D02*
X3122443Y-16704674D01*
X3122443Y-16704674D02*
X3131967Y-16666579D01*
X3131967Y-16666579D02*
X3141491Y-16647531D01*
X3141491Y-16647531D02*
X3151015Y-16638008D01*
X3151015Y-16638008D02*
X3170062Y-16628484D01*
X3360539Y-16628484D02*
X3379586Y-16628484D01*
X3379586Y-16628484D02*
X3398634Y-16638008D01*
X3398634Y-16638008D02*
X3408158Y-16647531D01*
X3408158Y-16647531D02*
X3417682Y-16666579D01*
X3417682Y-16666579D02*
X3427205Y-16704674D01*
X3427205Y-16704674D02*
X3427205Y-16752293D01*
X3427205Y-16752293D02*
X3417682Y-16790389D01*
X3417682Y-16790389D02*
X3408158Y-16809436D01*
X3408158Y-16809436D02*
X3398634Y-16818960D01*
X3398634Y-16818960D02*
X3379586Y-16828484D01*
X3379586Y-16828484D02*
X3360539Y-16828484D01*
X3360539Y-16828484D02*
X3341491Y-16818960D01*
X3341491Y-16818960D02*
X3331967Y-16809436D01*
X3331967Y-16809436D02*
X3322443Y-16790389D01*
X3322443Y-16790389D02*
X3312920Y-16752293D01*
X3312920Y-16752293D02*
X3312920Y-16704674D01*
X3312920Y-16704674D02*
X3322443Y-16666579D01*
X3322443Y-16666579D02*
X3331967Y-16647531D01*
X3331967Y-16647531D02*
X3341491Y-16638008D01*
X3341491Y-16638008D02*
X3360539Y-16628484D01*
X3512920Y-16828484D02*
X3512920Y-16695150D01*
X3512920Y-16714198D02*
X3522443Y-16704674D01*
X3522443Y-16704674D02*
X3541491Y-16695150D01*
X3541491Y-16695150D02*
X3570063Y-16695150D01*
X3570063Y-16695150D02*
X3589110Y-16704674D01*
X3589110Y-16704674D02*
X3598634Y-16723722D01*
X3598634Y-16723722D02*
X3598634Y-16828484D01*
X3598634Y-16723722D02*
X3608158Y-16704674D01*
X3608158Y-16704674D02*
X3627205Y-16695150D01*
X3627205Y-16695150D02*
X3655777Y-16695150D01*
X3655777Y-16695150D02*
X3674824Y-16704674D01*
X3674824Y-16704674D02*
X3684348Y-16723722D01*
X3684348Y-16723722D02*
X3684348Y-16828484D01*
X3779586Y-16828484D02*
X3779586Y-16695150D01*
X3779586Y-16714198D02*
X3789110Y-16704674D01*
X3789110Y-16704674D02*
X3808158Y-16695150D01*
X3808158Y-16695150D02*
X3836729Y-16695150D01*
X3836729Y-16695150D02*
X3855777Y-16704674D01*
X3855777Y-16704674D02*
X3865301Y-16723722D01*
X3865301Y-16723722D02*
X3865301Y-16828484D01*
X3865301Y-16723722D02*
X3874824Y-16704674D01*
X3874824Y-16704674D02*
X3893872Y-16695150D01*
X3893872Y-16695150D02*
X3922443Y-16695150D01*
X3922443Y-16695150D02*
X3941491Y-16704674D01*
X3941491Y-16704674D02*
X3951015Y-16723722D01*
X3951015Y-16723722D02*
X3951015Y-16828484D01*
X4341491Y-16618960D02*
X4170063Y-16876103D01*
X4598634Y-16628484D02*
X4617682Y-16628484D01*
X4617682Y-16628484D02*
X4636729Y-16638008D01*
X4636729Y-16638008D02*
X4646253Y-16647531D01*
X4646253Y-16647531D02*
X4655777Y-16666579D01*
X4655777Y-16666579D02*
X4665301Y-16704674D01*
X4665301Y-16704674D02*
X4665301Y-16752293D01*
X4665301Y-16752293D02*
X4655777Y-16790389D01*
X4655777Y-16790389D02*
X4646253Y-16809436D01*
X4646253Y-16809436D02*
X4636729Y-16818960D01*
X4636729Y-16818960D02*
X4617682Y-16828484D01*
X4617682Y-16828484D02*
X4598634Y-16828484D01*
X4598634Y-16828484D02*
X4579587Y-16818960D01*
X4579587Y-16818960D02*
X4570063Y-16809436D01*
X4570063Y-16809436D02*
X4560539Y-16790389D01*
X4560539Y-16790389D02*
X4551015Y-16752293D01*
X4551015Y-16752293D02*
X4551015Y-16704674D01*
X4551015Y-16704674D02*
X4560539Y-16666579D01*
X4560539Y-16666579D02*
X4570063Y-16647531D01*
X4570063Y-16647531D02*
X4579587Y-16638008D01*
X4579587Y-16638008D02*
X4598634Y-16628484D01*
X4751015Y-16809436D02*
X4760539Y-16818960D01*
X4760539Y-16818960D02*
X4751015Y-16828484D01*
X4751015Y-16828484D02*
X4741491Y-16818960D01*
X4741491Y-16818960D02*
X4751015Y-16809436D01*
X4751015Y-16809436D02*
X4751015Y-16828484D01*
X4884348Y-16628484D02*
X4903396Y-16628484D01*
X4903396Y-16628484D02*
X4922444Y-16638008D01*
X4922444Y-16638008D02*
X4931968Y-16647531D01*
X4931968Y-16647531D02*
X4941491Y-16666579D01*
X4941491Y-16666579D02*
X4951015Y-16704674D01*
X4951015Y-16704674D02*
X4951015Y-16752293D01*
X4951015Y-16752293D02*
X4941491Y-16790389D01*
X4941491Y-16790389D02*
X4931968Y-16809436D01*
X4931968Y-16809436D02*
X4922444Y-16818960D01*
X4922444Y-16818960D02*
X4903396Y-16828484D01*
X4903396Y-16828484D02*
X4884348Y-16828484D01*
X4884348Y-16828484D02*
X4865301Y-16818960D01*
X4865301Y-16818960D02*
X4855777Y-16809436D01*
X4855777Y-16809436D02*
X4846253Y-16790389D01*
X4846253Y-16790389D02*
X4836729Y-16752293D01*
X4836729Y-16752293D02*
X4836729Y-16704674D01*
X4836729Y-16704674D02*
X4846253Y-16666579D01*
X4846253Y-16666579D02*
X4855777Y-16647531D01*
X4855777Y-16647531D02*
X4865301Y-16638008D01*
X4865301Y-16638008D02*
X4884348Y-16628484D01*
X5131968Y-16628484D02*
X5036729Y-16628484D01*
X5036729Y-16628484D02*
X5027206Y-16723722D01*
X5027206Y-16723722D02*
X5036729Y-16714198D01*
X5036729Y-16714198D02*
X5055777Y-16704674D01*
X5055777Y-16704674D02*
X5103396Y-16704674D01*
X5103396Y-16704674D02*
X5122444Y-16714198D01*
X5122444Y-16714198D02*
X5131968Y-16723722D01*
X5131968Y-16723722D02*
X5141491Y-16742769D01*
X5141491Y-16742769D02*
X5141491Y-16790389D01*
X5141491Y-16790389D02*
X5131968Y-16809436D01*
X5131968Y-16809436D02*
X5122444Y-16818960D01*
X5122444Y-16818960D02*
X5103396Y-16828484D01*
X5103396Y-16828484D02*
X5055777Y-16828484D01*
X5055777Y-16828484D02*
X5036729Y-16818960D01*
X5036729Y-16818960D02*
X5027206Y-16809436D01*
X5236729Y-16828484D02*
X5274825Y-16828484D01*
X5274825Y-16828484D02*
X5293872Y-16818960D01*
X5293872Y-16818960D02*
X5303396Y-16809436D01*
X5303396Y-16809436D02*
X5322444Y-16780865D01*
X5322444Y-16780865D02*
X5331968Y-16742769D01*
X5331968Y-16742769D02*
X5331968Y-16666579D01*
X5331968Y-16666579D02*
X5322444Y-16647531D01*
X5322444Y-16647531D02*
X5312920Y-16638008D01*
X5312920Y-16638008D02*
X5293872Y-16628484D01*
X5293872Y-16628484D02*
X5255777Y-16628484D01*
X5255777Y-16628484D02*
X5236729Y-16638008D01*
X5236729Y-16638008D02*
X5227206Y-16647531D01*
X5227206Y-16647531D02*
X5217682Y-16666579D01*
X5217682Y-16666579D02*
X5217682Y-16714198D01*
X5217682Y-16714198D02*
X5227206Y-16733246D01*
X5227206Y-16733246D02*
X5236729Y-16742769D01*
X5236729Y-16742769D02*
X5255777Y-16752293D01*
X5255777Y-16752293D02*
X5293872Y-16752293D01*
X5293872Y-16752293D02*
X5312920Y-16742769D01*
X5312920Y-16742769D02*
X5322444Y-16733246D01*
X5322444Y-16733246D02*
X5331968Y-16714198D01*
X5522444Y-16828484D02*
X5408158Y-16828484D01*
X5465301Y-16828484D02*
X5465301Y-16628484D01*
X5465301Y-16628484D02*
X5446253Y-16657055D01*
X5446253Y-16657055D02*
X5427206Y-16676103D01*
X5427206Y-16676103D02*
X5408158Y-16685627D01*
X5598634Y-16628484D02*
X5598634Y-16666579D01*
X5674825Y-16628484D02*
X5674825Y-16666579D01*
X5970063Y-16904674D02*
X5960539Y-16895150D01*
X5960539Y-16895150D02*
X5941491Y-16866579D01*
X5941491Y-16866579D02*
X5931968Y-16847531D01*
X5931968Y-16847531D02*
X5922444Y-16818960D01*
X5922444Y-16818960D02*
X5912920Y-16771341D01*
X5912920Y-16771341D02*
X5912920Y-16733246D01*
X5912920Y-16733246D02*
X5922444Y-16685627D01*
X5922444Y-16685627D02*
X5931968Y-16657055D01*
X5931968Y-16657055D02*
X5941491Y-16638008D01*
X5941491Y-16638008D02*
X5960539Y-16609436D01*
X5960539Y-16609436D02*
X5970063Y-16599912D01*
X6036729Y-16647531D02*
X6046253Y-16638008D01*
X6046253Y-16638008D02*
X6065301Y-16628484D01*
X6065301Y-16628484D02*
X6112920Y-16628484D01*
X6112920Y-16628484D02*
X6131968Y-16638008D01*
X6131968Y-16638008D02*
X6141491Y-16647531D01*
X6141491Y-16647531D02*
X6151015Y-16666579D01*
X6151015Y-16666579D02*
X6151015Y-16685627D01*
X6151015Y-16685627D02*
X6141491Y-16714198D01*
X6141491Y-16714198D02*
X6027206Y-16828484D01*
X6027206Y-16828484D02*
X6151015Y-16828484D01*
X6389110Y-16828484D02*
X6389110Y-16628484D01*
X6474825Y-16828484D02*
X6474825Y-16723722D01*
X6474825Y-16723722D02*
X6465301Y-16704674D01*
X6465301Y-16704674D02*
X6446253Y-16695150D01*
X6446253Y-16695150D02*
X6417682Y-16695150D01*
X6417682Y-16695150D02*
X6398634Y-16704674D01*
X6398634Y-16704674D02*
X6389110Y-16714198D01*
X6598634Y-16828484D02*
X6579587Y-16818960D01*
X6579587Y-16818960D02*
X6570063Y-16809436D01*
X6570063Y-16809436D02*
X6560539Y-16790389D01*
X6560539Y-16790389D02*
X6560539Y-16733246D01*
X6560539Y-16733246D02*
X6570063Y-16714198D01*
X6570063Y-16714198D02*
X6579587Y-16704674D01*
X6579587Y-16704674D02*
X6598634Y-16695150D01*
X6598634Y-16695150D02*
X6627206Y-16695150D01*
X6627206Y-16695150D02*
X6646253Y-16704674D01*
X6646253Y-16704674D02*
X6655777Y-16714198D01*
X6655777Y-16714198D02*
X6665301Y-16733246D01*
X6665301Y-16733246D02*
X6665301Y-16790389D01*
X6665301Y-16790389D02*
X6655777Y-16809436D01*
X6655777Y-16809436D02*
X6646253Y-16818960D01*
X6646253Y-16818960D02*
X6627206Y-16828484D01*
X6627206Y-16828484D02*
X6598634Y-16828484D01*
X6779587Y-16828484D02*
X6760539Y-16818960D01*
X6760539Y-16818960D02*
X6751015Y-16799912D01*
X6751015Y-16799912D02*
X6751015Y-16628484D01*
X6931968Y-16818960D02*
X6912920Y-16828484D01*
X6912920Y-16828484D02*
X6874825Y-16828484D01*
X6874825Y-16828484D02*
X6855777Y-16818960D01*
X6855777Y-16818960D02*
X6846253Y-16799912D01*
X6846253Y-16799912D02*
X6846253Y-16723722D01*
X6846253Y-16723722D02*
X6855777Y-16704674D01*
X6855777Y-16704674D02*
X6874825Y-16695150D01*
X6874825Y-16695150D02*
X6912920Y-16695150D01*
X6912920Y-16695150D02*
X6931968Y-16704674D01*
X6931968Y-16704674D02*
X6941491Y-16723722D01*
X6941491Y-16723722D02*
X6941491Y-16742769D01*
X6941491Y-16742769D02*
X6846253Y-16761817D01*
X7017682Y-16818960D02*
X7036730Y-16828484D01*
X7036730Y-16828484D02*
X7074825Y-16828484D01*
X7074825Y-16828484D02*
X7093872Y-16818960D01*
X7093872Y-16818960D02*
X7103396Y-16799912D01*
X7103396Y-16799912D02*
X7103396Y-16790389D01*
X7103396Y-16790389D02*
X7093872Y-16771341D01*
X7093872Y-16771341D02*
X7074825Y-16761817D01*
X7074825Y-16761817D02*
X7046253Y-16761817D01*
X7046253Y-16761817D02*
X7027206Y-16752293D01*
X7027206Y-16752293D02*
X7017682Y-16733246D01*
X7017682Y-16733246D02*
X7017682Y-16723722D01*
X7017682Y-16723722D02*
X7027206Y-16704674D01*
X7027206Y-16704674D02*
X7046253Y-16695150D01*
X7046253Y-16695150D02*
X7074825Y-16695150D01*
X7074825Y-16695150D02*
X7093872Y-16704674D01*
X7170063Y-16904674D02*
X7179587Y-16895150D01*
X7179587Y-16895150D02*
X7198634Y-16866579D01*
X7198634Y-16866579D02*
X7208158Y-16847531D01*
X7208158Y-16847531D02*
X7217682Y-16818960D01*
X7217682Y-16818960D02*
X7227206Y-16771341D01*
X7227206Y-16771341D02*
X7227206Y-16733246D01*
X7227206Y-16733246D02*
X7217682Y-16685627D01*
X7217682Y-16685627D02*
X7208158Y-16657055D01*
X7208158Y-16657055D02*
X7198634Y-16638008D01*
X7198634Y-16638008D02*
X7179587Y-16609436D01*
X7179587Y-16609436D02*
X7170063Y-16599912D01*
X2295000Y-17107000D02*
X2395000Y-17007000D01*
X2295000Y-16907000D01*
X2195000Y-17007000D01*
X2295000Y-17107000D01*
X2646253Y-16917531D02*
X2655777Y-16908008D01*
X2655777Y-16908008D02*
X2674824Y-16898484D01*
X2674824Y-16898484D02*
X2722444Y-16898484D01*
X2722444Y-16898484D02*
X2741491Y-16908008D01*
X2741491Y-16908008D02*
X2751015Y-16917531D01*
X2751015Y-16917531D02*
X2760539Y-16936579D01*
X2760539Y-16936579D02*
X2760539Y-16955627D01*
X2760539Y-16955627D02*
X2751015Y-16984198D01*
X2751015Y-16984198D02*
X2636729Y-17098484D01*
X2636729Y-17098484D02*
X2760539Y-17098484D01*
X2846253Y-17079436D02*
X2855777Y-17088960D01*
X2855777Y-17088960D02*
X2846253Y-17098484D01*
X2846253Y-17098484D02*
X2836729Y-17088960D01*
X2836729Y-17088960D02*
X2846253Y-17079436D01*
X2846253Y-17079436D02*
X2846253Y-17098484D01*
X3036729Y-16898484D02*
X2941491Y-16898484D01*
X2941491Y-16898484D02*
X2931967Y-16993722D01*
X2931967Y-16993722D02*
X2941491Y-16984198D01*
X2941491Y-16984198D02*
X2960539Y-16974674D01*
X2960539Y-16974674D02*
X3008158Y-16974674D01*
X3008158Y-16974674D02*
X3027205Y-16984198D01*
X3027205Y-16984198D02*
X3036729Y-16993722D01*
X3036729Y-16993722D02*
X3046253Y-17012770D01*
X3046253Y-17012770D02*
X3046253Y-17060389D01*
X3046253Y-17060389D02*
X3036729Y-17079436D01*
X3036729Y-17079436D02*
X3027205Y-17088960D01*
X3027205Y-17088960D02*
X3008158Y-17098484D01*
X3008158Y-17098484D02*
X2960539Y-17098484D01*
X2960539Y-17098484D02*
X2941491Y-17088960D01*
X2941491Y-17088960D02*
X2931967Y-17079436D01*
X3170062Y-16898484D02*
X3189110Y-16898484D01*
X3189110Y-16898484D02*
X3208158Y-16908008D01*
X3208158Y-16908008D02*
X3217682Y-16917531D01*
X3217682Y-16917531D02*
X3227205Y-16936579D01*
X3227205Y-16936579D02*
X3236729Y-16974674D01*
X3236729Y-16974674D02*
X3236729Y-17022293D01*
X3236729Y-17022293D02*
X3227205Y-17060389D01*
X3227205Y-17060389D02*
X3217682Y-17079436D01*
X3217682Y-17079436D02*
X3208158Y-17088960D01*
X3208158Y-17088960D02*
X3189110Y-17098484D01*
X3189110Y-17098484D02*
X3170062Y-17098484D01*
X3170062Y-17098484D02*
X3151015Y-17088960D01*
X3151015Y-17088960D02*
X3141491Y-17079436D01*
X3141491Y-17079436D02*
X3131967Y-17060389D01*
X3131967Y-17060389D02*
X3122443Y-17022293D01*
X3122443Y-17022293D02*
X3122443Y-16974674D01*
X3122443Y-16974674D02*
X3131967Y-16936579D01*
X3131967Y-16936579D02*
X3141491Y-16917531D01*
X3141491Y-16917531D02*
X3151015Y-16908008D01*
X3151015Y-16908008D02*
X3170062Y-16898484D01*
X3360539Y-16898484D02*
X3379586Y-16898484D01*
X3379586Y-16898484D02*
X3398634Y-16908008D01*
X3398634Y-16908008D02*
X3408158Y-16917531D01*
X3408158Y-16917531D02*
X3417682Y-16936579D01*
X3417682Y-16936579D02*
X3427205Y-16974674D01*
X3427205Y-16974674D02*
X3427205Y-17022293D01*
X3427205Y-17022293D02*
X3417682Y-17060389D01*
X3417682Y-17060389D02*
X3408158Y-17079436D01*
X3408158Y-17079436D02*
X3398634Y-17088960D01*
X3398634Y-17088960D02*
X3379586Y-17098484D01*
X3379586Y-17098484D02*
X3360539Y-17098484D01*
X3360539Y-17098484D02*
X3341491Y-17088960D01*
X3341491Y-17088960D02*
X3331967Y-17079436D01*
X3331967Y-17079436D02*
X3322443Y-17060389D01*
X3322443Y-17060389D02*
X3312920Y-17022293D01*
X3312920Y-17022293D02*
X3312920Y-16974674D01*
X3312920Y-16974674D02*
X3322443Y-16936579D01*
X3322443Y-16936579D02*
X3331967Y-16917531D01*
X3331967Y-16917531D02*
X3341491Y-16908008D01*
X3341491Y-16908008D02*
X3360539Y-16898484D01*
X3512920Y-17098484D02*
X3512920Y-16965150D01*
X3512920Y-16984198D02*
X3522443Y-16974674D01*
X3522443Y-16974674D02*
X3541491Y-16965150D01*
X3541491Y-16965150D02*
X3570063Y-16965150D01*
X3570063Y-16965150D02*
X3589110Y-16974674D01*
X3589110Y-16974674D02*
X3598634Y-16993722D01*
X3598634Y-16993722D02*
X3598634Y-17098484D01*
X3598634Y-16993722D02*
X3608158Y-16974674D01*
X3608158Y-16974674D02*
X3627205Y-16965150D01*
X3627205Y-16965150D02*
X3655777Y-16965150D01*
X3655777Y-16965150D02*
X3674824Y-16974674D01*
X3674824Y-16974674D02*
X3684348Y-16993722D01*
X3684348Y-16993722D02*
X3684348Y-17098484D01*
X3779586Y-17098484D02*
X3779586Y-16965150D01*
X3779586Y-16984198D02*
X3789110Y-16974674D01*
X3789110Y-16974674D02*
X3808158Y-16965150D01*
X3808158Y-16965150D02*
X3836729Y-16965150D01*
X3836729Y-16965150D02*
X3855777Y-16974674D01*
X3855777Y-16974674D02*
X3865301Y-16993722D01*
X3865301Y-16993722D02*
X3865301Y-17098484D01*
X3865301Y-16993722D02*
X3874824Y-16974674D01*
X3874824Y-16974674D02*
X3893872Y-16965150D01*
X3893872Y-16965150D02*
X3922443Y-16965150D01*
X3922443Y-16965150D02*
X3941491Y-16974674D01*
X3941491Y-16974674D02*
X3951015Y-16993722D01*
X3951015Y-16993722D02*
X3951015Y-17098484D01*
X4341491Y-16888960D02*
X4170063Y-17146103D01*
X4598634Y-16898484D02*
X4617682Y-16898484D01*
X4617682Y-16898484D02*
X4636729Y-16908008D01*
X4636729Y-16908008D02*
X4646253Y-16917531D01*
X4646253Y-16917531D02*
X4655777Y-16936579D01*
X4655777Y-16936579D02*
X4665301Y-16974674D01*
X4665301Y-16974674D02*
X4665301Y-17022293D01*
X4665301Y-17022293D02*
X4655777Y-17060389D01*
X4655777Y-17060389D02*
X4646253Y-17079436D01*
X4646253Y-17079436D02*
X4636729Y-17088960D01*
X4636729Y-17088960D02*
X4617682Y-17098484D01*
X4617682Y-17098484D02*
X4598634Y-17098484D01*
X4598634Y-17098484D02*
X4579587Y-17088960D01*
X4579587Y-17088960D02*
X4570063Y-17079436D01*
X4570063Y-17079436D02*
X4560539Y-17060389D01*
X4560539Y-17060389D02*
X4551015Y-17022293D01*
X4551015Y-17022293D02*
X4551015Y-16974674D01*
X4551015Y-16974674D02*
X4560539Y-16936579D01*
X4560539Y-16936579D02*
X4570063Y-16917531D01*
X4570063Y-16917531D02*
X4579587Y-16908008D01*
X4579587Y-16908008D02*
X4598634Y-16898484D01*
X4751015Y-17079436D02*
X4760539Y-17088960D01*
X4760539Y-17088960D02*
X4751015Y-17098484D01*
X4751015Y-17098484D02*
X4741491Y-17088960D01*
X4741491Y-17088960D02*
X4751015Y-17079436D01*
X4751015Y-17079436D02*
X4751015Y-17098484D01*
X4884348Y-16898484D02*
X4903396Y-16898484D01*
X4903396Y-16898484D02*
X4922444Y-16908008D01*
X4922444Y-16908008D02*
X4931968Y-16917531D01*
X4931968Y-16917531D02*
X4941491Y-16936579D01*
X4941491Y-16936579D02*
X4951015Y-16974674D01*
X4951015Y-16974674D02*
X4951015Y-17022293D01*
X4951015Y-17022293D02*
X4941491Y-17060389D01*
X4941491Y-17060389D02*
X4931968Y-17079436D01*
X4931968Y-17079436D02*
X4922444Y-17088960D01*
X4922444Y-17088960D02*
X4903396Y-17098484D01*
X4903396Y-17098484D02*
X4884348Y-17098484D01*
X4884348Y-17098484D02*
X4865301Y-17088960D01*
X4865301Y-17088960D02*
X4855777Y-17079436D01*
X4855777Y-17079436D02*
X4846253Y-17060389D01*
X4846253Y-17060389D02*
X4836729Y-17022293D01*
X4836729Y-17022293D02*
X4836729Y-16974674D01*
X4836729Y-16974674D02*
X4846253Y-16936579D01*
X4846253Y-16936579D02*
X4855777Y-16917531D01*
X4855777Y-16917531D02*
X4865301Y-16908008D01*
X4865301Y-16908008D02*
X4884348Y-16898484D01*
X5046253Y-17098484D02*
X5084348Y-17098484D01*
X5084348Y-17098484D02*
X5103396Y-17088960D01*
X5103396Y-17088960D02*
X5112920Y-17079436D01*
X5112920Y-17079436D02*
X5131968Y-17050865D01*
X5131968Y-17050865D02*
X5141491Y-17012770D01*
X5141491Y-17012770D02*
X5141491Y-16936579D01*
X5141491Y-16936579D02*
X5131968Y-16917531D01*
X5131968Y-16917531D02*
X5122444Y-16908008D01*
X5122444Y-16908008D02*
X5103396Y-16898484D01*
X5103396Y-16898484D02*
X5065301Y-16898484D01*
X5065301Y-16898484D02*
X5046253Y-16908008D01*
X5046253Y-16908008D02*
X5036729Y-16917531D01*
X5036729Y-16917531D02*
X5027206Y-16936579D01*
X5027206Y-16936579D02*
X5027206Y-16984198D01*
X5027206Y-16984198D02*
X5036729Y-17003246D01*
X5036729Y-17003246D02*
X5046253Y-17012770D01*
X5046253Y-17012770D02*
X5065301Y-17022293D01*
X5065301Y-17022293D02*
X5103396Y-17022293D01*
X5103396Y-17022293D02*
X5122444Y-17012770D01*
X5122444Y-17012770D02*
X5131968Y-17003246D01*
X5131968Y-17003246D02*
X5141491Y-16984198D01*
X5255777Y-16984198D02*
X5236729Y-16974674D01*
X5236729Y-16974674D02*
X5227206Y-16965150D01*
X5227206Y-16965150D02*
X5217682Y-16946103D01*
X5217682Y-16946103D02*
X5217682Y-16936579D01*
X5217682Y-16936579D02*
X5227206Y-16917531D01*
X5227206Y-16917531D02*
X5236729Y-16908008D01*
X5236729Y-16908008D02*
X5255777Y-16898484D01*
X5255777Y-16898484D02*
X5293872Y-16898484D01*
X5293872Y-16898484D02*
X5312920Y-16908008D01*
X5312920Y-16908008D02*
X5322444Y-16917531D01*
X5322444Y-16917531D02*
X5331968Y-16936579D01*
X5331968Y-16936579D02*
X5331968Y-16946103D01*
X5331968Y-16946103D02*
X5322444Y-16965150D01*
X5322444Y-16965150D02*
X5312920Y-16974674D01*
X5312920Y-16974674D02*
X5293872Y-16984198D01*
X5293872Y-16984198D02*
X5255777Y-16984198D01*
X5255777Y-16984198D02*
X5236729Y-16993722D01*
X5236729Y-16993722D02*
X5227206Y-17003246D01*
X5227206Y-17003246D02*
X5217682Y-17022293D01*
X5217682Y-17022293D02*
X5217682Y-17060389D01*
X5217682Y-17060389D02*
X5227206Y-17079436D01*
X5227206Y-17079436D02*
X5236729Y-17088960D01*
X5236729Y-17088960D02*
X5255777Y-17098484D01*
X5255777Y-17098484D02*
X5293872Y-17098484D01*
X5293872Y-17098484D02*
X5312920Y-17088960D01*
X5312920Y-17088960D02*
X5322444Y-17079436D01*
X5322444Y-17079436D02*
X5331968Y-17060389D01*
X5331968Y-17060389D02*
X5331968Y-17022293D01*
X5331968Y-17022293D02*
X5322444Y-17003246D01*
X5322444Y-17003246D02*
X5312920Y-16993722D01*
X5312920Y-16993722D02*
X5293872Y-16984198D01*
X5503396Y-16965150D02*
X5503396Y-17098484D01*
X5455777Y-16888960D02*
X5408158Y-17031817D01*
X5408158Y-17031817D02*
X5531968Y-17031817D01*
X5598634Y-16898484D02*
X5598634Y-16936579D01*
X5674825Y-16898484D02*
X5674825Y-16936579D01*
X5970063Y-17174674D02*
X5960539Y-17165150D01*
X5960539Y-17165150D02*
X5941491Y-17136579D01*
X5941491Y-17136579D02*
X5931968Y-17117531D01*
X5931968Y-17117531D02*
X5922444Y-17088960D01*
X5922444Y-17088960D02*
X5912920Y-17041341D01*
X5912920Y-17041341D02*
X5912920Y-17003246D01*
X5912920Y-17003246D02*
X5922444Y-16955627D01*
X5922444Y-16955627D02*
X5931968Y-16927055D01*
X5931968Y-16927055D02*
X5941491Y-16908008D01*
X5941491Y-16908008D02*
X5960539Y-16879436D01*
X5960539Y-16879436D02*
X5970063Y-16869912D01*
X6131968Y-16898484D02*
X6093872Y-16898484D01*
X6093872Y-16898484D02*
X6074825Y-16908008D01*
X6074825Y-16908008D02*
X6065301Y-16917531D01*
X6065301Y-16917531D02*
X6046253Y-16946103D01*
X6046253Y-16946103D02*
X6036729Y-16984198D01*
X6036729Y-16984198D02*
X6036729Y-17060389D01*
X6036729Y-17060389D02*
X6046253Y-17079436D01*
X6046253Y-17079436D02*
X6055777Y-17088960D01*
X6055777Y-17088960D02*
X6074825Y-17098484D01*
X6074825Y-17098484D02*
X6112920Y-17098484D01*
X6112920Y-17098484D02*
X6131968Y-17088960D01*
X6131968Y-17088960D02*
X6141491Y-17079436D01*
X6141491Y-17079436D02*
X6151015Y-17060389D01*
X6151015Y-17060389D02*
X6151015Y-17012770D01*
X6151015Y-17012770D02*
X6141491Y-16993722D01*
X6141491Y-16993722D02*
X6131968Y-16984198D01*
X6131968Y-16984198D02*
X6112920Y-16974674D01*
X6112920Y-16974674D02*
X6074825Y-16974674D01*
X6074825Y-16974674D02*
X6055777Y-16984198D01*
X6055777Y-16984198D02*
X6046253Y-16993722D01*
X6046253Y-16993722D02*
X6036729Y-17012770D01*
X6389110Y-17098484D02*
X6389110Y-16898484D01*
X6474825Y-17098484D02*
X6474825Y-16993722D01*
X6474825Y-16993722D02*
X6465301Y-16974674D01*
X6465301Y-16974674D02*
X6446253Y-16965150D01*
X6446253Y-16965150D02*
X6417682Y-16965150D01*
X6417682Y-16965150D02*
X6398634Y-16974674D01*
X6398634Y-16974674D02*
X6389110Y-16984198D01*
X6598634Y-17098484D02*
X6579587Y-17088960D01*
X6579587Y-17088960D02*
X6570063Y-17079436D01*
X6570063Y-17079436D02*
X6560539Y-17060389D01*
X6560539Y-17060389D02*
X6560539Y-17003246D01*
X6560539Y-17003246D02*
X6570063Y-16984198D01*
X6570063Y-16984198D02*
X6579587Y-16974674D01*
X6579587Y-16974674D02*
X6598634Y-16965150D01*
X6598634Y-16965150D02*
X6627206Y-16965150D01*
X6627206Y-16965150D02*
X6646253Y-16974674D01*
X6646253Y-16974674D02*
X6655777Y-16984198D01*
X6655777Y-16984198D02*
X6665301Y-17003246D01*
X6665301Y-17003246D02*
X6665301Y-17060389D01*
X6665301Y-17060389D02*
X6655777Y-17079436D01*
X6655777Y-17079436D02*
X6646253Y-17088960D01*
X6646253Y-17088960D02*
X6627206Y-17098484D01*
X6627206Y-17098484D02*
X6598634Y-17098484D01*
X6779587Y-17098484D02*
X6760539Y-17088960D01*
X6760539Y-17088960D02*
X6751015Y-17069912D01*
X6751015Y-17069912D02*
X6751015Y-16898484D01*
X6931968Y-17088960D02*
X6912920Y-17098484D01*
X6912920Y-17098484D02*
X6874825Y-17098484D01*
X6874825Y-17098484D02*
X6855777Y-17088960D01*
X6855777Y-17088960D02*
X6846253Y-17069912D01*
X6846253Y-17069912D02*
X6846253Y-16993722D01*
X6846253Y-16993722D02*
X6855777Y-16974674D01*
X6855777Y-16974674D02*
X6874825Y-16965150D01*
X6874825Y-16965150D02*
X6912920Y-16965150D01*
X6912920Y-16965150D02*
X6931968Y-16974674D01*
X6931968Y-16974674D02*
X6941491Y-16993722D01*
X6941491Y-16993722D02*
X6941491Y-17012770D01*
X6941491Y-17012770D02*
X6846253Y-17031817D01*
X7017682Y-17088960D02*
X7036730Y-17098484D01*
X7036730Y-17098484D02*
X7074825Y-17098484D01*
X7074825Y-17098484D02*
X7093872Y-17088960D01*
X7093872Y-17088960D02*
X7103396Y-17069912D01*
X7103396Y-17069912D02*
X7103396Y-17060389D01*
X7103396Y-17060389D02*
X7093872Y-17041341D01*
X7093872Y-17041341D02*
X7074825Y-17031817D01*
X7074825Y-17031817D02*
X7046253Y-17031817D01*
X7046253Y-17031817D02*
X7027206Y-17022293D01*
X7027206Y-17022293D02*
X7017682Y-17003246D01*
X7017682Y-17003246D02*
X7017682Y-16993722D01*
X7017682Y-16993722D02*
X7027206Y-16974674D01*
X7027206Y-16974674D02*
X7046253Y-16965150D01*
X7046253Y-16965150D02*
X7074825Y-16965150D01*
X7074825Y-16965150D02*
X7093872Y-16974674D01*
X7170063Y-17174674D02*
X7179587Y-17165150D01*
X7179587Y-17165150D02*
X7198634Y-17136579D01*
X7198634Y-17136579D02*
X7208158Y-17117531D01*
X7208158Y-17117531D02*
X7217682Y-17088960D01*
X7217682Y-17088960D02*
X7227206Y-17041341D01*
X7227206Y-17041341D02*
X7227206Y-17003246D01*
X7227206Y-17003246D02*
X7217682Y-16955627D01*
X7217682Y-16955627D02*
X7208158Y-16927055D01*
X7208158Y-16927055D02*
X7198634Y-16908008D01*
X7198634Y-16908008D02*
X7179587Y-16879436D01*
X7179587Y-16879436D02*
X7170063Y-16869912D01*
X2195000Y-17227000D02*
X2395000Y-17427000D01*
X2395000Y-17227000D02*
X2195000Y-17427000D01*
X2395000Y-17327000D02*
G75*
G03*
X2195000Y-17327000I-100000J0D01*
G01*
X2195000Y-17327000D02*
G75*
G03*
X2395000Y-17327000I100000J0D01*
G01*
X2741491Y-17285150D02*
X2741491Y-17418484D01*
X2693872Y-17208960D02*
X2646253Y-17351817D01*
X2646253Y-17351817D02*
X2770063Y-17351817D01*
X2846253Y-17399436D02*
X2855777Y-17408960D01*
X2855777Y-17408960D02*
X2846253Y-17418484D01*
X2846253Y-17418484D02*
X2836729Y-17408960D01*
X2836729Y-17408960D02*
X2846253Y-17399436D01*
X2846253Y-17399436D02*
X2846253Y-17418484D01*
X2931967Y-17237531D02*
X2941491Y-17228008D01*
X2941491Y-17228008D02*
X2960539Y-17218484D01*
X2960539Y-17218484D02*
X3008158Y-17218484D01*
X3008158Y-17218484D02*
X3027205Y-17228008D01*
X3027205Y-17228008D02*
X3036729Y-17237531D01*
X3036729Y-17237531D02*
X3046253Y-17256579D01*
X3046253Y-17256579D02*
X3046253Y-17275627D01*
X3046253Y-17275627D02*
X3036729Y-17304198D01*
X3036729Y-17304198D02*
X2922443Y-17418484D01*
X2922443Y-17418484D02*
X3046253Y-17418484D01*
X3170062Y-17218484D02*
X3189110Y-17218484D01*
X3189110Y-17218484D02*
X3208158Y-17228008D01*
X3208158Y-17228008D02*
X3217682Y-17237531D01*
X3217682Y-17237531D02*
X3227205Y-17256579D01*
X3227205Y-17256579D02*
X3236729Y-17294674D01*
X3236729Y-17294674D02*
X3236729Y-17342293D01*
X3236729Y-17342293D02*
X3227205Y-17380389D01*
X3227205Y-17380389D02*
X3217682Y-17399436D01*
X3217682Y-17399436D02*
X3208158Y-17408960D01*
X3208158Y-17408960D02*
X3189110Y-17418484D01*
X3189110Y-17418484D02*
X3170062Y-17418484D01*
X3170062Y-17418484D02*
X3151015Y-17408960D01*
X3151015Y-17408960D02*
X3141491Y-17399436D01*
X3141491Y-17399436D02*
X3131967Y-17380389D01*
X3131967Y-17380389D02*
X3122443Y-17342293D01*
X3122443Y-17342293D02*
X3122443Y-17294674D01*
X3122443Y-17294674D02*
X3131967Y-17256579D01*
X3131967Y-17256579D02*
X3141491Y-17237531D01*
X3141491Y-17237531D02*
X3151015Y-17228008D01*
X3151015Y-17228008D02*
X3170062Y-17218484D01*
X3360539Y-17218484D02*
X3379586Y-17218484D01*
X3379586Y-17218484D02*
X3398634Y-17228008D01*
X3398634Y-17228008D02*
X3408158Y-17237531D01*
X3408158Y-17237531D02*
X3417682Y-17256579D01*
X3417682Y-17256579D02*
X3427205Y-17294674D01*
X3427205Y-17294674D02*
X3427205Y-17342293D01*
X3427205Y-17342293D02*
X3417682Y-17380389D01*
X3417682Y-17380389D02*
X3408158Y-17399436D01*
X3408158Y-17399436D02*
X3398634Y-17408960D01*
X3398634Y-17408960D02*
X3379586Y-17418484D01*
X3379586Y-17418484D02*
X3360539Y-17418484D01*
X3360539Y-17418484D02*
X3341491Y-17408960D01*
X3341491Y-17408960D02*
X3331967Y-17399436D01*
X3331967Y-17399436D02*
X3322443Y-17380389D01*
X3322443Y-17380389D02*
X3312920Y-17342293D01*
X3312920Y-17342293D02*
X3312920Y-17294674D01*
X3312920Y-17294674D02*
X3322443Y-17256579D01*
X3322443Y-17256579D02*
X3331967Y-17237531D01*
X3331967Y-17237531D02*
X3341491Y-17228008D01*
X3341491Y-17228008D02*
X3360539Y-17218484D01*
X3512920Y-17418484D02*
X3512920Y-17285150D01*
X3512920Y-17304198D02*
X3522443Y-17294674D01*
X3522443Y-17294674D02*
X3541491Y-17285150D01*
X3541491Y-17285150D02*
X3570063Y-17285150D01*
X3570063Y-17285150D02*
X3589110Y-17294674D01*
X3589110Y-17294674D02*
X3598634Y-17313722D01*
X3598634Y-17313722D02*
X3598634Y-17418484D01*
X3598634Y-17313722D02*
X3608158Y-17294674D01*
X3608158Y-17294674D02*
X3627205Y-17285150D01*
X3627205Y-17285150D02*
X3655777Y-17285150D01*
X3655777Y-17285150D02*
X3674824Y-17294674D01*
X3674824Y-17294674D02*
X3684348Y-17313722D01*
X3684348Y-17313722D02*
X3684348Y-17418484D01*
X3779586Y-17418484D02*
X3779586Y-17285150D01*
X3779586Y-17304198D02*
X3789110Y-17294674D01*
X3789110Y-17294674D02*
X3808158Y-17285150D01*
X3808158Y-17285150D02*
X3836729Y-17285150D01*
X3836729Y-17285150D02*
X3855777Y-17294674D01*
X3855777Y-17294674D02*
X3865301Y-17313722D01*
X3865301Y-17313722D02*
X3865301Y-17418484D01*
X3865301Y-17313722D02*
X3874824Y-17294674D01*
X3874824Y-17294674D02*
X3893872Y-17285150D01*
X3893872Y-17285150D02*
X3922443Y-17285150D01*
X3922443Y-17285150D02*
X3941491Y-17294674D01*
X3941491Y-17294674D02*
X3951015Y-17313722D01*
X3951015Y-17313722D02*
X3951015Y-17418484D01*
X4341491Y-17208960D02*
X4170063Y-17466103D01*
X4598634Y-17218484D02*
X4617682Y-17218484D01*
X4617682Y-17218484D02*
X4636729Y-17228008D01*
X4636729Y-17228008D02*
X4646253Y-17237531D01*
X4646253Y-17237531D02*
X4655777Y-17256579D01*
X4655777Y-17256579D02*
X4665301Y-17294674D01*
X4665301Y-17294674D02*
X4665301Y-17342293D01*
X4665301Y-17342293D02*
X4655777Y-17380389D01*
X4655777Y-17380389D02*
X4646253Y-17399436D01*
X4646253Y-17399436D02*
X4636729Y-17408960D01*
X4636729Y-17408960D02*
X4617682Y-17418484D01*
X4617682Y-17418484D02*
X4598634Y-17418484D01*
X4598634Y-17418484D02*
X4579587Y-17408960D01*
X4579587Y-17408960D02*
X4570063Y-17399436D01*
X4570063Y-17399436D02*
X4560539Y-17380389D01*
X4560539Y-17380389D02*
X4551015Y-17342293D01*
X4551015Y-17342293D02*
X4551015Y-17294674D01*
X4551015Y-17294674D02*
X4560539Y-17256579D01*
X4560539Y-17256579D02*
X4570063Y-17237531D01*
X4570063Y-17237531D02*
X4579587Y-17228008D01*
X4579587Y-17228008D02*
X4598634Y-17218484D01*
X4751015Y-17399436D02*
X4760539Y-17408960D01*
X4760539Y-17408960D02*
X4751015Y-17418484D01*
X4751015Y-17418484D02*
X4741491Y-17408960D01*
X4741491Y-17408960D02*
X4751015Y-17399436D01*
X4751015Y-17399436D02*
X4751015Y-17418484D01*
X4951015Y-17418484D02*
X4836729Y-17418484D01*
X4893872Y-17418484D02*
X4893872Y-17218484D01*
X4893872Y-17218484D02*
X4874825Y-17247055D01*
X4874825Y-17247055D02*
X4855777Y-17266103D01*
X4855777Y-17266103D02*
X4836729Y-17275627D01*
X5122444Y-17218484D02*
X5084348Y-17218484D01*
X5084348Y-17218484D02*
X5065301Y-17228008D01*
X5065301Y-17228008D02*
X5055777Y-17237531D01*
X5055777Y-17237531D02*
X5036729Y-17266103D01*
X5036729Y-17266103D02*
X5027206Y-17304198D01*
X5027206Y-17304198D02*
X5027206Y-17380389D01*
X5027206Y-17380389D02*
X5036729Y-17399436D01*
X5036729Y-17399436D02*
X5046253Y-17408960D01*
X5046253Y-17408960D02*
X5065301Y-17418484D01*
X5065301Y-17418484D02*
X5103396Y-17418484D01*
X5103396Y-17418484D02*
X5122444Y-17408960D01*
X5122444Y-17408960D02*
X5131968Y-17399436D01*
X5131968Y-17399436D02*
X5141491Y-17380389D01*
X5141491Y-17380389D02*
X5141491Y-17332770D01*
X5141491Y-17332770D02*
X5131968Y-17313722D01*
X5131968Y-17313722D02*
X5122444Y-17304198D01*
X5122444Y-17304198D02*
X5103396Y-17294674D01*
X5103396Y-17294674D02*
X5065301Y-17294674D01*
X5065301Y-17294674D02*
X5046253Y-17304198D01*
X5046253Y-17304198D02*
X5036729Y-17313722D01*
X5036729Y-17313722D02*
X5027206Y-17332770D01*
X5322444Y-17218484D02*
X5227206Y-17218484D01*
X5227206Y-17218484D02*
X5217682Y-17313722D01*
X5217682Y-17313722D02*
X5227206Y-17304198D01*
X5227206Y-17304198D02*
X5246253Y-17294674D01*
X5246253Y-17294674D02*
X5293872Y-17294674D01*
X5293872Y-17294674D02*
X5312920Y-17304198D01*
X5312920Y-17304198D02*
X5322444Y-17313722D01*
X5322444Y-17313722D02*
X5331968Y-17332770D01*
X5331968Y-17332770D02*
X5331968Y-17380389D01*
X5331968Y-17380389D02*
X5322444Y-17399436D01*
X5322444Y-17399436D02*
X5312920Y-17408960D01*
X5312920Y-17408960D02*
X5293872Y-17418484D01*
X5293872Y-17418484D02*
X5246253Y-17418484D01*
X5246253Y-17418484D02*
X5227206Y-17408960D01*
X5227206Y-17408960D02*
X5217682Y-17399436D01*
X5503396Y-17285150D02*
X5503396Y-17418484D01*
X5455777Y-17208960D02*
X5408158Y-17351817D01*
X5408158Y-17351817D02*
X5531968Y-17351817D01*
X5598634Y-17218484D02*
X5598634Y-17256579D01*
X5674825Y-17218484D02*
X5674825Y-17256579D01*
X5970063Y-17494674D02*
X5960539Y-17485150D01*
X5960539Y-17485150D02*
X5941491Y-17456579D01*
X5941491Y-17456579D02*
X5931968Y-17437531D01*
X5931968Y-17437531D02*
X5922444Y-17408960D01*
X5922444Y-17408960D02*
X5912920Y-17361341D01*
X5912920Y-17361341D02*
X5912920Y-17323246D01*
X5912920Y-17323246D02*
X5922444Y-17275627D01*
X5922444Y-17275627D02*
X5931968Y-17247055D01*
X5931968Y-17247055D02*
X5941491Y-17228008D01*
X5941491Y-17228008D02*
X5960539Y-17199436D01*
X5960539Y-17199436D02*
X5970063Y-17189912D01*
X6074825Y-17304198D02*
X6055777Y-17294674D01*
X6055777Y-17294674D02*
X6046253Y-17285150D01*
X6046253Y-17285150D02*
X6036729Y-17266103D01*
X6036729Y-17266103D02*
X6036729Y-17256579D01*
X6036729Y-17256579D02*
X6046253Y-17237531D01*
X6046253Y-17237531D02*
X6055777Y-17228008D01*
X6055777Y-17228008D02*
X6074825Y-17218484D01*
X6074825Y-17218484D02*
X6112920Y-17218484D01*
X6112920Y-17218484D02*
X6131968Y-17228008D01*
X6131968Y-17228008D02*
X6141491Y-17237531D01*
X6141491Y-17237531D02*
X6151015Y-17256579D01*
X6151015Y-17256579D02*
X6151015Y-17266103D01*
X6151015Y-17266103D02*
X6141491Y-17285150D01*
X6141491Y-17285150D02*
X6131968Y-17294674D01*
X6131968Y-17294674D02*
X6112920Y-17304198D01*
X6112920Y-17304198D02*
X6074825Y-17304198D01*
X6074825Y-17304198D02*
X6055777Y-17313722D01*
X6055777Y-17313722D02*
X6046253Y-17323246D01*
X6046253Y-17323246D02*
X6036729Y-17342293D01*
X6036729Y-17342293D02*
X6036729Y-17380389D01*
X6036729Y-17380389D02*
X6046253Y-17399436D01*
X6046253Y-17399436D02*
X6055777Y-17408960D01*
X6055777Y-17408960D02*
X6074825Y-17418484D01*
X6074825Y-17418484D02*
X6112920Y-17418484D01*
X6112920Y-17418484D02*
X6131968Y-17408960D01*
X6131968Y-17408960D02*
X6141491Y-17399436D01*
X6141491Y-17399436D02*
X6151015Y-17380389D01*
X6151015Y-17380389D02*
X6151015Y-17342293D01*
X6151015Y-17342293D02*
X6141491Y-17323246D01*
X6141491Y-17323246D02*
X6131968Y-17313722D01*
X6131968Y-17313722D02*
X6112920Y-17304198D01*
X6389110Y-17418484D02*
X6389110Y-17218484D01*
X6474825Y-17418484D02*
X6474825Y-17313722D01*
X6474825Y-17313722D02*
X6465301Y-17294674D01*
X6465301Y-17294674D02*
X6446253Y-17285150D01*
X6446253Y-17285150D02*
X6417682Y-17285150D01*
X6417682Y-17285150D02*
X6398634Y-17294674D01*
X6398634Y-17294674D02*
X6389110Y-17304198D01*
X6598634Y-17418484D02*
X6579587Y-17408960D01*
X6579587Y-17408960D02*
X6570063Y-17399436D01*
X6570063Y-17399436D02*
X6560539Y-17380389D01*
X6560539Y-17380389D02*
X6560539Y-17323246D01*
X6560539Y-17323246D02*
X6570063Y-17304198D01*
X6570063Y-17304198D02*
X6579587Y-17294674D01*
X6579587Y-17294674D02*
X6598634Y-17285150D01*
X6598634Y-17285150D02*
X6627206Y-17285150D01*
X6627206Y-17285150D02*
X6646253Y-17294674D01*
X6646253Y-17294674D02*
X6655777Y-17304198D01*
X6655777Y-17304198D02*
X6665301Y-17323246D01*
X6665301Y-17323246D02*
X6665301Y-17380389D01*
X6665301Y-17380389D02*
X6655777Y-17399436D01*
X6655777Y-17399436D02*
X6646253Y-17408960D01*
X6646253Y-17408960D02*
X6627206Y-17418484D01*
X6627206Y-17418484D02*
X6598634Y-17418484D01*
X6779587Y-17418484D02*
X6760539Y-17408960D01*
X6760539Y-17408960D02*
X6751015Y-17389912D01*
X6751015Y-17389912D02*
X6751015Y-17218484D01*
X6931968Y-17408960D02*
X6912920Y-17418484D01*
X6912920Y-17418484D02*
X6874825Y-17418484D01*
X6874825Y-17418484D02*
X6855777Y-17408960D01*
X6855777Y-17408960D02*
X6846253Y-17389912D01*
X6846253Y-17389912D02*
X6846253Y-17313722D01*
X6846253Y-17313722D02*
X6855777Y-17294674D01*
X6855777Y-17294674D02*
X6874825Y-17285150D01*
X6874825Y-17285150D02*
X6912920Y-17285150D01*
X6912920Y-17285150D02*
X6931968Y-17294674D01*
X6931968Y-17294674D02*
X6941491Y-17313722D01*
X6941491Y-17313722D02*
X6941491Y-17332770D01*
X6941491Y-17332770D02*
X6846253Y-17351817D01*
X7017682Y-17408960D02*
X7036730Y-17418484D01*
X7036730Y-17418484D02*
X7074825Y-17418484D01*
X7074825Y-17418484D02*
X7093872Y-17408960D01*
X7093872Y-17408960D02*
X7103396Y-17389912D01*
X7103396Y-17389912D02*
X7103396Y-17380389D01*
X7103396Y-17380389D02*
X7093872Y-17361341D01*
X7093872Y-17361341D02*
X7074825Y-17351817D01*
X7074825Y-17351817D02*
X7046253Y-17351817D01*
X7046253Y-17351817D02*
X7027206Y-17342293D01*
X7027206Y-17342293D02*
X7017682Y-17323246D01*
X7017682Y-17323246D02*
X7017682Y-17313722D01*
X7017682Y-17313722D02*
X7027206Y-17294674D01*
X7027206Y-17294674D02*
X7046253Y-17285150D01*
X7046253Y-17285150D02*
X7074825Y-17285150D01*
X7074825Y-17285150D02*
X7093872Y-17294674D01*
X7170063Y-17494674D02*
X7179587Y-17485150D01*
X7179587Y-17485150D02*
X7198634Y-17456579D01*
X7198634Y-17456579D02*
X7208158Y-17437531D01*
X7208158Y-17437531D02*
X7217682Y-17408960D01*
X7217682Y-17408960D02*
X7227206Y-17361341D01*
X7227206Y-17361341D02*
X7227206Y-17323246D01*
X7227206Y-17323246D02*
X7217682Y-17275627D01*
X7217682Y-17275627D02*
X7208158Y-17247055D01*
X7208158Y-17247055D02*
X7198634Y-17228008D01*
X7198634Y-17228008D02*
X7179587Y-17199436D01*
X7179587Y-17199436D02*
X7170063Y-17189912D01*
M02*
