M48
; DRILL file {KiCad 7.0.10} date sob, 11 maj 2024, 12:39:24
; FORMAT={-:-/ absolute / inch / decimal}
; #@! TF.CreationDate,2024-05-11T12:39:24+02:00
; #@! TF.GenerationSoftware,Kicad,Pcbnew,7.0.10
; #@! TF.FileFunction,Plated,1,2,PTH
FMAT,2
INCH
; #@! TA.AperFunction,Plated,PTH,ViaDrill
T1C0.0236
; #@! TA.AperFunction,Plated,PTH,ComponentDrill
T2C0.0315
; #@! TA.AperFunction,Plated,PTH,ViaDrill
T3C0.0394
; #@! TA.AperFunction,Plated,PTH,ComponentDrill
T4C0.0591
; #@! TA.AperFunction,Plated,PTH,ComponentDrill
T5C0.0984
; #@! TA.AperFunction,Plated,PTH,ViaDrill
T6C0.1654
%
G90
G05
T1
X0.9843Y-1.7421
X0.9843Y-1.8327
X0.9843Y-1.9232
X0.9843Y-2.0138
X0.9843Y-2.1043
X0.9843Y-2.1949
X0.9843Y-2.2854
X0.9843Y-2.376
X0.9843Y-2.4665
X0.9843Y-2.5571
X0.9843Y-2.6476
X0.9843Y-2.7382
X0.9843Y-2.8287
X0.9843Y-2.9193
X0.9843Y-3.0098
X0.9843Y-3.1004
X0.9843Y-3.1909
X0.9843Y-3.2815
X0.9843Y-3.372
X0.9843Y-3.4626
X0.9843Y-3.5531
X0.9843Y-3.6437
X0.9843Y-3.7343
X0.9843Y-3.8248
X0.9843Y-3.9154
X0.9843Y-4.0059
X0.9843Y-4.0965
X0.9843Y-4.187
X0.9843Y-4.2776
X0.9843Y-4.3681
X0.9843Y-4.4587
X0.9843Y-4.5492
X0.9843Y-4.6398
X0.9843Y-4.7303
X0.9843Y-4.8209
X0.9843Y-4.9114
X0.9843Y-5.002
X0.9843Y-5.0925
X0.9843Y-5.1831
X0.9843Y-5.2736
X0.9843Y-5.3642
X0.9843Y-5.4547
X0.9843Y-5.5453
X1.1024Y-3.189
X1.1024Y-3.3248
X1.1024Y-3.4154
X1.1024Y-3.5059
X1.1024Y-3.5965
X1.1024Y-3.687
X1.1024Y-3.7776
X1.1024Y-3.8681
X1.1024Y-3.9587
X1.1024Y-4.0492
X1.1024Y-4.1398
X1.1024Y-4.2303
X1.1024Y-4.3209
X1.1024Y-4.4114
X1.1024Y-4.502
X1.1024Y-4.5925
X1.1024Y-4.6831
X1.1024Y-4.7736
X1.1024Y-4.8642
X1.1024Y-4.9547
X1.1024Y-5.0453
X1.1024Y-5.1358
X1.1024Y-5.2264
X1.122Y-5.5413
X1.1575Y-2.9134
X1.1713Y-3.1201
X1.2106Y-2.2933
X1.2106Y-5.3051
X1.2303Y-2.1161
X1.2402Y-3.0807
X1.248Y-3.4547
X1.2598Y-5.5413
X1.2697Y-2.2933
X1.2697Y-2.5787
X1.2894Y-1.9882
X1.2992Y-5.3051
X1.3189Y-2.5787
X1.3386Y-3.4547
X1.3484Y-1.3091
X1.3583Y-3.0807
X1.3681Y-2.4213
X1.3878Y-5.3051
X1.3878Y-5.5413
X1.4173Y-4.4094
X1.4173Y-4.5
X1.4173Y-4.5906
X1.4272Y-2.628
X1.4291Y-3.4547
X1.437Y-2.4213
X1.439Y-1.3091
X1.4567Y-2.0965
X1.4764Y-3.0807
X1.4783Y-5.9646
X1.4961Y-5.3051
X1.5059Y-5.5118
X1.5256Y-2.5098
X1.5295Y-1.3091
X1.5354Y-2.9528
X1.5551Y-5.2362
X1.5689Y-5.9646
X1.5846Y-2.6772
X1.5945Y-3.0906
X1.5945Y-3.1811
X1.5945Y-3.2717
X1.5945Y-3.3622
X1.5945Y-3.4528
X1.5945Y-3.5433
X1.5945Y-3.6339
X1.5945Y-3.7244
X1.5945Y-3.815
X1.5945Y-3.9055
X1.5945Y-3.9961
X1.5945Y-4.0866
X1.5945Y-4.1772
X1.5945Y-4.2677
X1.5945Y-4.3583
X1.5945Y-4.4488
X1.5945Y-4.5394
X1.5945Y-4.6299
X1.5945Y-4.7205
X1.5945Y-4.811
X1.5945Y-4.9016
X1.5945Y-4.9921
X1.5945Y-5.0827
X1.6043Y-5.4232
X1.6142Y-2.5689
X1.6201Y-1.3091
X1.624Y-2.0177
X1.624Y-2.0669
X1.624Y-2.9528
X1.6594Y-5.9646
X1.6929Y-2.4803
X1.6929Y-5.1181
X1.7028Y-2.2047
X1.7028Y-2.3327
X1.7106Y-1.3091
X1.7224Y-1.5748
X1.7224Y-1.7323
X1.7224Y-1.811
X1.7224Y-3.0807
X1.7224Y-5.2953
X1.7323Y-2.9528
X1.75Y-5.9646
X1.7717Y-2.2047
X1.7717Y-2.4803
X1.7815Y-2.3327
X1.7815Y-5.0394
X1.8012Y-1.3091
X1.8012Y-3.1594
X1.8012Y-3.25
X1.8012Y-3.3406
X1.8012Y-3.4311
X1.8012Y-3.5217
X1.8012Y-3.6122
X1.8012Y-3.7028
X1.8012Y-3.7933
X1.8012Y-3.8839
X1.8012Y-3.9744
X1.8012Y-4.065
X1.8012Y-4.1555
X1.8012Y-4.2461
X1.8012Y-4.3366
X1.8012Y-4.4272
X1.8012Y-4.5177
X1.8012Y-4.6083
X1.8012Y-4.6988
X1.8012Y-4.7894
X1.8012Y-4.8799
X1.8209Y-2.9528
X1.8209Y-5.2067
X1.8406Y-5.9646
X1.8504Y-3.0807
X1.8701Y-4.9508
X1.8917Y-1.3091
X1.8996Y-2.8839
X1.9193Y-5.1083
X1.9311Y-5.9646
X1.939Y-2.6378
X1.939Y-2.7067
X1.9488Y-4.872
X1.9587Y-1.9783
X1.9587Y-2.815
X1.9783Y-3.0413
X1.9783Y-3.1319
X1.9783Y-3.2224
X1.9783Y-3.313
X1.9783Y-3.4035
X1.9783Y-3.4941
X1.9783Y-3.5846
X1.9783Y-3.6752
X1.9783Y-3.7657
X1.9783Y-3.8563
X1.9783Y-3.9469
X1.9783Y-4.0374
X1.9783Y-4.128
X1.9783Y-4.2185
X1.9783Y-4.3091
X1.9783Y-4.3996
X1.9783Y-4.4902
X1.9783Y-4.5807
X1.9783Y-4.6713
X1.9823Y-1.3091
X1.998Y-2.4902
X2.0079Y-2.9331
X2.0177Y-5.0098
X2.0217Y-5.9646
X2.0276Y-1.5748
X2.0472Y-4.7736
X2.0669Y-1.9685
X2.0669Y-2.4902
X2.0728Y-1.3091
X2.0768Y-2.8642
X2.0866Y-1.8406
X2.0866Y-2.1949
X2.0965Y-1.7028
X2.1122Y-5.9646
X2.1161Y-4.9311
X2.1358Y-2.0866
X2.1634Y-1.3091
X2.1752Y-1.8406
X2.2028Y-5.9646
X2.2146Y-4.8819
X2.2244Y-1.8406
X2.2539Y-1.3091
X2.2638Y-4.8819
X2.2736Y-2.9035
X2.2736Y-2.9921
X2.2736Y-3.937
X2.2736Y-4.5276
X2.2736Y-4.6063
X2.2835Y-3.622
X2.2933Y-5.9646
X2.3031Y-1.8406
X2.3031Y-5.7677
X2.3228Y-1.7028
X2.3228Y-2.5295
X2.3228Y-2.5984
X2.3445Y-1.3091
X2.3524Y-1.5846
X2.3524Y-1.8406
X2.3839Y-5.9646
X2.3937Y-5.7677
X2.4213Y-1.8406
X2.4219Y-2.7583
X2.4311Y-1.5846
X2.4325Y-4.9429
X2.435Y-1.3091
X2.4409Y-2.1752
X2.4744Y-5.9646
X2.4843Y-5.7677
X2.4894Y-3.3455
X2.4902Y-2.9134
X2.4902Y-2.9823
X2.4902Y-4.5866
X2.4902Y-4.6457
X2.5Y-2.1752
X2.5098Y-3.622
X2.5098Y-3.9272
X2.5098Y-4.2028
X2.5256Y-1.3091
X2.565Y-5.9646
X2.5689Y-2.2933
X2.5748Y-5.7677
X2.5787Y-2.5787
X2.5984Y-1.8504
X2.5984Y-1.9685
X2.6083Y-4.1929
X2.6161Y-1.3091
X2.6181Y-3.3661
X2.628Y-3.1102
X2.6476Y-1.4961
X2.6476Y-2.4508
X2.6555Y-5.9646
X2.6654Y-5.7677
X2.6969Y-4.1339
X2.7067Y-1.3091
X2.7067Y-3.435
X2.7441Y-2.0669
X2.7461Y-1.6043
X2.7461Y-5.9646
X2.7559Y-5.7677
X2.7657Y-2.4508
X2.7756Y-3.1201
X2.7756Y-3.1791
X2.7756Y-4.3799
X2.7756Y-4.4291
X2.7854Y-2.5787
X2.7972Y-1.3091
X2.8287Y-3.3415
X2.8307Y-4.2244
X2.8366Y-5.9646
X2.8465Y-5.7677
X2.8543Y-4.9213
X2.8642Y-4.7047
X2.8642Y-4.7539
X2.8648Y-1.765
X2.874Y-1.565
X2.8878Y-1.3091
X2.9035Y-2.2343
X2.9121Y-1.765
X2.9134Y-1.9094
X2.9134Y-2.0079
X2.9272Y-5.9646
X2.9331Y-2.8839
X2.937Y-5.7677
X2.9626Y-4.9213
X2.9783Y-1.3091
X2.979Y-1.765
X2.9882Y-3.3425
X2.9882Y-4.2244
X3.0118Y-2.0079
X3.015Y-1.536
X3.0177Y-5.9646
X3.0217Y-1.4469
X3.0276Y-5.7677
X3.0413Y-4.872
X3.0472Y-4.565
X3.0492Y-2.9941
X3.0515Y-1.935
X3.061Y-2.5984
X3.0689Y-1.3091
X3.1Y-1.534
X3.101Y-1.4469
X3.1035Y-2.01
X3.1083Y-5.9646
X3.1102Y-2.3543
X3.1181Y-5.7677
X3.1299Y-4.8228
X3.142Y-1.935
X3.1457Y-4.2244
X3.1476Y-3.3435
X3.1496Y-4.4094
X3.1594Y-1.3091
X3.1693Y-2.7264
X3.1693Y-3.1594
X3.194Y-2.01
X3.1988Y-5.9646
X3.2087Y-3.5728
X3.2087Y-3.9862
X3.2087Y-5.7677
X3.2166Y-2.0945
X3.2283Y-4.3799
X3.2283Y-4.7244
X3.2283Y-4.7736
X3.2326Y-1.935
X3.25Y-1.3091
X3.2677Y-3.1693
X3.2677Y-3.2972
X3.2677Y-3.4154
X3.2677Y-4.1437
X3.2677Y-4.252
X3.279Y-1.671
X3.2846Y-2.01
X3.286Y-1.501
X3.2894Y-5.9646
X3.2913Y-2.2677
X3.2992Y-5.7677
X3.3018Y-1.588
X3.3231Y-1.935
X3.3406Y-1.3091
X3.3661Y-2.0866
X3.3751Y-2.01
X3.3799Y-5.9646
X3.3898Y-5.7677
X3.3923Y-1.588
X3.4137Y-1.935
X3.4311Y-1.3091
X3.4657Y-2.01
X3.4705Y-5.9646
X3.4803Y-5.7677
X3.4829Y-1.588
X3.5042Y-1.935
X3.5217Y-1.3091
X3.5236Y-2.0866
X3.5562Y-2.01
X3.561Y-5.9646
X3.5709Y-5.7677
X3.5734Y-1.588
X3.5948Y-1.935
X3.6122Y-1.3091
X3.6319Y-4.3799
X3.6468Y-2.01
X3.6516Y-5.9646
X3.6614Y-5.7677
X3.664Y-1.588
X3.6853Y-1.935
X3.7028Y-1.3091
X3.7373Y-2.01
X3.7402Y-4.3799
X3.7421Y-5.9646
X3.752Y-5.7677
X3.753Y-1.589
X3.7759Y-1.935
X3.7933Y-1.3091
X3.8279Y-2.01
X3.8327Y-5.9646
X3.8386Y-2.0965
X3.8425Y-5.7677
X3.8664Y-1.935
X3.8839Y-1.3091
X3.9184Y-2.01
X3.9232Y-5.9646
X3.9331Y-5.7677
X3.957Y-1.935
X3.9744Y-1.3091
X4.001Y-1.859
X4.009Y-2.01
X4.0138Y-5.9646
X4.0236Y-5.7677
X4.042Y-1.781
X4.065Y-1.3091
X4.085Y-1.701
X4.1043Y-5.9646
X4.1142Y-5.7677
X4.128Y-1.604
X4.1555Y-1.3091
X4.1732Y-1.4961
X4.1949Y-5.9646
X4.2047Y-5.7677
X4.2461Y-1.3091
X4.2638Y-1.4961
X4.2854Y-5.9646
X4.2953Y-5.7677
X4.3366Y-1.3091
X4.3543Y-1.4961
X4.376Y-5.9646
X4.3858Y-5.7677
X4.4272Y-1.3091
X4.4449Y-1.4961
X4.4665Y-5.9646
X4.4764Y-5.7677
X4.5177Y-1.3091
X4.5354Y-1.4961
X4.5571Y-5.9646
X4.5669Y-5.7677
X4.6083Y-1.3091
X4.626Y-1.4961
X4.6476Y-5.9646
X4.6575Y-5.7677
X4.6988Y-1.3091
X4.7165Y-1.4961
X4.7382Y-5.9646
X4.748Y-5.7677
X4.7894Y-1.3091
X4.8071Y-1.4961
X4.8287Y-5.9646
X4.8386Y-5.7677
X4.8799Y-1.3091
X4.8976Y-1.4961
X4.9193Y-5.9646
X4.9291Y-5.7677
X4.9705Y-1.3091
X4.9882Y-1.4961
X5.0098Y-5.9646
X5.0197Y-5.7677
X5.061Y-1.3091
X5.0787Y-1.4961
X5.1004Y-5.9646
X5.1102Y-5.7677
X5.1516Y-1.3091
X5.1693Y-1.4961
X5.1909Y-5.9646
X5.2008Y-5.7677
X5.2421Y-1.3091
X5.2598Y-1.4961
X5.2815Y-5.9646
X5.2913Y-5.7677
X5.3327Y-1.3091
X5.3504Y-1.4961
X5.372Y-5.9646
X5.3819Y-5.7677
X5.4232Y-1.3091
X5.4409Y-1.4961
X5.4626Y-5.9646
X5.4724Y-5.7677
X5.5138Y-1.3091
X5.5315Y-1.4961
X5.5531Y-5.9646
X5.563Y-5.7677
X5.6043Y-1.3091
X5.622Y-1.4961
X5.6437Y-5.9646
X5.6535Y-5.7677
X5.6949Y-1.3091
X5.7126Y-1.4961
X5.7343Y-5.9646
X5.7441Y-5.7677
X5.7854Y-1.3091
X5.8031Y-1.4961
X5.8248Y-5.9646
X5.8346Y-5.7677
X5.876Y-1.3091
X5.8937Y-1.4961
X5.9154Y-5.9646
X5.9252Y-5.7677
X5.9665Y-1.3091
X5.9843Y-1.4961
X6.0059Y-5.9646
X6.0571Y-1.3091
X6.0748Y-1.4961
X6.0965Y-5.9646
X6.1476Y-1.3091
X6.1654Y-1.4961
X6.187Y-5.9646
X6.2382Y-1.3091
X6.2559Y-1.4961
X6.2776Y-5.9646
X6.3287Y-1.3091
X6.3681Y-5.9646
X6.4193Y-1.3091
X6.5098Y-1.3091
X6.6004Y-1.3091
X6.6909Y-1.3091
X6.7224Y-5.9646
X6.7815Y-1.3091
X6.7913Y-1.4961
X6.813Y-5.9646
X6.872Y-1.3091
X6.8819Y-1.4961
X6.9035Y-5.9646
X6.9488Y-5.8268
X6.9626Y-1.3091
X6.9724Y-1.4961
X6.9941Y-5.9646
X7.0394Y-5.8268
X7.0531Y-1.3091
X7.063Y-1.4961
X7.0846Y-5.9646
X7.1299Y-5.8268
X7.1437Y-1.3091
X7.1535Y-1.4961
X7.1752Y-5.9646
X7.2205Y-5.8268
X7.2343Y-1.3091
X7.2441Y-1.4961
X7.2657Y-5.9646
X7.311Y-5.8268
X7.3248Y-1.3091
X7.3346Y-1.4961
X7.3563Y-5.9646
X7.4016Y-5.8268
X7.4154Y-1.3091
X7.4252Y-1.4961
X7.4469Y-5.9646
X7.4921Y-5.8268
X7.5059Y-1.3091
X7.5157Y-1.4961
X7.5374Y-5.9646
X7.5827Y-5.8268
X7.5965Y-1.3091
X7.6063Y-1.4961
X7.628Y-5.9646
X7.6732Y-5.8268
X7.687Y-1.3091
X7.6969Y-1.4961
X7.7185Y-5.9646
X7.7638Y-5.8268
X7.7776Y-1.3091
X7.7874Y-1.4961
X7.8091Y-5.9646
X7.8543Y-5.8268
X7.8681Y-1.3091
X7.878Y-1.4961
X7.8996Y-5.9646
X7.9449Y-5.8268
X7.9587Y-1.3091
X7.9685Y-1.4961
X7.9902Y-5.9646
X8.0354Y-5.8268
X8.0492Y-1.3091
X8.0591Y-1.4961
X8.0807Y-5.9646
X8.126Y-5.8268
X8.1398Y-1.3091
X8.1496Y-1.4961
X8.1713Y-5.9646
X8.2165Y-5.8268
X8.2303Y-1.3091
X8.2402Y-1.4961
X8.2618Y-5.9646
X8.3071Y-5.8268
X8.3209Y-1.3091
X8.3307Y-1.4961
X8.3524Y-5.9646
X8.3976Y-5.8268
X8.4114Y-1.3091
X8.4213Y-1.4961
X8.4429Y-5.9646
X8.4882Y-5.8268
X8.502Y-1.3091
X8.5118Y-1.4961
X8.5335Y-5.9646
X8.5787Y-5.8268
X8.5925Y-1.3091
X8.6024Y-1.4961
X8.624Y-5.9646
X8.6693Y-5.8268
X8.6831Y-1.3091
X8.6929Y-1.4961
X8.7146Y-5.9646
X8.7598Y-5.8268
X8.7736Y-1.3091
X8.7835Y-1.4961
X8.8051Y-5.9646
X8.8504Y-5.8268
X8.8642Y-1.3091
X8.874Y-1.4961
X8.8957Y-5.9646
X8.8976Y-1.565
X8.8976Y-1.6339
X8.8976Y-1.7244
X8.9409Y-5.8268
X8.9547Y-1.3091
X8.9646Y-1.4961
X8.9665Y-2.3622
X8.9665Y-2.4508
X8.9665Y-2.5689
X8.9665Y-2.6378
X8.9862Y-5.9646
X9.0315Y-5.8268
X9.0453Y-1.3091
X9.065Y-1.9587
X9.065Y-2.0177
X9.065Y-2.0768
X9.0768Y-5.9646
X9.122Y-5.8268
X9.1358Y-1.3091
X9.1673Y-5.9646
X9.2264Y-1.3091
X9.2579Y-5.9646
X9.2913Y-1.3976
X9.2913Y-1.4665
X9.3169Y-1.3091
X9.3484Y-5.9646
X9.4075Y-1.3091
X9.439Y-5.9646
X9.498Y-1.3091
X9.5295Y-5.9646
X9.5886Y-1.3091
X9.6201Y-5.9646
X9.6654Y-1.4075
X9.6654Y-1.4764
X9.6791Y-1.3091
X9.7106Y-5.9646
X9.7697Y-1.3091
X9.8012Y-5.9646
X9.8602Y-1.3091
X9.8917Y-5.9646
X9.9508Y-1.3091
X9.9823Y-5.9646
X10.0413Y-1.3091
X10.0728Y-5.9646
X10.1319Y-1.3091
X10.1634Y-5.9646
X10.2224Y-1.3091
X10.2539Y-5.9646
X10.313Y-1.3091
X10.3445Y-5.9646
X10.4035Y-1.3091
X10.435Y-5.9646
X10.8563Y-1.7913
X10.8563Y-1.8819
X10.8563Y-1.9724
X10.8563Y-2.063
X10.8563Y-2.1535
X10.8563Y-2.2441
X10.8563Y-2.3346
X10.8563Y-2.4252
X10.8563Y-2.5157
X10.8563Y-2.6063
X10.8563Y-2.6969
X10.876Y-3.6693
X10.876Y-3.7598
X10.876Y-3.8504
X10.876Y-3.9409
X10.876Y-4.0315
X10.876Y-4.122
X10.876Y-4.2126
X10.876Y-4.3031
X10.876Y-4.3937
X10.876Y-4.4843
X10.876Y-4.5748
X10.876Y-4.6654
X10.876Y-4.7559
X10.876Y-4.8465
X10.876Y-4.937
X10.876Y-5.0276
X10.876Y-5.1181
X10.876Y-5.2087
X10.876Y-5.2992
X10.876Y-5.3898
X10.876Y-5.4803
X10.876Y-5.5709
X10.9744Y-1.4783
X10.9744Y-1.5689
X10.9744Y-1.6594
X10.9744Y-1.75
X10.9744Y-1.8406
X10.9744Y-1.9311
X10.9744Y-2.0217
X10.9744Y-2.1122
X10.9744Y-2.2028
X10.9744Y-2.2933
X10.9744Y-2.3839
X10.9744Y-2.4744
X10.9744Y-2.565
X10.9744Y-2.6555
X10.9744Y-2.7461
X10.9744Y-3.7283
X10.9744Y-3.8189
X10.9744Y-3.9094
X10.9744Y-4.0
X10.9744Y-4.0906
X10.9744Y-4.1811
X10.9744Y-4.2717
X10.9744Y-4.3622
X10.9744Y-4.4528
X10.9744Y-4.5433
X10.9744Y-4.6339
X10.9744Y-4.7244
X10.9744Y-4.815
X10.9744Y-4.9055
X10.9744Y-4.9961
X10.9744Y-5.0866
X10.9744Y-5.1772
X10.9744Y-5.2677
X10.9744Y-5.3583
X10.9744Y-5.4488
X10.9744Y-5.5394
X10.9744Y-5.6299
T2
X3.2185Y-4.6236
X3.2205Y-2.9354
X3.7303Y-2.126
T3
X1.9193Y-5.5807
X2.0604Y-5.5807
X2.2014Y-5.5807
X2.3228Y-3.7697
X2.3425Y-5.5807
X2.4836Y-5.5807
X2.4902Y-3.7697
X2.6247Y-5.5807
X2.7008Y-3.7717
X2.7657Y-5.5807
X2.874Y-3.7697
X2.9068Y-5.5807
X2.9921Y-3.7697
X3.0479Y-5.5807
X3.1102Y-3.7697
X3.189Y-5.5807
X3.2185Y-3.7697
X3.2283Y-4.8917
X3.2283Y-5.0295
X3.2283Y-5.187
X3.2283Y-5.3346
X3.252Y-2.4488
X3.252Y-2.5591
X3.252Y-2.6772
X3.252Y-2.8031
X3.3301Y-5.5807
X3.3366Y-3.7205
X3.3366Y-3.8189
X3.3425Y-4.311
X3.3465Y-3.2126
X3.4646Y-3.5354
X3.4646Y-3.7205
X3.4646Y-3.8189
X3.4646Y-3.9882
X3.4711Y-5.5807
X3.5827Y-4.0591
X3.5906Y-3.4843
X3.6024Y-3.2087
X3.6024Y-3.3268
X3.6024Y-4.1929
X3.6024Y-4.2815
X3.6122Y-5.5807
X3.7533Y-5.5807
X3.7598Y-4.0551
X3.7795Y-3.4843
X3.8944Y-5.5807
X3.9882Y-3.6535
X3.9882Y-3.7756
X4.0354Y-5.5807
X4.0906Y-3.7087
X4.1634Y-4.5571
X4.1634Y-4.7539
X4.1634Y-4.9606
X4.1634Y-5.1476
X4.1634Y-5.3346
X4.1929Y-5.5807
X4.2028Y-1.9685
X4.2185Y-2.4941
X4.2185Y-2.6516
X4.2185Y-2.8287
X4.2185Y-2.9764
X4.2283Y-2.1496
X4.2283Y-2.3169
X4.3045Y-4.5571
X4.3045Y-4.9606
X4.3045Y-5.3346
X4.334Y-5.5807
X4.3438Y-1.9685
X4.4455Y-4.5571
X4.4455Y-4.9606
X4.4455Y-5.3346
X4.4751Y-2.6476
X4.4751Y-5.5807
X4.4849Y-1.9685
X4.4849Y-2.313
X4.5866Y-4.5571
X4.5866Y-4.9606
X4.5866Y-5.3346
X4.6161Y-2.6476
X4.6161Y-5.5807
X4.626Y-1.9685
X4.626Y-2.313
X4.7277Y-4.5571
X4.7277Y-4.9606
X4.7277Y-5.3346
X4.7572Y-2.6476
X4.7572Y-5.5807
X4.7671Y-1.9685
X4.7671Y-2.313
X4.8688Y-4.5571
X4.8688Y-4.9606
X4.8688Y-5.3346
X4.8983Y-2.6476
X4.8983Y-5.5807
X4.9081Y-1.9685
X4.9081Y-2.313
X5.0098Y-4.5571
X5.0098Y-4.9606
X5.0098Y-5.3346
X5.0394Y-2.6476
X5.0394Y-5.5807
X5.0492Y-1.9685
X5.0492Y-2.313
X5.1509Y-4.5571
X5.1509Y-4.9606
X5.1509Y-5.3346
X5.1804Y-2.6476
X5.1804Y-5.5807
X5.1903Y-1.9685
X5.1903Y-2.313
X5.292Y-4.5571
X5.292Y-4.9606
X5.292Y-5.3346
X5.3215Y-2.6476
X5.3215Y-5.5807
X5.3314Y-1.9685
X5.3314Y-2.313
X5.4331Y-4.5571
X5.4331Y-4.9606
X5.4331Y-5.3346
X5.4626Y-2.6476
X5.4626Y-5.5807
X5.4724Y-1.9685
X5.4724Y-2.313
X5.5741Y-4.5571
X5.5741Y-4.9606
X5.5741Y-5.3346
X5.6037Y-2.6476
X5.6037Y-5.5807
X5.6135Y-1.9685
X5.6135Y-2.313
X5.7152Y-4.5571
X5.7152Y-4.9606
X5.7152Y-5.3346
X5.7448Y-2.6476
X5.7448Y-5.5807
X5.7546Y-1.9685
X5.7546Y-2.313
X5.8563Y-4.5571
X5.8563Y-4.9606
X5.8563Y-5.3346
X5.8858Y-2.6476
X5.8858Y-5.5807
X5.8957Y-1.9685
X5.8957Y-2.313
X5.9974Y-4.5571
X5.9974Y-4.9606
X5.9974Y-5.3346
X6.0269Y-2.6476
X6.0269Y-5.5807
X6.0367Y-1.9685
X6.0367Y-2.313
X6.1385Y-4.5571
X6.1385Y-4.9606
X6.1385Y-5.3346
X6.168Y-2.6476
X6.168Y-5.5807
X6.1778Y-1.9685
X6.1778Y-2.313
X6.2795Y-4.5571
X6.2795Y-4.9606
X6.2795Y-5.3346
X6.3091Y-2.6476
X6.3091Y-5.5807
X6.3189Y-1.9685
X6.3189Y-2.313
X6.3819Y-4.4173
X6.4764Y-4.3031
X6.5709Y-4.189
X6.6535Y-2.4508
X6.6634Y-2.0866
X6.6772Y-4.0945
X6.7946Y-2.4508
X6.8045Y-2.0866
X6.811Y-4.065
X6.9357Y-2.4508
X6.9455Y-2.0866
X6.9521Y-4.065
X7.0768Y-2.4508
X7.0866Y-2.0866
X7.0932Y-4.065
X7.2178Y-2.4508
X7.2277Y-2.0866
X7.2343Y-4.065
X7.3524Y-4.4488
X7.3589Y-2.4508
X7.3688Y-2.0866
X7.3753Y-4.065
X7.3917Y-5.561
X7.4934Y-4.4488
X7.5Y-2.4508
X7.5098Y-2.0866
X7.5164Y-4.065
X7.5328Y-5.561
X7.6345Y-4.4488
X7.6411Y-2.4508
X7.6509Y-2.0866
X7.6575Y-4.065
X7.6693Y-2.8898
X7.6693Y-3.2677
X7.6739Y-5.561
X7.7756Y-4.4488
X7.7822Y-2.4508
X7.792Y-2.0866
X7.7986Y-4.065
X7.8104Y-2.8898
X7.8104Y-3.2677
X7.815Y-5.561
X7.9167Y-4.4488
X7.9232Y-2.4508
X7.9331Y-2.0866
X7.9396Y-4.065
X7.9514Y-2.8898
X7.9514Y-3.2677
X7.956Y-5.561
X8.0577Y-4.4488
X8.0643Y-2.4508
X8.0741Y-2.0866
X8.0807Y-4.065
X8.0925Y-2.8898
X8.0925Y-3.2677
X8.0971Y-5.561
X8.1988Y-4.4488
X8.2054Y-2.4508
X8.2152Y-2.0866
X8.2218Y-4.065
X8.2382Y-5.561
X8.3399Y-4.4488
X8.3465Y-2.4508
X8.3563Y-2.0866
X8.3629Y-4.065
X8.3793Y-5.561
X8.435Y-3.8681
X8.481Y-4.4488
X8.4875Y-2.4508
X8.4974Y-2.0866
X8.5039Y-4.065
X8.5203Y-5.561
X8.5761Y-3.8681
X8.6286Y-2.4508
X8.6385Y-2.0866
X8.645Y-4.065
X8.7172Y-3.8681
X8.7697Y-2.4508
X8.7795Y-2.0866
X8.7861Y-4.065
X8.8583Y-3.8681
X8.9272Y-4.065
X8.9698Y-3.5728
X8.9993Y-3.8681
X9.1109Y-3.5728
X9.1404Y-3.8681
X9.252Y-3.5728
X9.2815Y-3.8681
X9.393Y-3.5728
X9.4213Y-2.2067
X9.4219Y-1.9626
X9.4226Y-3.8681
X9.5341Y-3.5728
X9.5623Y-2.2067
X9.563Y-1.9626
X9.5636Y-3.8681
X9.5846Y-2.7539
X9.5846Y-2.895
X9.6752Y-3.5728
X9.7047Y-3.8681
X9.7795Y-5.7323
X9.8163Y-3.5728
X9.8458Y-3.8681
X9.9206Y-5.7323
X9.9573Y-3.5728
X9.9869Y-3.8681
X10.0617Y-5.7323
X10.0984Y-3.5728
X10.1181Y-5.2559
X10.126Y-2.9311
X10.126Y-3.0722
X10.126Y-3.2133
X10.126Y-3.3543
X10.128Y-3.8681
X10.1969Y-1.5486
X10.1969Y-1.6896
X10.1969Y-1.8307
X10.1969Y-1.9718
X10.1969Y-2.1129
X10.1969Y-2.2539
X10.1969Y-2.395
X10.1969Y-2.5361
X10.1969Y-2.6772
X10.2028Y-5.7323
X10.2592Y-5.2559
X10.269Y-3.8681
X10.4003Y-5.2559
X10.4101Y-3.8681
X10.5413Y-5.2559
X10.5512Y-2.0236
X10.5512Y-2.1647
X10.5512Y-2.3058
X10.5512Y-2.4469
X10.5512Y-3.8681
T4
X3.7028Y-3.2992
X3.7028Y-4.252
T5
X10.1098Y-5.0394
X10.1098Y-5.4646
X10.315Y-5.0394
X10.315Y-5.4646
X10.5201Y-5.0394
X10.5201Y-5.4646
T6
X1.2205Y-1.6142
X1.2205Y-5.7874
X3.7402Y-3.7697
X6.5354Y-1.6142
X6.5354Y-5.7874
X7.8346Y-3.7795
X10.6693Y-1.6142
X10.6693Y-5.7874
M30
